%FSLAX25Y25*%
%MOIN*%
G70*
G01*
G75*
G04 Layer_Physical_Order=2*
G04 Layer_Color=16711680*
%ADD10R,0.03543X0.02953*%
%ADD11R,0.02953X0.01772*%
%ADD12R,0.02953X0.01772*%
%ADD13R,0.04134X0.05906*%
%ADD14R,0.08661X0.02362*%
%ADD15R,0.08661X0.02362*%
%ADD16R,0.02953X0.03543*%
%ADD17R,0.03150X0.03740*%
%ADD18R,0.09449X0.12992*%
%ADD19R,0.09449X0.03937*%
%ADD20C,0.01200*%
%ADD21C,0.05000*%
%ADD22C,0.04000*%
%ADD23C,0.02000*%
%ADD24C,0.05906*%
%ADD25R,0.05906X0.05906*%
%ADD26C,0.02787*%
%ADD27R,0.05906X0.05906*%
%ADD28C,0.02500*%
%ADD29R,0.03740X0.03150*%
%ADD30O,0.02165X0.06496*%
%ADD31O,0.06496X0.02165*%
G36*
X1053526Y163876D02*
X1053666Y163666D01*
X1054278Y163257D01*
X1055000Y163114D01*
X1055722Y163257D01*
X1055780Y163296D01*
X1055922Y163268D01*
X1056261Y163087D01*
Y158870D01*
X1056391Y158213D01*
X1056763Y157657D01*
X1057320Y157285D01*
X1057522Y157245D01*
X1057473Y156747D01*
X1055828D01*
X1055287Y157109D01*
X1054630Y157239D01*
X1050299D01*
X1049643Y157109D01*
X1049164Y156789D01*
X1048724Y157025D01*
Y158593D01*
X1048834Y158666D01*
X1049243Y159278D01*
X1049386Y160000D01*
X1049243Y160722D01*
X1048834Y161334D01*
X1048222Y161743D01*
X1048222Y161743D01*
X1048222D01*
Y161743D01*
X1048225Y161776D01*
X1050500D01*
X1050968Y161870D01*
X1051365Y162135D01*
X1052865Y163635D01*
X1053026Y163876D01*
X1053526D01*
D02*
G37*
G36*
X1101878Y112122D02*
X1069506D01*
Y112447D01*
X1069506D01*
Y117775D01*
X1069971Y118240D01*
X1070419Y118019D01*
X1070417Y118000D01*
X1070539Y117073D01*
X1070897Y116208D01*
X1071466Y115466D01*
X1072208Y114897D01*
X1073073Y114539D01*
X1074000Y114417D01*
X1074927Y114539D01*
X1075792Y114897D01*
X1076534Y115466D01*
X1077103Y116208D01*
X1077461Y117073D01*
X1077583Y118000D01*
X1077461Y118927D01*
X1077103Y119792D01*
X1076534Y120534D01*
X1075792Y121103D01*
X1074927Y121461D01*
X1074000Y121583D01*
X1073073Y121461D01*
X1072214Y121106D01*
X1071798Y121384D01*
Y124602D01*
X1071900Y124753D01*
X1072400D01*
X1072511Y124586D01*
X1073068Y124214D01*
X1073724Y124084D01*
X1074381Y124214D01*
X1074938Y124586D01*
X1075049Y124753D01*
X1075549D01*
X1075661Y124586D01*
X1076217Y124214D01*
X1076874Y124084D01*
X1077531Y124214D01*
X1078087Y124586D01*
X1078199Y124753D01*
X1078699D01*
X1078811Y124586D01*
X1079367Y124214D01*
X1080024Y124084D01*
X1080680Y124214D01*
X1081237Y124586D01*
X1081609Y125143D01*
X1081739Y125799D01*
Y130130D01*
X1081609Y130787D01*
X1081237Y131343D01*
X1080680Y131715D01*
X1080024Y131846D01*
X1079367Y131715D01*
X1078811Y131343D01*
X1078699Y131176D01*
X1078199D01*
X1078087Y131343D01*
X1077531Y131715D01*
X1076874Y131846D01*
X1076217Y131715D01*
X1075661Y131343D01*
X1075549Y131176D01*
X1075049D01*
X1074938Y131343D01*
X1074381Y131715D01*
X1073724Y131846D01*
X1073068Y131715D01*
X1072511Y131343D01*
X1072400Y131176D01*
X1071900D01*
X1071788Y131343D01*
X1071231Y131715D01*
X1070575Y131846D01*
X1069918Y131715D01*
X1069362Y131343D01*
X1069250Y131176D01*
X1068750D01*
X1068638Y131343D01*
X1068082Y131715D01*
X1067425Y131846D01*
X1066769Y131715D01*
X1066212Y131343D01*
X1066100Y131176D01*
X1065600D01*
X1065489Y131343D01*
X1064932Y131715D01*
X1064276Y131846D01*
X1063619Y131715D01*
X1063062Y131343D01*
X1062951Y131176D01*
X1062451D01*
X1062339Y131343D01*
X1061782Y131715D01*
X1061126Y131846D01*
X1060469Y131715D01*
X1059913Y131343D01*
X1059801Y131176D01*
X1059301D01*
X1059190Y131343D01*
X1058633Y131715D01*
X1057976Y131846D01*
X1057320Y131715D01*
X1056763Y131343D01*
X1056391Y130787D01*
X1056261Y130130D01*
Y129188D01*
X1029353D01*
X1029103Y129792D01*
X1028534Y130534D01*
X1027792Y131103D01*
X1026927Y131461D01*
X1026000Y131583D01*
X1025073Y131461D01*
X1024208Y131103D01*
X1023466Y130534D01*
X1022897Y129792D01*
X1022539Y128927D01*
X1022417Y128000D01*
X1022539Y127073D01*
X1022897Y126208D01*
X1023466Y125466D01*
X1024208Y124897D01*
X1025073Y124539D01*
X1026000Y124417D01*
X1026927Y124539D01*
X1027792Y124897D01*
X1028534Y125466D01*
X1029103Y126208D01*
X1029324Y126741D01*
X1034241D01*
X1034386Y126263D01*
X1034268Y126183D01*
X1028613Y120529D01*
X1028534Y120534D01*
X1027792Y121103D01*
X1026927Y121461D01*
X1026000Y121583D01*
X1025073Y121461D01*
X1024208Y121103D01*
X1023466Y120534D01*
X1022897Y119792D01*
X1022539Y118927D01*
X1022417Y118000D01*
X1022539Y117073D01*
X1022897Y116208D01*
X1023466Y115466D01*
X1024208Y114897D01*
X1025073Y114539D01*
X1026000Y114417D01*
X1026927Y114539D01*
X1027792Y114897D01*
X1028534Y115466D01*
X1029103Y116208D01*
X1029461Y117073D01*
X1029583Y118000D01*
X1029579Y118034D01*
X1034568Y123023D01*
X1035030Y122832D01*
Y122543D01*
X1039970D01*
Y122832D01*
X1040432Y123023D01*
X1041320Y122135D01*
Y122135D01*
D01*
Y122135D01*
X1041320D01*
X1041320Y122135D01*
X1041320D01*
D01*
D01*
D01*
D01*
X1041320D01*
X1041320Y122135D01*
Y122135D01*
X1041320Y122135D01*
Y122135D01*
X1041717Y121870D01*
X1042185Y121776D01*
X1046448D01*
X1046639Y121315D01*
X1045197Y119872D01*
X1042479D01*
Y115224D01*
X1039970D01*
Y117131D01*
X1035030D01*
Y112782D01*
X1038430D01*
X1038457Y112777D01*
X1052399D01*
X1052697Y112375D01*
X1052620Y112122D01*
X1020622D01*
Y150995D01*
X1021084Y151186D01*
X1022774Y149496D01*
X1022539Y148927D01*
X1022417Y148000D01*
X1022539Y147073D01*
X1022897Y146208D01*
X1023466Y145466D01*
X1024208Y144897D01*
X1025073Y144539D01*
X1026000Y144417D01*
X1026927Y144539D01*
X1027792Y144897D01*
X1028534Y145466D01*
X1029103Y146208D01*
X1029461Y147073D01*
X1029583Y148000D01*
X1029461Y148927D01*
X1029103Y149792D01*
X1028534Y150534D01*
X1027792Y151103D01*
X1026927Y151461D01*
X1026000Y151583D01*
X1025073Y151461D01*
X1024504Y151226D01*
X1022723Y153007D01*
Y155656D01*
X1023197Y155817D01*
X1023466Y155466D01*
X1024208Y154897D01*
X1025073Y154539D01*
X1026000Y154417D01*
X1026927Y154539D01*
X1027496Y154774D01*
X1042221Y140048D01*
Y139372D01*
X1041368D01*
Y134700D01*
X1038632D01*
Y136500D01*
X1034479D01*
Y134700D01*
X1031030D01*
X1029226Y136504D01*
X1029461Y137073D01*
X1029583Y138000D01*
X1029461Y138927D01*
X1029103Y139792D01*
X1028534Y140534D01*
X1027792Y141103D01*
X1026927Y141461D01*
X1026000Y141583D01*
X1025073Y141461D01*
X1024208Y141103D01*
X1023466Y140534D01*
X1022897Y139792D01*
X1022539Y138927D01*
X1022417Y138000D01*
X1022539Y137073D01*
X1022897Y136208D01*
X1023466Y135466D01*
X1024208Y134897D01*
X1025073Y134539D01*
X1026000Y134417D01*
X1026927Y134539D01*
X1027496Y134774D01*
X1029659Y132611D01*
X1030055Y132346D01*
X1030524Y132253D01*
X1049102D01*
X1049643Y131891D01*
X1050299Y131761D01*
X1054630D01*
X1055287Y131891D01*
X1055843Y132263D01*
X1056215Y132820D01*
X1056346Y133476D01*
X1056215Y134133D01*
X1055843Y134689D01*
X1055676Y134801D01*
Y135301D01*
X1055828Y135403D01*
X1058126D01*
X1058594Y135496D01*
X1058991Y135761D01*
X1058991Y135761D01*
X1058991Y135761D01*
X1060365Y137135D01*
X1060630Y137532D01*
X1060630Y137532D01*
X1060630Y137532D01*
X1060723Y138000D01*
Y138593D01*
X1060834Y138666D01*
X1061243Y139278D01*
X1061386Y140000D01*
X1061243Y140722D01*
X1060834Y141334D01*
X1060222Y141743D01*
X1059500Y141886D01*
X1058778Y141743D01*
X1058166Y141334D01*
X1057757Y140722D01*
X1057614Y140000D01*
X1057757Y139278D01*
X1058166Y138666D01*
X1057623Y137854D01*
X1057619Y137849D01*
X1055828D01*
X1055676Y137951D01*
Y138451D01*
X1055843Y138563D01*
X1056215Y139119D01*
X1056346Y139776D01*
X1056215Y140432D01*
X1055843Y140989D01*
X1055676Y141100D01*
Y141600D01*
X1055843Y141712D01*
X1056215Y142269D01*
X1056346Y142925D01*
X1056215Y143582D01*
X1055843Y144138D01*
X1055676Y144250D01*
Y144750D01*
X1055843Y144862D01*
X1056215Y145418D01*
X1056246Y145575D01*
X1048683D01*
X1048714Y145418D01*
X1049086Y144862D01*
X1049253Y144750D01*
Y144250D01*
X1049102Y144149D01*
X1048137D01*
X1046372Y145914D01*
Y148632D01*
X1041628D01*
Y144755D01*
X1041166Y144564D01*
X1029226Y156504D01*
X1029461Y157073D01*
X1029583Y158000D01*
X1029461Y158927D01*
X1029103Y159792D01*
X1028534Y160534D01*
X1027792Y161103D01*
X1026927Y161461D01*
X1026000Y161583D01*
X1026193Y161776D01*
X1045870D01*
X1046166Y161334D01*
X1045757Y160722D01*
X1045614Y160000D01*
X1045757Y159278D01*
X1046166Y158666D01*
X1046276Y158593D01*
Y155521D01*
X1044500D01*
Y153444D01*
Y151368D01*
X1046372D01*
Y151745D01*
X1046834Y151936D01*
X1047261Y151509D01*
X1047658Y151244D01*
X1048126Y151151D01*
X1049102D01*
X1049253Y151049D01*
Y150549D01*
X1049086Y150438D01*
X1048714Y149881D01*
X1048584Y149224D01*
X1048714Y148568D01*
X1049086Y148011D01*
X1049253Y147900D01*
Y147400D01*
X1049086Y147288D01*
X1048714Y146731D01*
X1048683Y146575D01*
X1056246D01*
X1056215Y146731D01*
X1055843Y147288D01*
X1055676Y147400D01*
Y147900D01*
X1055843Y148011D01*
X1056215Y148568D01*
X1056346Y149224D01*
X1056215Y149881D01*
X1055843Y150438D01*
X1055676Y150549D01*
Y151049D01*
X1055843Y151161D01*
X1056215Y151717D01*
X1056346Y152374D01*
X1056215Y153031D01*
X1055843Y153587D01*
X1055676Y153699D01*
Y154199D01*
X1055828Y154300D01*
X1058605D01*
X1060114Y154000D01*
X1060257Y153278D01*
X1060666Y152666D01*
X1061278Y152257D01*
X1062000Y152114D01*
X1062722Y152257D01*
X1063334Y152666D01*
X1063776Y152370D01*
Y146500D01*
X1063776Y146500D01*
X1063776D01*
X1063870Y146032D01*
X1064135Y145635D01*
X1065640Y144130D01*
X1065614Y144000D01*
X1065757Y143278D01*
X1066166Y142666D01*
X1066778Y142257D01*
X1067500Y142114D01*
X1068222Y142257D01*
X1068834Y142666D01*
X1069243Y143278D01*
X1069386Y144000D01*
X1069243Y144722D01*
X1068834Y145334D01*
X1068222Y145743D01*
X1067500Y145886D01*
X1067370Y145860D01*
X1066224Y147007D01*
Y147098D01*
X1066665Y147333D01*
X1066778Y147257D01*
X1067500Y147114D01*
X1068222Y147257D01*
X1068834Y147666D01*
X1069243Y148278D01*
X1069386Y149000D01*
X1069243Y149722D01*
X1068834Y150334D01*
X1068649Y150457D01*
Y157673D01*
X1068750Y157824D01*
X1069250D01*
X1069362Y157657D01*
X1069918Y157285D01*
X1070575Y157154D01*
X1071231Y157285D01*
X1071788Y157657D01*
X1071900Y157824D01*
X1072400D01*
X1072511Y157657D01*
X1073068Y157285D01*
X1073724Y157154D01*
X1074381Y157285D01*
X1074938Y157657D01*
X1075049Y157824D01*
X1075549D01*
X1075661Y157657D01*
X1076217Y157285D01*
X1076874Y157154D01*
X1077531Y157285D01*
X1078087Y157657D01*
X1078199Y157824D01*
X1078699D01*
X1078811Y157657D01*
X1079367Y157285D01*
X1080024Y157154D01*
X1080680Y157285D01*
X1081237Y157657D01*
X1081609Y158213D01*
X1081739Y158870D01*
Y163201D01*
X1081609Y163857D01*
X1081237Y164414D01*
X1080680Y164786D01*
X1080024Y164916D01*
X1079367Y164786D01*
X1078811Y164414D01*
X1078699Y164247D01*
X1078199D01*
X1078098Y164398D01*
Y167874D01*
X1078004Y168342D01*
X1077739Y168739D01*
X1073562Y172916D01*
X1073753Y173378D01*
X1101878D01*
Y112122D01*
D02*
G37*
G36*
X1056261Y125799D02*
X1056391Y125143D01*
X1056711Y124664D01*
X1056475Y124223D01*
X1042692D01*
X1040732Y126183D01*
X1040614Y126263D01*
X1040759Y126741D01*
X1056261D01*
Y125799D01*
D02*
G37*
G36*
X1069351Y124602D02*
Y121082D01*
X1067822Y119553D01*
X1064172D01*
Y112447D01*
D01*
Y112447D01*
X1063846Y112122D01*
X1061828D01*
Y112447D01*
X1061828D01*
Y119553D01*
X1061828D01*
Y119842D01*
X1061968Y119870D01*
X1062365Y120135D01*
X1065141Y122910D01*
X1065406Y123307D01*
X1065499Y123776D01*
X1065499Y123776D01*
X1065499Y123776D01*
Y123776D01*
Y124602D01*
X1065600Y124753D01*
X1066100D01*
X1066212Y124586D01*
X1066769Y124214D01*
X1067425Y124084D01*
X1068082Y124214D01*
X1068638Y124586D01*
X1068750Y124753D01*
X1069250D01*
X1069351Y124602D01*
D02*
G37*
G36*
X1041186Y172916D02*
X1039822Y171553D01*
X1034447D01*
Y164447D01*
D01*
Y164447D01*
X1034223Y164224D01*
X1029553D01*
Y164224D01*
Y164447D01*
X1029553Y164577D01*
X1029553Y164577D01*
X1029553D01*
Y167500D01*
X1022447D01*
Y164447D01*
X1022645D01*
X1022790Y163969D01*
X1022635Y163865D01*
X1021084Y162314D01*
X1020622Y162505D01*
Y173378D01*
X1040995D01*
X1041186Y172916D01*
D02*
G37*
%LPC*%
G36*
X1098372Y134055D02*
X1096500D01*
Y132479D01*
X1098372D01*
Y134055D01*
D02*
G37*
G36*
X1095500Y136632D02*
X1093628D01*
Y135055D01*
X1095500D01*
Y136632D01*
D02*
G37*
G36*
X1096500Y131518D02*
Y128500D01*
X1099518D01*
X1099461Y128927D01*
X1099103Y129792D01*
X1098534Y130534D01*
X1097792Y131103D01*
X1096927Y131461D01*
X1096500Y131518D01*
D02*
G37*
G36*
X1095500Y134055D02*
X1093628D01*
Y132479D01*
X1095500D01*
Y134055D01*
D02*
G37*
G36*
X1038632Y139372D02*
X1037055D01*
Y137500D01*
X1038632D01*
Y139372D01*
D02*
G37*
G36*
X1036000Y141500D02*
X1034713D01*
X1034757Y141278D01*
X1035166Y140666D01*
X1035778Y140257D01*
X1036000Y140213D01*
Y141500D01*
D02*
G37*
G36*
X1098372Y136632D02*
X1096500D01*
Y135055D01*
X1098372D01*
Y136632D01*
D02*
G37*
G36*
X1036055Y139372D02*
X1034479D01*
Y137500D01*
X1036055D01*
Y139372D01*
D02*
G37*
G36*
X1032500Y116787D02*
Y115500D01*
X1033787D01*
X1033743Y115722D01*
X1033334Y116334D01*
X1032722Y116743D01*
X1032500Y116787D01*
D02*
G37*
G36*
X1037000Y121543D02*
X1035030D01*
Y119869D01*
X1037000D01*
Y121543D01*
D02*
G37*
G36*
X1087553Y121553D02*
X1080447D01*
Y114447D01*
X1087553D01*
Y121553D01*
D02*
G37*
G36*
X1031500Y116787D02*
X1031278Y116743D01*
X1030666Y116334D01*
X1030257Y115722D01*
X1030213Y115500D01*
X1031500D01*
Y116787D01*
D02*
G37*
G36*
Y114500D02*
X1030213D01*
X1030257Y114278D01*
X1030666Y113666D01*
X1031278Y113257D01*
X1031500Y113213D01*
Y114500D01*
D02*
G37*
G36*
X1099518Y127500D02*
X1096500D01*
Y124482D01*
X1096927Y124539D01*
X1097792Y124897D01*
X1098534Y125466D01*
X1099103Y126208D01*
X1099461Y127073D01*
X1099518Y127500D01*
D02*
G37*
G36*
X1039970Y121543D02*
X1038000D01*
Y119869D01*
X1039970D01*
Y121543D01*
D02*
G37*
G36*
X1033787Y114500D02*
X1032500D01*
Y113213D01*
X1032722Y113257D01*
X1033334Y113666D01*
X1033743Y114278D01*
X1033787Y114500D01*
D02*
G37*
G36*
X1098372Y154945D02*
X1096500D01*
Y153368D01*
X1098372D01*
Y154945D01*
D02*
G37*
G36*
X1043500Y155521D02*
X1041628D01*
Y153945D01*
X1043500D01*
Y155521D01*
D02*
G37*
G36*
X1039500Y154287D02*
Y153000D01*
X1040787D01*
X1040743Y153222D01*
X1040334Y153834D01*
X1039722Y154243D01*
X1039500Y154287D01*
D02*
G37*
G36*
X1095500Y154945D02*
X1093628D01*
Y153368D01*
X1095500D01*
Y154945D01*
D02*
G37*
G36*
Y157521D02*
X1093628D01*
Y155945D01*
X1095500D01*
Y157521D01*
D02*
G37*
G36*
X1025500Y171553D02*
X1022447D01*
Y168500D01*
X1025500D01*
Y171553D01*
D02*
G37*
G36*
X1029553D02*
X1026500D01*
Y168500D01*
X1029553D01*
Y171553D01*
D02*
G37*
G36*
X1098372Y157521D02*
X1096500D01*
Y155945D01*
X1098372D01*
Y157521D01*
D02*
G37*
G36*
X1037969Y160033D02*
X1037191Y159878D01*
X1036531Y159437D01*
X1036250Y159017D01*
X1035750D01*
X1035469Y159437D01*
X1034809Y159878D01*
X1034031Y160033D01*
X1033254Y159878D01*
X1032594Y159437D01*
X1032154Y158778D01*
X1031999Y158000D01*
X1032154Y157222D01*
X1032594Y156563D01*
X1033254Y156122D01*
X1034031Y155967D01*
X1034809Y156122D01*
X1035469Y156563D01*
X1035750Y156983D01*
X1036250D01*
X1036531Y156563D01*
X1037191Y156122D01*
X1037969Y155967D01*
X1038746Y156122D01*
X1039406Y156563D01*
X1039847Y157222D01*
X1040001Y158000D01*
X1039847Y158778D01*
X1039406Y159437D01*
X1038746Y159878D01*
X1037969Y160033D01*
D02*
G37*
G36*
X1037000Y143787D02*
Y142500D01*
X1038287D01*
X1038243Y142722D01*
X1037834Y143334D01*
X1037222Y143743D01*
X1037000Y143787D01*
D02*
G37*
G36*
X1098372Y150631D02*
X1093628D01*
Y148359D01*
X1092568Y147298D01*
X1088898D01*
X1088747Y147400D01*
Y147900D01*
X1088914Y148011D01*
X1089286Y148568D01*
X1089317Y148724D01*
X1081754D01*
X1081785Y148568D01*
X1082157Y148011D01*
X1082324Y147900D01*
Y147400D01*
X1082172Y147298D01*
X1080075D01*
X1079607Y147205D01*
X1079210Y146940D01*
X1078135Y145865D01*
X1077870Y145468D01*
X1077777Y145000D01*
Y144223D01*
X1077500D01*
X1077032Y144130D01*
X1076635Y143865D01*
X1074196Y141426D01*
X1073722Y141743D01*
X1073000Y141886D01*
X1072278Y141743D01*
X1071666Y141334D01*
X1071257Y140722D01*
X1071114Y140000D01*
X1071257Y139278D01*
X1071666Y138666D01*
X1072278Y138257D01*
X1073000Y138114D01*
X1073722Y138257D01*
X1074334Y138666D01*
X1074407Y138777D01*
X1074500D01*
X1074968Y138870D01*
X1075365Y139135D01*
X1077315Y141084D01*
X1077704Y140923D01*
X1077777Y140850D01*
X1077777Y140850D01*
D01*
X1077870Y140382D01*
X1078135Y139985D01*
X1079210Y138910D01*
X1079607Y138645D01*
X1080075Y138552D01*
X1082172D01*
X1082324Y138451D01*
Y137951D01*
X1082157Y137839D01*
X1081785Y137283D01*
X1081654Y136626D01*
X1081785Y135969D01*
X1082157Y135413D01*
X1082324Y135301D01*
Y134801D01*
X1082157Y134689D01*
X1081785Y134133D01*
X1081654Y133476D01*
X1081785Y132820D01*
X1082157Y132263D01*
X1082714Y131891D01*
X1083370Y131761D01*
X1087701D01*
X1088357Y131891D01*
X1088914Y132263D01*
X1089369Y131959D01*
Y123000D01*
X1089369Y123000D01*
X1089369D01*
X1089493Y122376D01*
X1089847Y121846D01*
X1092447Y119246D01*
Y114447D01*
X1099553D01*
Y121553D01*
X1094754D01*
X1092631Y123676D01*
Y125776D01*
X1093105Y125937D01*
X1093466Y125466D01*
X1094208Y124897D01*
X1095073Y124539D01*
X1095500Y124482D01*
Y127999D01*
Y131518D01*
X1095073Y131461D01*
X1094208Y131103D01*
X1093466Y130534D01*
X1093105Y130063D01*
X1092631Y130224D01*
Y134225D01*
X1092743Y134392D01*
X1092886Y135114D01*
X1092743Y135836D01*
X1092334Y136448D01*
X1091722Y136856D01*
X1091000Y137000D01*
X1090278Y136856D01*
X1089851Y136571D01*
X1089389Y136762D01*
X1089286Y137283D01*
X1088914Y137839D01*
X1088747Y137951D01*
Y138451D01*
X1088898Y138552D01*
X1093776D01*
X1094244Y138645D01*
X1094641Y138910D01*
X1095099Y139368D01*
X1098372D01*
Y143521D01*
X1093628D01*
Y141359D01*
X1093269Y140999D01*
X1088898D01*
X1088747Y141100D01*
Y141600D01*
X1088914Y141712D01*
X1089286Y142269D01*
X1089317Y142425D01*
X1085534D01*
Y143425D01*
X1089317D01*
X1089286Y143582D01*
X1088914Y144138D01*
X1088747Y144250D01*
Y144750D01*
X1088898Y144851D01*
X1093075D01*
X1093543Y144944D01*
X1093940Y145210D01*
X1095209Y146479D01*
X1098372D01*
Y150631D01*
D02*
G37*
G36*
X1038287Y141500D02*
X1037000D01*
Y140213D01*
X1037222Y140257D01*
X1037834Y140666D01*
X1038243Y141278D01*
X1038287Y141500D01*
D02*
G37*
G36*
X1036000Y143787D02*
X1035778Y143743D01*
X1035166Y143334D01*
X1034757Y142722D01*
X1034713Y142500D01*
X1036000D01*
Y143787D01*
D02*
G37*
G36*
X1087701Y157239D02*
X1083370D01*
X1082714Y157109D01*
X1082157Y156737D01*
X1081785Y156180D01*
X1081654Y155524D01*
X1081785Y154867D01*
X1082157Y154311D01*
X1082324Y154199D01*
Y153699D01*
X1082157Y153587D01*
X1081785Y153031D01*
X1081654Y152374D01*
X1081785Y151717D01*
X1082157Y151161D01*
X1082324Y151049D01*
Y150549D01*
X1082157Y150438D01*
X1081785Y149881D01*
X1081754Y149724D01*
X1089317D01*
X1089286Y149881D01*
X1088914Y150438D01*
X1088747Y150549D01*
Y151049D01*
X1088914Y151161D01*
X1089286Y151717D01*
X1089416Y152374D01*
X1089286Y153031D01*
X1088914Y153587D01*
X1088747Y153699D01*
Y154199D01*
X1088914Y154311D01*
X1089286Y154867D01*
X1089416Y155524D01*
X1089286Y156180D01*
X1088914Y156737D01*
X1088357Y157109D01*
X1087701Y157239D01*
D02*
G37*
G36*
X1043500Y152945D02*
X1041628D01*
Y151368D01*
X1043500D01*
Y152945D01*
D02*
G37*
G36*
X1038500Y154287D02*
X1038278Y154243D01*
X1037666Y153834D01*
X1037257Y153222D01*
X1037213Y153000D01*
X1038500D01*
Y154287D01*
D02*
G37*
G36*
Y152000D02*
X1037213D01*
X1037257Y151778D01*
X1037666Y151166D01*
X1038278Y150757D01*
X1038500Y150713D01*
Y152000D01*
D02*
G37*
G36*
X1040787D02*
X1039500D01*
Y150713D01*
X1039722Y150757D01*
X1040334Y151166D01*
X1040743Y151778D01*
X1040787Y152000D01*
D02*
G37*
%LPD*%
D10*
X1096000Y148555D02*
D03*
Y155445D02*
D03*
Y141445D02*
D03*
Y134555D02*
D03*
X1044000Y146555D02*
D03*
Y153445D02*
D03*
D13*
X1066839Y116000D02*
D03*
X1059161D02*
D03*
D16*
X1043445Y137000D02*
D03*
X1036555D02*
D03*
X1044555Y117500D02*
D03*
X1051445D02*
D03*
D20*
X1054000Y118000D02*
X1060161D01*
X1050555D02*
X1054000D01*
Y114000D02*
Y118000D01*
X1037500Y114957D02*
X1038457Y114000D01*
X1054000D01*
X1026000Y118000D02*
X1027815D01*
X1042185Y123000D02*
X1060000D01*
X1061126Y124126D02*
Y127965D01*
X1060000Y123000D02*
X1061126Y124126D01*
X1039867Y125318D02*
X1042185Y123000D01*
X1035133Y125318D02*
X1039867D01*
X1027815Y118000D02*
X1035133Y125318D01*
X1048055Y121000D02*
X1061500D01*
X1044555Y117500D02*
X1048055Y121000D01*
X1061500D02*
X1064276Y123776D01*
X1043571Y136626D02*
X1052465D01*
X1067425Y149075D02*
Y161035D01*
X1080075Y146075D02*
X1085535D01*
X1080075Y139776D02*
X1085535D01*
X1079000Y140850D02*
X1080075Y139776D01*
X1079000Y145000D02*
X1080075Y146075D01*
X1074500Y140000D02*
X1077500Y143000D01*
X1079000D01*
Y140850D02*
Y143000D01*
Y145000D01*
X1058126Y136626D02*
X1059500Y138000D01*
X1052465Y136626D02*
X1058126D01*
X1070575Y120575D02*
Y127965D01*
X1064276Y123776D02*
Y127965D01*
X1030524Y133476D02*
X1052465D01*
X1026000Y138000D02*
X1030524Y133476D01*
X1070575Y161035D02*
Y166925D01*
X1069000Y168500D02*
X1070575Y166925D01*
X1076874Y161035D02*
Y167874D01*
X1073724Y161035D02*
Y167776D01*
X1038000Y168000D02*
X1042600Y172600D01*
X1072148D02*
X1076874Y167874D01*
X1054500Y168500D02*
X1069000D01*
X1048000Y168000D02*
X1050600Y170600D01*
X1070900D01*
X1073724Y167776D01*
X1042600Y172600D02*
X1072148D01*
X1055000Y165000D02*
X1056000Y166000D01*
X1021500Y152500D02*
Y161000D01*
Y152500D02*
X1026000Y148000D01*
X1026035Y127965D02*
X1057976D01*
X1026000Y158000D02*
X1043445Y140555D01*
Y137000D02*
Y140555D01*
X1047630Y142925D02*
X1052465D01*
X1044000Y146555D02*
X1047630Y142925D01*
X1021500Y161000D02*
X1023500Y163000D01*
X1048126Y152374D02*
X1052465D01*
X1047500Y153000D02*
X1048126Y152374D01*
X1047500Y153000D02*
Y160000D01*
X1052000Y164500D02*
Y166000D01*
X1054500Y168500D01*
X1050500Y163000D02*
X1052000Y164500D01*
X1023500Y163000D02*
X1050500D01*
X1085535Y139776D02*
X1093776D01*
X1095445Y141445D02*
X1096000D01*
X1093776Y139776D02*
X1095445Y141445D01*
X1085535Y146075D02*
X1093075D01*
X1095555Y148555D02*
X1096000D01*
X1093075Y146075D02*
X1095555Y148555D01*
X1066839Y116000D02*
Y116839D01*
X1070575Y120575D01*
X1065000Y146500D02*
X1067500Y144000D01*
X1064276Y157224D02*
Y161035D01*
Y157224D02*
X1065000Y156500D01*
Y146500D02*
Y156500D01*
X1052465Y155524D02*
X1060476D01*
X1062000Y154000D01*
X1059500Y138000D02*
Y140000D01*
X1073000D02*
X1074500D01*
X1056000Y166000D02*
X1060500D01*
X1061126Y161035D02*
Y165374D01*
X1060500Y166000D02*
X1061126Y165374D01*
D23*
X1091000Y123000D02*
X1096000Y118000D01*
X1091000Y123000D02*
Y135114D01*
D24*
X1074000Y118000D02*
D03*
X1096000Y128000D02*
D03*
X1048000Y168000D02*
D03*
X1026000Y118000D02*
D03*
Y128000D02*
D03*
Y138000D02*
D03*
Y148000D02*
D03*
Y158000D02*
D03*
D25*
X1084000Y118000D02*
D03*
X1038000Y168000D02*
D03*
D26*
X1034031Y158000D02*
D03*
X1037969D02*
D03*
D27*
X1096000Y118000D02*
D03*
X1026000Y168000D02*
D03*
D28*
X1039000Y152500D02*
D03*
X1036500Y142000D02*
D03*
X1032000Y115000D02*
D03*
X1067500Y149000D02*
D03*
Y144000D02*
D03*
X1073000Y140000D02*
D03*
X1059500D02*
D03*
X1054000Y114000D02*
D03*
X1055000Y165000D02*
D03*
X1047500Y160000D02*
D03*
X1062000Y154000D02*
D03*
X1091000Y135114D02*
D03*
D29*
X1037500Y122043D02*
D03*
Y114957D02*
D03*
D30*
X1080024Y161035D02*
D03*
X1076874D02*
D03*
X1073724D02*
D03*
X1070575D02*
D03*
X1067425D02*
D03*
X1064276D02*
D03*
X1061126D02*
D03*
X1057976D02*
D03*
Y127965D02*
D03*
X1061126D02*
D03*
X1064276D02*
D03*
X1067425D02*
D03*
X1070575D02*
D03*
X1073724D02*
D03*
X1076874D02*
D03*
X1080024D02*
D03*
D31*
X1052465Y155524D02*
D03*
Y152374D02*
D03*
Y149224D02*
D03*
Y146075D02*
D03*
Y142925D02*
D03*
Y139776D02*
D03*
Y136626D02*
D03*
Y133476D02*
D03*
X1085535D02*
D03*
Y136626D02*
D03*
Y139776D02*
D03*
Y142925D02*
D03*
Y146075D02*
D03*
Y149224D02*
D03*
Y152374D02*
D03*
Y155524D02*
D03*
M02*
