%FSLAX25Y25*%
%MOIN*%
G70*
G01*
G75*
G04 Layer_Color=65535*
%ADD10R,0.03543X0.02953*%
%ADD11R,0.02953X0.01772*%
%ADD12R,0.02953X0.01772*%
%ADD13R,0.04134X0.05906*%
%ADD14R,0.08661X0.02362*%
%ADD15R,0.08661X0.02362*%
%ADD16R,0.02953X0.03543*%
%ADD17R,0.03150X0.03740*%
%ADD18R,0.09449X0.12992*%
%ADD19R,0.09449X0.03937*%
%ADD20C,0.01200*%
%ADD21C,0.05000*%
%ADD22C,0.04000*%
%ADD23C,0.02000*%
%ADD24C,0.05906*%
%ADD25R,0.05906X0.05906*%
%ADD26C,0.02787*%
%ADD27R,0.05906X0.05906*%
%ADD28C,0.02500*%
%ADD29R,0.03740X0.03150*%
%ADD30O,0.02165X0.06496*%
%ADD31O,0.06496X0.02165*%
%ADD32C,0.01000*%
%ADD33C,0.00787*%
%ADD34C,0.00984*%
G36*
X1040298Y138950D02*
X1040329Y138946D01*
X1040360Y138942D01*
X1040399Y138934D01*
X1040438Y138923D01*
X1040528Y138895D01*
X1040579Y138876D01*
X1040626Y138848D01*
X1040672Y138821D01*
X1040719Y138790D01*
X1040766Y138751D01*
X1040813Y138708D01*
X1040817Y138704D01*
X1040825Y138696D01*
X1040832Y138685D01*
X1040848Y138665D01*
X1040867Y138642D01*
X1040887Y138611D01*
X1040906Y138575D01*
X1040926Y138540D01*
X1040949Y138497D01*
X1040969Y138451D01*
X1040988Y138400D01*
X1041008Y138345D01*
X1041023Y138287D01*
X1041031Y138224D01*
X1041039Y138158D01*
X1041043Y138092D01*
Y138088D01*
Y138076D01*
Y138061D01*
X1041039Y138037D01*
X1041035Y138006D01*
X1041031Y137975D01*
X1041027Y137936D01*
X1041020Y137897D01*
X1040996Y137807D01*
X1040957Y137714D01*
X1040938Y137667D01*
X1040910Y137624D01*
X1040879Y137577D01*
X1040844Y137534D01*
X1040840Y137530D01*
X1040836Y137526D01*
X1040825Y137515D01*
X1040809Y137499D01*
X1040786Y137484D01*
X1040762Y137464D01*
X1040735Y137441D01*
X1040704Y137421D01*
X1040626Y137374D01*
X1040536Y137335D01*
X1040434Y137300D01*
X1040380Y137288D01*
X1040321Y137281D01*
X1040279Y137597D01*
X1040282D01*
X1040290Y137601D01*
X1040306D01*
X1040321Y137608D01*
X1040368Y137620D01*
X1040427Y137639D01*
X1040489Y137663D01*
X1040555Y137694D01*
X1040614Y137733D01*
X1040665Y137776D01*
X1040668Y137784D01*
X1040684Y137799D01*
X1040700Y137827D01*
X1040723Y137866D01*
X1040743Y137909D01*
X1040762Y137963D01*
X1040778Y138026D01*
X1040782Y138092D01*
Y138096D01*
Y138104D01*
Y138115D01*
X1040778Y138131D01*
X1040774Y138170D01*
X1040762Y138221D01*
X1040743Y138283D01*
X1040719Y138345D01*
X1040680Y138408D01*
X1040629Y138466D01*
X1040622Y138474D01*
X1040602Y138490D01*
X1040571Y138513D01*
X1040524Y138544D01*
X1040470Y138572D01*
X1040403Y138595D01*
X1040329Y138611D01*
X1040247Y138618D01*
X1040228D01*
X1040212Y138614D01*
X1040173Y138611D01*
X1040123Y138599D01*
X1040068Y138583D01*
X1040005Y138556D01*
X1039947Y138521D01*
X1039892Y138474D01*
X1039885Y138466D01*
X1039869Y138451D01*
X1039849Y138419D01*
X1039822Y138377D01*
X1039795Y138326D01*
X1039775Y138263D01*
X1039760Y138197D01*
X1039752Y138119D01*
Y138115D01*
Y138104D01*
Y138084D01*
X1039756Y138057D01*
X1039760Y138026D01*
X1039764Y137987D01*
X1039771Y137944D01*
X1039783Y137897D01*
X1039506Y137932D01*
Y137936D01*
Y137952D01*
X1039510Y137967D01*
Y137983D01*
Y137987D01*
Y137990D01*
Y138002D01*
Y138018D01*
X1039506Y138053D01*
X1039499Y138104D01*
X1039487Y138158D01*
X1039467Y138217D01*
X1039444Y138279D01*
X1039409Y138341D01*
X1039405Y138349D01*
X1039389Y138369D01*
X1039362Y138392D01*
X1039327Y138423D01*
X1039284Y138455D01*
X1039229Y138478D01*
X1039163Y138497D01*
X1039085Y138505D01*
X1039058D01*
X1039027Y138497D01*
X1038984Y138490D01*
X1038941Y138478D01*
X1038894Y138455D01*
X1038843Y138427D01*
X1038800Y138388D01*
X1038797Y138384D01*
X1038781Y138369D01*
X1038761Y138341D01*
X1038742Y138306D01*
X1038719Y138263D01*
X1038703Y138213D01*
X1038687Y138154D01*
X1038683Y138088D01*
Y138084D01*
Y138080D01*
Y138057D01*
X1038691Y138022D01*
X1038699Y137983D01*
X1038711Y137932D01*
X1038734Y137881D01*
X1038761Y137831D01*
X1038800Y137780D01*
X1038804Y137776D01*
X1038820Y137760D01*
X1038847Y137741D01*
X1038886Y137717D01*
X1038933Y137690D01*
X1038992Y137667D01*
X1039062Y137643D01*
X1039144Y137628D01*
X1039089Y137312D01*
X1039085D01*
X1039073Y137316D01*
X1039058Y137320D01*
X1039038Y137324D01*
X1039011Y137331D01*
X1038980Y137339D01*
X1038910Y137366D01*
X1038832Y137398D01*
X1038750Y137444D01*
X1038672Y137499D01*
X1038601Y137569D01*
X1038598Y137573D01*
X1038594Y137577D01*
X1038586Y137589D01*
X1038574Y137608D01*
X1038562Y137628D01*
X1038547Y137651D01*
X1038512Y137710D01*
X1038481Y137784D01*
X1038453Y137873D01*
X1038434Y137971D01*
X1038426Y138026D01*
Y138080D01*
Y138084D01*
Y138088D01*
Y138100D01*
Y138115D01*
X1038430Y138154D01*
X1038438Y138205D01*
X1038449Y138263D01*
X1038465Y138330D01*
X1038488Y138396D01*
X1038520Y138462D01*
Y138466D01*
X1038523Y138470D01*
X1038535Y138494D01*
X1038555Y138525D01*
X1038582Y138564D01*
X1038617Y138607D01*
X1038660Y138654D01*
X1038711Y138696D01*
X1038765Y138735D01*
X1038773Y138739D01*
X1038793Y138751D01*
X1038824Y138767D01*
X1038863Y138782D01*
X1038914Y138798D01*
X1038968Y138813D01*
X1039027Y138825D01*
X1039093Y138829D01*
X1039120D01*
X1039151Y138825D01*
X1039190Y138817D01*
X1039237Y138806D01*
X1039288Y138790D01*
X1039342Y138770D01*
X1039393Y138739D01*
X1039401Y138735D01*
X1039417Y138724D01*
X1039440Y138700D01*
X1039471Y138673D01*
X1039506Y138634D01*
X1039541Y138591D01*
X1039580Y138537D01*
X1039612Y138474D01*
Y138478D01*
X1039616Y138486D01*
Y138497D01*
X1039623Y138513D01*
X1039635Y138552D01*
X1039658Y138603D01*
X1039686Y138657D01*
X1039725Y138716D01*
X1039771Y138774D01*
X1039830Y138825D01*
X1039838Y138829D01*
X1039861Y138845D01*
X1039896Y138864D01*
X1039943Y138891D01*
X1040002Y138915D01*
X1040072Y138934D01*
X1040154Y138950D01*
X1040243Y138954D01*
X1040275D01*
X1040298Y138950D01*
D02*
G37*
G36*
X1033233Y140950D02*
X1033261Y140946D01*
X1033296Y140942D01*
X1033331Y140938D01*
X1033370Y140927D01*
X1033459Y140903D01*
X1033549Y140864D01*
X1033596Y140841D01*
X1033643Y140814D01*
X1033690Y140782D01*
X1033733Y140743D01*
X1033736Y140739D01*
X1033740Y140732D01*
X1033752Y140720D01*
X1033768Y140704D01*
X1033783Y140677D01*
X1033803Y140650D01*
X1033822Y140615D01*
X1033842Y140572D01*
X1033865Y140525D01*
X1033885Y140470D01*
X1033904Y140408D01*
X1033920Y140342D01*
X1033935Y140264D01*
X1033947Y140182D01*
X1033951Y140092D01*
X1033955Y139995D01*
Y139339D01*
X1035000D01*
Y139000D01*
X1032438D01*
Y139963D01*
Y139967D01*
Y139975D01*
Y139987D01*
Y140006D01*
Y140049D01*
X1032442Y140108D01*
X1032446Y140170D01*
X1032449Y140236D01*
X1032457Y140299D01*
X1032465Y140353D01*
Y140357D01*
Y140361D01*
X1032473Y140384D01*
X1032481Y140420D01*
X1032492Y140463D01*
X1032508Y140513D01*
X1032527Y140564D01*
X1032555Y140619D01*
X1032586Y140669D01*
X1032590Y140673D01*
X1032602Y140693D01*
X1032621Y140716D01*
X1032648Y140743D01*
X1032683Y140775D01*
X1032726Y140810D01*
X1032773Y140845D01*
X1032832Y140876D01*
X1032839Y140880D01*
X1032859Y140888D01*
X1032890Y140899D01*
X1032933Y140915D01*
X1032984Y140930D01*
X1033042Y140942D01*
X1033109Y140950D01*
X1033179Y140954D01*
X1033210D01*
X1033233Y140950D01*
D02*
G37*
G36*
X1041822Y157584D02*
Y156500D01*
X1041483D01*
Y157584D01*
X1040496Y159062D01*
X1040906D01*
X1041413Y158286D01*
Y158282D01*
X1041420Y158278D01*
X1041428Y158267D01*
X1041436Y158251D01*
X1041463Y158208D01*
X1041498Y158154D01*
X1041537Y158087D01*
X1041580Y158013D01*
X1041627Y157935D01*
X1041674Y157853D01*
Y157857D01*
X1041678Y157861D01*
X1041686Y157873D01*
X1041693Y157888D01*
X1041717Y157931D01*
X1041752Y157986D01*
X1041791Y158052D01*
X1041842Y158130D01*
X1041896Y158216D01*
X1041955Y158306D01*
X1042450Y159062D01*
X1042844D01*
X1041822Y157584D01*
D02*
G37*
G36*
X1041195Y136891D02*
Y136887D01*
X1041191Y136879D01*
X1041183Y136863D01*
X1041175Y136844D01*
X1041168Y136820D01*
X1041152Y136789D01*
X1041136Y136758D01*
X1041121Y136719D01*
X1041078Y136637D01*
X1041023Y136544D01*
X1040961Y136442D01*
X1040887Y136341D01*
Y136337D01*
X1040895Y136329D01*
X1040903Y136313D01*
X1040910Y136290D01*
X1040922Y136263D01*
X1040938Y136232D01*
X1040949Y136196D01*
X1040965Y136158D01*
X1040981Y136111D01*
X1040992Y136064D01*
X1041020Y135955D01*
X1041035Y135838D01*
X1041043Y135713D01*
Y135709D01*
Y135697D01*
Y135678D01*
X1041039Y135654D01*
Y135623D01*
X1041035Y135588D01*
X1041027Y135549D01*
X1041023Y135506D01*
X1041004Y135409D01*
X1040973Y135303D01*
X1040934Y135194D01*
X1040879Y135085D01*
X1040875Y135081D01*
X1040871Y135073D01*
X1040860Y135058D01*
X1040848Y135038D01*
X1040832Y135015D01*
X1040809Y134987D01*
X1040758Y134925D01*
X1040692Y134855D01*
X1040610Y134785D01*
X1040516Y134714D01*
X1040407Y134652D01*
X1040403D01*
X1040392Y134644D01*
X1040376Y134636D01*
X1040353Y134629D01*
X1040325Y134617D01*
X1040290Y134605D01*
X1040251Y134590D01*
X1040208Y134578D01*
X1040158Y134562D01*
X1040107Y134547D01*
X1039990Y134523D01*
X1039861Y134508D01*
X1039721Y134500D01*
X1039682D01*
X1039658Y134504D01*
X1039623D01*
X1039584Y134508D01*
X1039541Y134512D01*
X1039495Y134520D01*
X1039385Y134539D01*
X1039272Y134562D01*
X1039151Y134601D01*
X1039034Y134652D01*
X1039030D01*
X1039019Y134660D01*
X1039003Y134668D01*
X1038984Y134679D01*
X1038956Y134695D01*
X1038925Y134714D01*
X1038859Y134765D01*
X1038781Y134828D01*
X1038703Y134902D01*
X1038625Y134987D01*
X1038559Y135089D01*
X1038555Y135093D01*
X1038551Y135101D01*
X1038543Y135116D01*
X1038531Y135140D01*
X1038520Y135167D01*
X1038508Y135198D01*
X1038492Y135233D01*
X1038477Y135276D01*
X1038461Y135319D01*
X1038445Y135370D01*
X1038422Y135475D01*
X1038403Y135596D01*
X1038395Y135721D01*
Y135725D01*
Y135736D01*
Y135756D01*
X1038399Y135779D01*
Y135810D01*
X1038403Y135849D01*
X1038410Y135888D01*
X1038414Y135935D01*
X1038438Y136033D01*
X1038469Y136142D01*
X1038508Y136251D01*
X1038535Y136306D01*
X1038566Y136360D01*
Y136364D01*
X1038574Y136372D01*
X1038582Y136388D01*
X1038598Y136407D01*
X1038613Y136431D01*
X1038637Y136458D01*
X1038687Y136520D01*
X1038754Y136590D01*
X1038836Y136664D01*
X1038929Y136731D01*
X1039038Y136793D01*
X1039042D01*
X1039050Y136801D01*
X1039069Y136809D01*
X1039093Y136817D01*
X1039120Y136828D01*
X1039151Y136840D01*
X1039190Y136856D01*
X1039237Y136871D01*
X1039284Y136883D01*
X1039339Y136899D01*
X1039452Y136922D01*
X1039580Y136937D01*
X1039721Y136945D01*
X1039775D01*
X1039803Y136941D01*
X1039834D01*
X1039869Y136937D01*
X1039912Y136934D01*
X1039998Y136922D01*
X1040095Y136902D01*
X1040193Y136879D01*
X1040290Y136848D01*
X1040294D01*
X1040302Y136844D01*
X1040314Y136836D01*
X1040333Y136828D01*
X1040353Y136820D01*
X1040380Y136805D01*
X1040438Y136774D01*
X1040505Y136735D01*
X1040579Y136684D01*
X1040653Y136626D01*
X1040727Y136555D01*
Y136559D01*
X1040735Y136567D01*
X1040743Y136579D01*
X1040754Y136594D01*
X1040766Y136618D01*
X1040782Y136641D01*
X1040817Y136700D01*
X1040856Y136766D01*
X1040895Y136840D01*
X1040934Y136918D01*
X1040965Y136996D01*
X1041195Y136891D01*
D02*
G37*
G36*
X1044209Y156500D02*
X1043893D01*
Y158505D01*
X1043889Y158501D01*
X1043874Y158485D01*
X1043846Y158466D01*
X1043811Y158438D01*
X1043768Y158403D01*
X1043717Y158368D01*
X1043659Y158325D01*
X1043593Y158286D01*
X1043589D01*
X1043585Y158282D01*
X1043561Y158267D01*
X1043526Y158247D01*
X1043484Y158224D01*
X1043433Y158196D01*
X1043378Y158173D01*
X1043320Y158146D01*
X1043265Y158122D01*
Y158431D01*
X1043269D01*
X1043277Y158434D01*
X1043292Y158442D01*
X1043308Y158454D01*
X1043331Y158466D01*
X1043359Y158477D01*
X1043421Y158512D01*
X1043491Y158555D01*
X1043569Y158606D01*
X1043647Y158665D01*
X1043721Y158727D01*
X1043725Y158731D01*
X1043729Y158735D01*
X1043753Y158758D01*
X1043788Y158793D01*
X1043831Y158836D01*
X1043877Y158891D01*
X1043924Y158949D01*
X1043967Y159012D01*
X1044002Y159074D01*
X1044209D01*
Y156500D01*
D02*
G37*
G36*
X1034649Y149027D02*
X1034653Y149019D01*
X1034665Y149007D01*
X1034676Y148988D01*
X1034696Y148965D01*
X1034711Y148937D01*
X1034758Y148871D01*
X1034805Y148793D01*
X1034856Y148707D01*
X1034902Y148610D01*
X1034945Y148512D01*
Y148508D01*
X1034949Y148500D01*
X1034953Y148485D01*
X1034961Y148465D01*
X1034969Y148442D01*
X1034977Y148415D01*
X1034984Y148380D01*
X1034992Y148344D01*
X1035012Y148263D01*
X1035027Y148173D01*
X1035039Y148071D01*
X1035043Y147970D01*
Y147966D01*
Y147954D01*
Y147935D01*
X1035039Y147908D01*
Y147872D01*
X1035035Y147834D01*
X1035031Y147791D01*
X1035023Y147744D01*
X1035004Y147635D01*
X1034977Y147521D01*
X1034938Y147401D01*
X1034883Y147284D01*
X1034879Y147280D01*
X1034875Y147272D01*
X1034867Y147252D01*
X1034852Y147233D01*
X1034836Y147206D01*
X1034817Y147178D01*
X1034766Y147112D01*
X1034700Y147034D01*
X1034618Y146960D01*
X1034524Y146886D01*
X1034419Y146819D01*
X1034415D01*
X1034403Y146812D01*
X1034388Y146804D01*
X1034364Y146796D01*
X1034337Y146784D01*
X1034302Y146769D01*
X1034263Y146757D01*
X1034216Y146741D01*
X1034169Y146726D01*
X1034115Y146714D01*
X1033998Y146687D01*
X1033869Y146671D01*
X1033733Y146663D01*
X1033697D01*
X1033670Y146667D01*
X1033635D01*
X1033596Y146671D01*
X1033553Y146675D01*
X1033506Y146683D01*
X1033397Y146703D01*
X1033280Y146730D01*
X1033155Y146769D01*
X1033034Y146819D01*
X1033031D01*
X1033019Y146827D01*
X1033003Y146835D01*
X1032980Y146847D01*
X1032952Y146866D01*
X1032925Y146886D01*
X1032851Y146933D01*
X1032773Y146999D01*
X1032695Y147073D01*
X1032621Y147167D01*
X1032586Y147213D01*
X1032555Y147268D01*
Y147272D01*
X1032547Y147280D01*
X1032539Y147299D01*
X1032531Y147319D01*
X1032516Y147346D01*
X1032504Y147381D01*
X1032488Y147420D01*
X1032473Y147463D01*
X1032461Y147510D01*
X1032446Y147561D01*
X1032418Y147678D01*
X1032403Y147802D01*
X1032395Y147943D01*
Y147947D01*
Y147954D01*
Y147970D01*
Y147989D01*
X1032399Y148013D01*
Y148044D01*
X1032407Y148110D01*
X1032418Y148185D01*
X1032434Y148270D01*
X1032457Y148356D01*
X1032488Y148442D01*
Y148446D01*
X1032492Y148454D01*
X1032496Y148465D01*
X1032504Y148481D01*
X1032524Y148520D01*
X1032555Y148571D01*
X1032590Y148629D01*
X1032633Y148688D01*
X1032679Y148746D01*
X1032738Y148797D01*
X1032746Y148801D01*
X1032765Y148816D01*
X1032800Y148840D01*
X1032851Y148871D01*
X1032910Y148902D01*
X1032980Y148933D01*
X1033062Y148965D01*
X1033155Y148992D01*
X1033241Y148684D01*
X1033237D01*
X1033233Y148680D01*
X1033210Y148676D01*
X1033175Y148660D01*
X1033128Y148645D01*
X1033081Y148625D01*
X1033031Y148602D01*
X1032980Y148574D01*
X1032933Y148543D01*
X1032929Y148539D01*
X1032913Y148528D01*
X1032894Y148508D01*
X1032867Y148481D01*
X1032839Y148446D01*
X1032808Y148403D01*
X1032781Y148356D01*
X1032754Y148298D01*
X1032750Y148290D01*
X1032742Y148270D01*
X1032730Y148235D01*
X1032718Y148192D01*
X1032707Y148142D01*
X1032695Y148083D01*
X1032687Y148017D01*
X1032683Y147947D01*
Y147943D01*
Y147935D01*
Y147923D01*
Y147908D01*
X1032687Y147865D01*
X1032691Y147810D01*
X1032703Y147748D01*
X1032715Y147678D01*
X1032734Y147611D01*
X1032757Y147545D01*
X1032761Y147537D01*
X1032769Y147518D01*
X1032785Y147486D01*
X1032808Y147447D01*
X1032835Y147405D01*
X1032867Y147358D01*
X1032902Y147315D01*
X1032945Y147272D01*
X1032949Y147268D01*
X1032964Y147256D01*
X1032988Y147237D01*
X1033019Y147213D01*
X1033058Y147186D01*
X1033101Y147159D01*
X1033148Y147135D01*
X1033198Y147112D01*
X1033202D01*
X1033210Y147108D01*
X1033222Y147104D01*
X1033241Y147096D01*
X1033261Y147089D01*
X1033288Y147081D01*
X1033350Y147065D01*
X1033428Y147046D01*
X1033514Y147030D01*
X1033612Y147018D01*
X1033713Y147014D01*
X1033744D01*
X1033772Y147018D01*
X1033799D01*
X1033834Y147022D01*
X1033873Y147026D01*
X1033912Y147030D01*
X1034006Y147042D01*
X1034103Y147065D01*
X1034197Y147092D01*
X1034290Y147132D01*
X1034294D01*
X1034302Y147135D01*
X1034314Y147143D01*
X1034329Y147155D01*
X1034368Y147182D01*
X1034419Y147217D01*
X1034474Y147264D01*
X1034532Y147323D01*
X1034587Y147393D01*
X1034633Y147471D01*
Y147475D01*
X1034637Y147483D01*
X1034645Y147494D01*
X1034649Y147510D01*
X1034657Y147529D01*
X1034669Y147557D01*
X1034688Y147615D01*
X1034708Y147689D01*
X1034727Y147767D01*
X1034739Y147857D01*
X1034743Y147950D01*
Y147954D01*
Y147962D01*
Y147974D01*
Y147989D01*
X1034739Y148032D01*
X1034731Y148087D01*
X1034723Y148149D01*
X1034708Y148223D01*
X1034688Y148301D01*
X1034661Y148380D01*
Y148383D01*
X1034657Y148387D01*
X1034653Y148399D01*
X1034645Y148415D01*
X1034630Y148454D01*
X1034606Y148500D01*
X1034579Y148551D01*
X1034548Y148602D01*
X1034513Y148653D01*
X1034477Y148699D01*
X1033994D01*
Y147947D01*
X1033694D01*
Y149031D01*
X1034645D01*
X1034649Y149027D01*
D02*
G37*
G36*
X1082003Y126601D02*
X1082035D01*
X1082074Y126597D01*
X1082113Y126590D01*
X1082159Y126586D01*
X1082257Y126562D01*
X1082366Y126531D01*
X1082475Y126492D01*
X1082530Y126465D01*
X1082584Y126434D01*
X1082588D01*
X1082596Y126426D01*
X1082612Y126418D01*
X1082631Y126402D01*
X1082655Y126387D01*
X1082682Y126363D01*
X1082744Y126313D01*
X1082815Y126246D01*
X1082889Y126164D01*
X1082955Y126071D01*
X1083017Y125962D01*
Y125958D01*
X1083025Y125946D01*
X1083033Y125931D01*
X1083041Y125907D01*
X1083053Y125880D01*
X1083064Y125845D01*
X1083080Y125806D01*
X1083095Y125763D01*
X1083107Y125712D01*
X1083123Y125661D01*
X1083146Y125544D01*
X1083162Y125416D01*
X1083169Y125275D01*
Y125271D01*
Y125260D01*
Y125236D01*
X1083166Y125209D01*
Y125174D01*
X1083162Y125135D01*
X1083158Y125092D01*
X1083150Y125041D01*
X1083130Y124932D01*
X1083103Y124815D01*
X1083064Y124694D01*
X1083010Y124577D01*
Y124573D01*
X1083002Y124565D01*
X1082994Y124550D01*
X1082982Y124527D01*
X1082963Y124503D01*
X1082943Y124472D01*
X1082897Y124406D01*
X1082834Y124331D01*
X1082756Y124253D01*
X1082666Y124179D01*
X1082565Y124113D01*
X1082561D01*
X1082553Y124105D01*
X1082538Y124098D01*
X1082514Y124090D01*
X1082487Y124078D01*
X1082456Y124062D01*
X1082421Y124051D01*
X1082378Y124035D01*
X1082288Y124008D01*
X1082183Y123980D01*
X1082066Y123965D01*
X1081945Y123957D01*
X1081910D01*
X1081882Y123961D01*
X1081851D01*
X1081816Y123965D01*
X1081773Y123973D01*
X1081726Y123980D01*
X1081629Y124000D01*
X1081520Y124031D01*
X1081407Y124074D01*
X1081352Y124098D01*
X1081297Y124129D01*
X1081294Y124133D01*
X1081286Y124136D01*
X1081270Y124148D01*
X1081251Y124160D01*
X1081227Y124179D01*
X1081200Y124199D01*
X1081138Y124253D01*
X1081067Y124324D01*
X1080993Y124402D01*
X1080927Y124499D01*
X1080865Y124604D01*
Y124608D01*
X1080857Y124620D01*
X1080853Y124636D01*
X1080841Y124659D01*
X1080830Y124686D01*
X1080818Y124718D01*
X1080806Y124757D01*
X1080794Y124800D01*
X1080779Y124846D01*
X1080767Y124893D01*
X1080744Y125002D01*
X1080728Y125119D01*
X1080720Y125244D01*
Y125252D01*
Y125271D01*
X1080724Y125306D01*
Y125349D01*
X1080732Y125404D01*
X1080740Y125466D01*
X1080748Y125533D01*
X1080763Y125611D01*
X1080783Y125689D01*
X1080802Y125771D01*
X1080830Y125853D01*
X1080865Y125934D01*
X1080904Y126016D01*
X1080947Y126098D01*
X1081001Y126172D01*
X1081060Y126242D01*
X1081063Y126246D01*
X1081075Y126258D01*
X1081095Y126278D01*
X1081122Y126301D01*
X1081157Y126328D01*
X1081196Y126356D01*
X1081243Y126391D01*
X1081297Y126426D01*
X1081360Y126457D01*
X1081426Y126492D01*
X1081500Y126519D01*
X1081578Y126551D01*
X1081660Y126570D01*
X1081750Y126590D01*
X1081847Y126601D01*
X1081945Y126605D01*
X1081980D01*
X1082003Y126601D01*
D02*
G37*
G36*
X1035000Y143220D02*
X1034470Y142880D01*
X1034466D01*
X1034458Y142873D01*
X1034446Y142865D01*
X1034431Y142857D01*
X1034392Y142830D01*
X1034341Y142795D01*
X1034282Y142756D01*
X1034224Y142713D01*
X1034169Y142674D01*
X1034119Y142635D01*
X1034115Y142631D01*
X1034099Y142619D01*
X1034076Y142600D01*
X1034048Y142580D01*
X1033994Y142522D01*
X1033967Y142494D01*
X1033947Y142463D01*
X1033943Y142459D01*
X1033939Y142452D01*
X1033931Y142436D01*
X1033920Y142416D01*
X1033896Y142370D01*
X1033877Y142311D01*
Y142307D01*
X1033873Y142299D01*
Y142284D01*
X1033869Y142264D01*
X1033865Y142237D01*
Y142206D01*
X1033861Y142167D01*
Y142120D01*
Y141730D01*
X1035000D01*
Y141391D01*
X1032438D01*
Y142526D01*
Y142529D01*
Y142541D01*
Y142557D01*
Y142580D01*
X1032442Y142611D01*
Y142643D01*
X1032446Y142721D01*
X1032453Y142803D01*
X1032469Y142888D01*
X1032485Y142970D01*
X1032496Y143009D01*
X1032508Y143044D01*
Y143048D01*
X1032512Y143052D01*
X1032520Y143076D01*
X1032539Y143107D01*
X1032566Y143146D01*
X1032598Y143193D01*
X1032640Y143239D01*
X1032691Y143286D01*
X1032754Y143329D01*
X1032761Y143333D01*
X1032785Y143345D01*
X1032820Y143364D01*
X1032867Y143384D01*
X1032925Y143403D01*
X1032992Y143423D01*
X1033062Y143434D01*
X1033140Y143438D01*
X1033167D01*
X1033187Y143434D01*
X1033210D01*
X1033237Y143430D01*
X1033300Y143415D01*
X1033374Y143395D01*
X1033448Y143364D01*
X1033526Y143317D01*
X1033565Y143290D01*
X1033600Y143259D01*
X1033608Y143251D01*
X1033615Y143239D01*
X1033631Y143228D01*
X1033643Y143208D01*
X1033662Y143185D01*
X1033678Y143157D01*
X1033697Y143126D01*
X1033717Y143091D01*
X1033736Y143048D01*
X1033756Y143005D01*
X1033775Y142955D01*
X1033795Y142904D01*
X1033811Y142845D01*
X1033822Y142783D01*
X1033834Y142717D01*
X1033838Y142725D01*
X1033846Y142740D01*
X1033857Y142763D01*
X1033873Y142791D01*
X1033916Y142857D01*
X1033939Y142892D01*
X1033963Y142920D01*
X1033970Y142927D01*
X1033986Y142947D01*
X1034017Y142974D01*
X1034056Y143009D01*
X1034107Y143052D01*
X1034165Y143099D01*
X1034232Y143150D01*
X1034306Y143200D01*
X1035000Y143645D01*
Y143220D01*
D02*
G37*
G36*
X1033791Y146309D02*
X1033826D01*
X1033865Y146305D01*
X1033908Y146301D01*
X1033959Y146293D01*
X1034068Y146274D01*
X1034185Y146246D01*
X1034306Y146207D01*
X1034423Y146153D01*
X1034427D01*
X1034435Y146145D01*
X1034450Y146137D01*
X1034474Y146125D01*
X1034497Y146106D01*
X1034528Y146086D01*
X1034594Y146039D01*
X1034669Y145977D01*
X1034746Y145899D01*
X1034821Y145809D01*
X1034887Y145708D01*
Y145704D01*
X1034895Y145696D01*
X1034902Y145681D01*
X1034910Y145657D01*
X1034922Y145630D01*
X1034938Y145599D01*
X1034949Y145564D01*
X1034965Y145521D01*
X1034992Y145431D01*
X1035019Y145326D01*
X1035035Y145209D01*
X1035043Y145088D01*
Y145084D01*
Y145072D01*
Y145053D01*
X1035039Y145026D01*
Y144994D01*
X1035035Y144959D01*
X1035027Y144916D01*
X1035019Y144869D01*
X1035000Y144772D01*
X1034969Y144663D01*
X1034926Y144550D01*
X1034902Y144495D01*
X1034871Y144440D01*
X1034867Y144437D01*
X1034863Y144429D01*
X1034852Y144413D01*
X1034840Y144394D01*
X1034821Y144370D01*
X1034801Y144343D01*
X1034746Y144281D01*
X1034676Y144210D01*
X1034598Y144136D01*
X1034501Y144070D01*
X1034396Y144008D01*
X1034392D01*
X1034380Y144000D01*
X1034364Y143996D01*
X1034341Y143984D01*
X1034314Y143973D01*
X1034282Y143961D01*
X1034243Y143949D01*
X1034200Y143937D01*
X1034154Y143922D01*
X1034107Y143910D01*
X1033998Y143887D01*
X1033881Y143871D01*
X1033756Y143863D01*
X1033729D01*
X1033694Y143867D01*
X1033651D01*
X1033596Y143875D01*
X1033534Y143883D01*
X1033467Y143891D01*
X1033389Y143906D01*
X1033311Y143926D01*
X1033229Y143945D01*
X1033148Y143973D01*
X1033066Y144008D01*
X1032984Y144047D01*
X1032902Y144089D01*
X1032828Y144144D01*
X1032757Y144203D01*
X1032754Y144207D01*
X1032742Y144218D01*
X1032722Y144238D01*
X1032699Y144265D01*
X1032672Y144300D01*
X1032644Y144339D01*
X1032609Y144386D01*
X1032574Y144440D01*
X1032543Y144503D01*
X1032508Y144569D01*
X1032481Y144643D01*
X1032449Y144721D01*
X1032430Y144803D01*
X1032410Y144893D01*
X1032399Y144990D01*
X1032395Y145088D01*
Y145092D01*
Y145104D01*
Y145123D01*
X1032399Y145146D01*
Y145178D01*
X1032403Y145217D01*
X1032410Y145256D01*
X1032414Y145302D01*
X1032438Y145400D01*
X1032469Y145509D01*
X1032508Y145618D01*
X1032535Y145673D01*
X1032566Y145728D01*
Y145731D01*
X1032574Y145739D01*
X1032582Y145755D01*
X1032598Y145774D01*
X1032613Y145798D01*
X1032637Y145825D01*
X1032687Y145887D01*
X1032754Y145958D01*
X1032835Y146032D01*
X1032929Y146098D01*
X1033038Y146160D01*
X1033042D01*
X1033054Y146168D01*
X1033070Y146176D01*
X1033093Y146184D01*
X1033120Y146195D01*
X1033155Y146207D01*
X1033194Y146223D01*
X1033237Y146238D01*
X1033288Y146250D01*
X1033339Y146266D01*
X1033456Y146289D01*
X1033584Y146305D01*
X1033725Y146312D01*
X1033764D01*
X1033791Y146309D01*
D02*
G37*
G36*
X1059688Y170000D02*
X1059306D01*
X1059009Y170776D01*
X1057933D01*
X1057656Y170000D01*
X1057297D01*
X1058276Y172562D01*
X1058646D01*
X1059688Y170000D01*
D02*
G37*
G36*
X1062135Y162500D02*
X1061819D01*
Y164505D01*
X1061815Y164501D01*
X1061799Y164485D01*
X1061772Y164466D01*
X1061737Y164438D01*
X1061694Y164403D01*
X1061643Y164368D01*
X1061585Y164325D01*
X1061519Y164286D01*
X1061515D01*
X1061511Y164282D01*
X1061487Y164267D01*
X1061452Y164247D01*
X1061409Y164224D01*
X1061359Y164197D01*
X1061304Y164173D01*
X1061246Y164146D01*
X1061191Y164122D01*
Y164430D01*
X1061195D01*
X1061203Y164434D01*
X1061218Y164442D01*
X1061234Y164454D01*
X1061257Y164466D01*
X1061285Y164477D01*
X1061347Y164512D01*
X1061417Y164555D01*
X1061495Y164606D01*
X1061573Y164664D01*
X1061647Y164727D01*
X1061651Y164731D01*
X1061655Y164735D01*
X1061679Y164758D01*
X1061714Y164793D01*
X1061757Y164836D01*
X1061803Y164891D01*
X1061850Y164949D01*
X1061893Y165012D01*
X1061928Y165074D01*
X1062135D01*
Y162500D01*
D02*
G37*
G36*
X1060512Y163580D02*
Y163576D01*
Y163565D01*
Y163545D01*
Y163518D01*
X1060509Y163483D01*
Y163448D01*
X1060505Y163405D01*
X1060501Y163358D01*
X1060489Y163260D01*
X1060473Y163159D01*
X1060454Y163058D01*
X1060423Y162968D01*
Y162964D01*
X1060419Y162956D01*
X1060415Y162945D01*
X1060407Y162929D01*
X1060384Y162890D01*
X1060353Y162835D01*
X1060310Y162777D01*
X1060255Y162715D01*
X1060185Y162656D01*
X1060107Y162598D01*
X1060103D01*
X1060095Y162590D01*
X1060083Y162586D01*
X1060064Y162574D01*
X1060044Y162566D01*
X1060017Y162555D01*
X1059982Y162539D01*
X1059947Y162527D01*
X1059908Y162516D01*
X1059861Y162500D01*
X1059814Y162488D01*
X1059760Y162480D01*
X1059643Y162465D01*
X1059510Y162457D01*
X1059475D01*
X1059452Y162461D01*
X1059420D01*
X1059385Y162465D01*
X1059346Y162469D01*
X1059303Y162473D01*
X1059210Y162488D01*
X1059112Y162508D01*
X1059011Y162539D01*
X1058921Y162578D01*
X1058917D01*
X1058910Y162586D01*
X1058902Y162590D01*
X1058886Y162601D01*
X1058843Y162629D01*
X1058796Y162672D01*
X1058742Y162722D01*
X1058691Y162781D01*
X1058640Y162855D01*
X1058597Y162937D01*
Y162941D01*
X1058594Y162949D01*
X1058590Y162960D01*
X1058582Y162980D01*
X1058574Y163003D01*
X1058566Y163034D01*
X1058558Y163069D01*
X1058551Y163108D01*
X1058539Y163151D01*
X1058531Y163198D01*
X1058523Y163253D01*
X1058516Y163307D01*
X1058508Y163370D01*
X1058504Y163436D01*
X1058500Y163506D01*
Y163580D01*
Y165062D01*
X1058839D01*
Y163580D01*
Y163576D01*
Y163565D01*
Y163549D01*
Y163526D01*
Y163498D01*
X1058843Y163467D01*
X1058847Y163393D01*
X1058855Y163315D01*
X1058863Y163233D01*
X1058878Y163155D01*
X1058886Y163120D01*
X1058898Y163089D01*
X1058902Y163081D01*
X1058910Y163062D01*
X1058925Y163034D01*
X1058949Y162999D01*
X1058976Y162960D01*
X1059015Y162917D01*
X1059058Y162878D01*
X1059112Y162843D01*
X1059120Y162839D01*
X1059140Y162831D01*
X1059171Y162816D01*
X1059214Y162804D01*
X1059268Y162789D01*
X1059331Y162773D01*
X1059401Y162765D01*
X1059479Y162761D01*
X1059514D01*
X1059541Y162765D01*
X1059573D01*
X1059608Y162769D01*
X1059686Y162781D01*
X1059775Y162804D01*
X1059861Y162831D01*
X1059943Y162874D01*
X1059982Y162898D01*
X1060013Y162929D01*
Y162933D01*
X1060021Y162937D01*
X1060029Y162949D01*
X1060037Y162964D01*
X1060052Y162984D01*
X1060064Y163007D01*
X1060079Y163038D01*
X1060095Y163073D01*
X1060107Y163116D01*
X1060122Y163163D01*
X1060138Y163214D01*
X1060150Y163276D01*
X1060157Y163342D01*
X1060165Y163413D01*
X1060173Y163495D01*
Y163580D01*
Y165062D01*
X1060512D01*
Y163580D01*
D02*
G37*
G36*
X1057012Y171080D02*
Y171076D01*
Y171065D01*
Y171045D01*
Y171018D01*
X1057008Y170983D01*
Y170948D01*
X1057005Y170905D01*
X1057001Y170858D01*
X1056989Y170761D01*
X1056973Y170659D01*
X1056954Y170558D01*
X1056923Y170468D01*
Y170464D01*
X1056919Y170456D01*
X1056915Y170445D01*
X1056907Y170429D01*
X1056884Y170390D01*
X1056853Y170335D01*
X1056810Y170277D01*
X1056755Y170214D01*
X1056685Y170156D01*
X1056607Y170097D01*
X1056603D01*
X1056595Y170090D01*
X1056583Y170086D01*
X1056564Y170074D01*
X1056544Y170066D01*
X1056517Y170055D01*
X1056482Y170039D01*
X1056447Y170027D01*
X1056408Y170016D01*
X1056361Y170000D01*
X1056314Y169988D01*
X1056260Y169981D01*
X1056143Y169965D01*
X1056010Y169957D01*
X1055975D01*
X1055952Y169961D01*
X1055920D01*
X1055885Y169965D01*
X1055846Y169969D01*
X1055803Y169973D01*
X1055710Y169988D01*
X1055612Y170008D01*
X1055511Y170039D01*
X1055421Y170078D01*
X1055417D01*
X1055410Y170086D01*
X1055402Y170090D01*
X1055386Y170101D01*
X1055343Y170129D01*
X1055296Y170172D01*
X1055242Y170222D01*
X1055191Y170281D01*
X1055140Y170355D01*
X1055097Y170437D01*
Y170441D01*
X1055094Y170449D01*
X1055090Y170460D01*
X1055082Y170480D01*
X1055074Y170503D01*
X1055066Y170534D01*
X1055058Y170569D01*
X1055051Y170608D01*
X1055039Y170651D01*
X1055031Y170698D01*
X1055023Y170753D01*
X1055016Y170807D01*
X1055008Y170870D01*
X1055004Y170936D01*
X1055000Y171006D01*
Y171080D01*
Y172562D01*
X1055339D01*
Y171080D01*
Y171076D01*
Y171065D01*
Y171049D01*
Y171026D01*
Y170998D01*
X1055343Y170967D01*
X1055347Y170893D01*
X1055355Y170815D01*
X1055363Y170733D01*
X1055378Y170655D01*
X1055386Y170620D01*
X1055398Y170589D01*
X1055402Y170581D01*
X1055410Y170562D01*
X1055425Y170534D01*
X1055449Y170499D01*
X1055476Y170460D01*
X1055515Y170417D01*
X1055558Y170378D01*
X1055612Y170343D01*
X1055620Y170339D01*
X1055640Y170332D01*
X1055671Y170316D01*
X1055714Y170304D01*
X1055768Y170289D01*
X1055831Y170273D01*
X1055901Y170265D01*
X1055979Y170261D01*
X1056014D01*
X1056041Y170265D01*
X1056073D01*
X1056108Y170269D01*
X1056186Y170281D01*
X1056275Y170304D01*
X1056361Y170332D01*
X1056443Y170374D01*
X1056482Y170398D01*
X1056513Y170429D01*
Y170433D01*
X1056521Y170437D01*
X1056529Y170449D01*
X1056537Y170464D01*
X1056552Y170484D01*
X1056564Y170507D01*
X1056579Y170538D01*
X1056595Y170573D01*
X1056607Y170616D01*
X1056622Y170663D01*
X1056638Y170714D01*
X1056650Y170776D01*
X1056658Y170842D01*
X1056665Y170913D01*
X1056673Y170994D01*
Y171080D01*
Y172562D01*
X1057012D01*
Y171080D01*
D02*
G37*
G36*
X1064380Y172262D02*
X1063537D01*
Y170000D01*
X1063198D01*
Y172262D01*
X1062355D01*
Y172562D01*
X1064380D01*
Y172262D01*
D02*
G37*
G36*
X1077721Y164558D02*
X1077752D01*
X1077830Y164555D01*
X1077912Y164547D01*
X1077998Y164531D01*
X1078080Y164515D01*
X1078119Y164504D01*
X1078154Y164492D01*
X1078158D01*
X1078161Y164488D01*
X1078185Y164480D01*
X1078216Y164461D01*
X1078255Y164434D01*
X1078302Y164402D01*
X1078349Y164359D01*
X1078395Y164309D01*
X1078438Y164246D01*
X1078442Y164239D01*
X1078454Y164215D01*
X1078473Y164180D01*
X1078493Y164133D01*
X1078512Y164075D01*
X1078532Y164008D01*
X1078544Y163938D01*
X1078547Y163860D01*
Y163856D01*
Y163849D01*
Y163833D01*
X1078544Y163813D01*
Y163790D01*
X1078540Y163763D01*
X1078524Y163700D01*
X1078505Y163626D01*
X1078473Y163552D01*
X1078427Y163474D01*
X1078399Y163435D01*
X1078368Y163400D01*
X1078360Y163392D01*
X1078349Y163384D01*
X1078337Y163369D01*
X1078317Y163357D01*
X1078294Y163338D01*
X1078267Y163322D01*
X1078236Y163303D01*
X1078200Y163283D01*
X1078158Y163264D01*
X1078115Y163244D01*
X1078064Y163225D01*
X1078013Y163205D01*
X1077955Y163189D01*
X1077892Y163178D01*
X1077826Y163166D01*
X1077834Y163162D01*
X1077849Y163154D01*
X1077873Y163143D01*
X1077900Y163127D01*
X1077966Y163084D01*
X1078001Y163061D01*
X1078029Y163037D01*
X1078037Y163030D01*
X1078056Y163014D01*
X1078083Y162983D01*
X1078119Y162944D01*
X1078161Y162893D01*
X1078208Y162835D01*
X1078259Y162768D01*
X1078310Y162694D01*
X1078754Y162000D01*
X1078329D01*
X1077990Y162530D01*
Y162534D01*
X1077982Y162542D01*
X1077974Y162554D01*
X1077966Y162569D01*
X1077939Y162608D01*
X1077904Y162659D01*
X1077865Y162718D01*
X1077822Y162776D01*
X1077783Y162831D01*
X1077744Y162881D01*
X1077740Y162885D01*
X1077728Y162901D01*
X1077709Y162924D01*
X1077689Y162952D01*
X1077631Y163006D01*
X1077604Y163033D01*
X1077573Y163053D01*
X1077569Y163057D01*
X1077561Y163061D01*
X1077545Y163069D01*
X1077526Y163080D01*
X1077479Y163104D01*
X1077420Y163123D01*
X1077417D01*
X1077409Y163127D01*
X1077393D01*
X1077374Y163131D01*
X1077346Y163135D01*
X1077315D01*
X1077276Y163139D01*
X1076839D01*
Y162000D01*
X1076500D01*
Y164562D01*
X1077689D01*
X1077721Y164558D01*
D02*
G37*
G36*
X1089431Y147655D02*
X1089434Y147648D01*
X1089442Y147632D01*
X1089454Y147617D01*
X1089466Y147593D01*
X1089477Y147566D01*
X1089512Y147503D01*
X1089555Y147433D01*
X1089606Y147355D01*
X1089664Y147277D01*
X1089727Y147203D01*
X1089731Y147199D01*
X1089735Y147195D01*
X1089758Y147172D01*
X1089793Y147137D01*
X1089836Y147094D01*
X1089891Y147047D01*
X1089949Y147000D01*
X1090012Y146957D01*
X1090074Y146922D01*
Y146716D01*
X1087500D01*
Y147031D01*
X1089505D01*
X1089501Y147035D01*
X1089485Y147051D01*
X1089466Y147078D01*
X1089438Y147113D01*
X1089403Y147156D01*
X1089368Y147207D01*
X1089325Y147266D01*
X1089286Y147332D01*
Y147336D01*
X1089282Y147340D01*
X1089267Y147363D01*
X1089247Y147398D01*
X1089224Y147441D01*
X1089196Y147492D01*
X1089173Y147546D01*
X1089146Y147605D01*
X1089122Y147659D01*
X1089431D01*
Y147655D01*
D02*
G37*
G36*
X1090062Y149215D02*
Y149212D01*
Y149200D01*
Y149184D01*
Y149161D01*
X1090058Y149130D01*
Y149099D01*
X1090055Y149021D01*
X1090047Y148939D01*
X1090031Y148853D01*
X1090016Y148771D01*
X1090004Y148732D01*
X1089992Y148697D01*
Y148693D01*
X1089988Y148689D01*
X1089980Y148666D01*
X1089961Y148634D01*
X1089934Y148595D01*
X1089902Y148549D01*
X1089859Y148502D01*
X1089809Y148455D01*
X1089746Y148412D01*
X1089739Y148408D01*
X1089715Y148397D01*
X1089680Y148377D01*
X1089633Y148357D01*
X1089575Y148338D01*
X1089509Y148319D01*
X1089438Y148307D01*
X1089360Y148303D01*
X1089333D01*
X1089314Y148307D01*
X1089290D01*
X1089263Y148311D01*
X1089200Y148326D01*
X1089126Y148346D01*
X1089052Y148377D01*
X1088974Y148424D01*
X1088935Y148451D01*
X1088900Y148482D01*
X1088892Y148490D01*
X1088885Y148502D01*
X1088869Y148513D01*
X1088857Y148533D01*
X1088838Y148556D01*
X1088822Y148584D01*
X1088803Y148615D01*
X1088783Y148650D01*
X1088764Y148693D01*
X1088744Y148736D01*
X1088725Y148786D01*
X1088705Y148837D01*
X1088690Y148896D01*
X1088678Y148958D01*
X1088666Y149024D01*
X1088662Y149017D01*
X1088654Y149001D01*
X1088643Y148978D01*
X1088627Y148950D01*
X1088584Y148884D01*
X1088561Y148849D01*
X1088537Y148822D01*
X1088530Y148814D01*
X1088514Y148794D01*
X1088483Y148767D01*
X1088444Y148732D01*
X1088393Y148689D01*
X1088335Y148642D01*
X1088268Y148591D01*
X1088194Y148541D01*
X1087500Y148096D01*
Y148521D01*
X1088030Y148861D01*
X1088034D01*
X1088042Y148868D01*
X1088054Y148876D01*
X1088069Y148884D01*
X1088108Y148911D01*
X1088159Y148946D01*
X1088218Y148985D01*
X1088276Y149028D01*
X1088331Y149067D01*
X1088381Y149106D01*
X1088385Y149110D01*
X1088401Y149122D01*
X1088424Y149141D01*
X1088452Y149161D01*
X1088506Y149219D01*
X1088533Y149247D01*
X1088553Y149278D01*
X1088557Y149282D01*
X1088561Y149290D01*
X1088569Y149305D01*
X1088580Y149325D01*
X1088604Y149372D01*
X1088623Y149430D01*
Y149434D01*
X1088627Y149442D01*
Y149457D01*
X1088631Y149477D01*
X1088635Y149504D01*
Y149535D01*
X1088639Y149574D01*
Y149621D01*
Y150011D01*
X1087500D01*
Y150350D01*
X1090062D01*
Y149215D01*
D02*
G37*
G36*
X1079858Y164570D02*
X1079889Y164566D01*
X1079924Y164562D01*
X1079963Y164558D01*
X1080006Y164547D01*
X1080100Y164523D01*
X1080197Y164488D01*
X1080248Y164465D01*
X1080295Y164437D01*
X1080338Y164402D01*
X1080381Y164367D01*
X1080384Y164363D01*
X1080388Y164359D01*
X1080400Y164348D01*
X1080416Y164332D01*
X1080431Y164309D01*
X1080451Y164285D01*
X1080490Y164227D01*
X1080529Y164153D01*
X1080564Y164067D01*
X1080591Y163970D01*
X1080595Y163915D01*
X1080599Y163860D01*
Y163853D01*
Y163833D01*
X1080595Y163802D01*
X1080591Y163763D01*
X1080583Y163716D01*
X1080572Y163665D01*
X1080556Y163611D01*
X1080533Y163556D01*
X1080529Y163548D01*
X1080521Y163529D01*
X1080505Y163502D01*
X1080482Y163462D01*
X1080455Y163416D01*
X1080420Y163361D01*
X1080373Y163306D01*
X1080322Y163244D01*
X1080314Y163236D01*
X1080295Y163213D01*
X1080260Y163178D01*
X1080236Y163154D01*
X1080209Y163127D01*
X1080178Y163096D01*
X1080139Y163061D01*
X1080100Y163026D01*
X1080057Y162983D01*
X1080010Y162940D01*
X1079955Y162893D01*
X1079901Y162846D01*
X1079838Y162792D01*
X1079834Y162788D01*
X1079827Y162780D01*
X1079811Y162768D01*
X1079792Y162753D01*
X1079745Y162714D01*
X1079686Y162663D01*
X1079628Y162608D01*
X1079565Y162554D01*
X1079515Y162507D01*
X1079495Y162487D01*
X1079476Y162468D01*
X1079472Y162464D01*
X1079464Y162452D01*
X1079448Y162437D01*
X1079429Y162413D01*
X1079386Y162363D01*
X1079343Y162300D01*
X1080603D01*
Y162000D01*
X1078906D01*
Y162004D01*
Y162020D01*
Y162043D01*
X1078910Y162070D01*
X1078914Y162101D01*
X1078918Y162136D01*
X1078930Y162176D01*
X1078941Y162215D01*
Y162218D01*
X1078945Y162222D01*
X1078953Y162246D01*
X1078969Y162277D01*
X1078992Y162324D01*
X1079019Y162374D01*
X1079058Y162433D01*
X1079097Y162491D01*
X1079148Y162554D01*
Y162558D01*
X1079156Y162562D01*
X1079175Y162585D01*
X1079207Y162620D01*
X1079253Y162667D01*
X1079312Y162722D01*
X1079382Y162788D01*
X1079468Y162862D01*
X1079562Y162944D01*
X1079565Y162948D01*
X1079581Y162959D01*
X1079601Y162975D01*
X1079628Y163002D01*
X1079663Y163030D01*
X1079702Y163065D01*
X1079788Y163139D01*
X1079881Y163228D01*
X1079975Y163318D01*
X1080022Y163361D01*
X1080061Y163404D01*
X1080096Y163447D01*
X1080127Y163486D01*
Y163490D01*
X1080135Y163494D01*
X1080143Y163505D01*
X1080150Y163521D01*
X1080174Y163560D01*
X1080201Y163611D01*
X1080228Y163669D01*
X1080252Y163732D01*
X1080267Y163802D01*
X1080275Y163868D01*
Y163872D01*
Y163876D01*
X1080271Y163899D01*
X1080267Y163934D01*
X1080260Y163977D01*
X1080240Y164028D01*
X1080217Y164079D01*
X1080186Y164133D01*
X1080139Y164184D01*
X1080131Y164188D01*
X1080115Y164204D01*
X1080084Y164223D01*
X1080045Y164250D01*
X1079994Y164274D01*
X1079936Y164293D01*
X1079866Y164309D01*
X1079788Y164313D01*
X1079764D01*
X1079749Y164309D01*
X1079710Y164305D01*
X1079659Y164297D01*
X1079601Y164278D01*
X1079538Y164254D01*
X1079480Y164219D01*
X1079425Y164172D01*
X1079421Y164164D01*
X1079405Y164149D01*
X1079382Y164118D01*
X1079359Y164075D01*
X1079331Y164020D01*
X1079312Y163958D01*
X1079296Y163884D01*
X1079288Y163798D01*
X1078965Y163833D01*
Y163837D01*
Y163849D01*
X1078969Y163868D01*
X1078973Y163891D01*
X1078980Y163923D01*
X1078984Y163958D01*
X1079008Y164036D01*
X1079039Y164126D01*
X1079082Y164215D01*
X1079140Y164305D01*
X1079171Y164344D01*
X1079210Y164383D01*
X1079214Y164387D01*
X1079222Y164391D01*
X1079234Y164402D01*
X1079249Y164414D01*
X1079273Y164426D01*
X1079300Y164445D01*
X1079331Y164461D01*
X1079366Y164480D01*
X1079405Y164496D01*
X1079448Y164515D01*
X1079499Y164531D01*
X1079550Y164543D01*
X1079667Y164566D01*
X1079729Y164570D01*
X1079795Y164574D01*
X1079831D01*
X1079858Y164570D01*
D02*
G37*
G36*
X1061189Y172558D02*
X1061220D01*
X1061298Y172555D01*
X1061380Y172547D01*
X1061466Y172531D01*
X1061548Y172515D01*
X1061587Y172504D01*
X1061622Y172492D01*
X1061626D01*
X1061630Y172488D01*
X1061653Y172480D01*
X1061685Y172461D01*
X1061724Y172434D01*
X1061770Y172402D01*
X1061817Y172360D01*
X1061864Y172309D01*
X1061907Y172246D01*
X1061911Y172239D01*
X1061922Y172215D01*
X1061942Y172180D01*
X1061961Y172133D01*
X1061981Y172075D01*
X1062000Y172009D01*
X1062012Y171938D01*
X1062016Y171860D01*
Y171856D01*
Y171849D01*
Y171833D01*
X1062012Y171813D01*
Y171790D01*
X1062008Y171763D01*
X1061993Y171700D01*
X1061973Y171626D01*
X1061942Y171552D01*
X1061895Y171474D01*
X1061868Y171435D01*
X1061837Y171400D01*
X1061829Y171392D01*
X1061817Y171385D01*
X1061806Y171369D01*
X1061786Y171357D01*
X1061763Y171338D01*
X1061735Y171322D01*
X1061704Y171303D01*
X1061669Y171283D01*
X1061626Y171264D01*
X1061583Y171244D01*
X1061532Y171225D01*
X1061482Y171205D01*
X1061423Y171189D01*
X1061361Y171178D01*
X1061295Y171166D01*
X1061302Y171162D01*
X1061318Y171154D01*
X1061341Y171143D01*
X1061369Y171127D01*
X1061435Y171084D01*
X1061470Y171061D01*
X1061497Y171037D01*
X1061505Y171030D01*
X1061525Y171014D01*
X1061552Y170983D01*
X1061587Y170944D01*
X1061630Y170893D01*
X1061677Y170835D01*
X1061728Y170768D01*
X1061778Y170694D01*
X1062223Y170000D01*
X1061798D01*
X1061458Y170530D01*
Y170534D01*
X1061451Y170542D01*
X1061443Y170554D01*
X1061435Y170569D01*
X1061408Y170608D01*
X1061373Y170659D01*
X1061334Y170718D01*
X1061291Y170776D01*
X1061252Y170831D01*
X1061213Y170881D01*
X1061209Y170885D01*
X1061197Y170901D01*
X1061178Y170924D01*
X1061158Y170952D01*
X1061100Y171006D01*
X1061072Y171034D01*
X1061041Y171053D01*
X1061037Y171057D01*
X1061029Y171061D01*
X1061014Y171069D01*
X1060994Y171080D01*
X1060948Y171104D01*
X1060889Y171123D01*
X1060885D01*
X1060877Y171127D01*
X1060862D01*
X1060842Y171131D01*
X1060815Y171135D01*
X1060784D01*
X1060745Y171139D01*
X1060308D01*
Y170000D01*
X1059969D01*
Y172562D01*
X1061158D01*
X1061189Y172558D01*
D02*
G37*
G36*
X1072484Y124000D02*
X1072144D01*
Y126562D01*
X1072484D01*
Y124000D01*
D02*
G37*
G36*
X1039708Y147258D02*
X1039728Y147250D01*
X1039759Y147242D01*
X1039790Y147227D01*
X1039833Y147211D01*
X1039876Y147196D01*
X1039923Y147172D01*
X1040028Y147122D01*
X1040133Y147051D01*
X1040235Y146973D01*
X1040282Y146927D01*
X1040324Y146876D01*
X1040328Y146872D01*
X1040332Y146864D01*
X1040344Y146849D01*
X1040360Y146825D01*
X1040375Y146798D01*
X1040395Y146767D01*
X1040414Y146732D01*
X1040434Y146689D01*
X1040453Y146642D01*
X1040473Y146591D01*
X1040492Y146533D01*
X1040508Y146474D01*
X1040535Y146345D01*
X1040539Y146275D01*
X1040543Y146201D01*
Y146197D01*
Y146182D01*
Y146162D01*
X1040539Y146131D01*
Y146096D01*
X1040535Y146057D01*
X1040527Y146010D01*
X1040523Y145963D01*
X1040500Y145854D01*
X1040473Y145741D01*
X1040430Y145632D01*
X1040406Y145577D01*
X1040375Y145527D01*
X1040371Y145523D01*
X1040367Y145515D01*
X1040356Y145503D01*
X1040344Y145484D01*
X1040305Y145437D01*
X1040250Y145382D01*
X1040184Y145316D01*
X1040098Y145254D01*
X1040001Y145187D01*
X1039888Y145133D01*
X1039884D01*
X1039872Y145129D01*
X1039857Y145121D01*
X1039833Y145113D01*
X1039802Y145101D01*
X1039767Y145090D01*
X1039728Y145078D01*
X1039681Y145066D01*
X1039634Y145055D01*
X1039580Y145043D01*
X1039463Y145019D01*
X1039338Y145004D01*
X1039201Y145000D01*
X1039162D01*
X1039135Y145004D01*
X1039100D01*
X1039057Y145008D01*
X1039014Y145012D01*
X1038963Y145019D01*
X1038854Y145039D01*
X1038737Y145062D01*
X1038616Y145101D01*
X1038503Y145152D01*
X1038499D01*
X1038492Y145160D01*
X1038476Y145168D01*
X1038453Y145179D01*
X1038429Y145195D01*
X1038402Y145214D01*
X1038336Y145265D01*
X1038261Y145324D01*
X1038187Y145398D01*
X1038113Y145487D01*
X1038051Y145585D01*
Y145589D01*
X1038043Y145597D01*
X1038035Y145612D01*
X1038027Y145636D01*
X1038016Y145659D01*
X1038000Y145690D01*
X1037988Y145729D01*
X1037973Y145768D01*
X1037957Y145811D01*
X1037945Y145858D01*
X1037918Y145963D01*
X1037903Y146080D01*
X1037895Y146205D01*
Y146209D01*
Y146221D01*
Y146244D01*
X1037899Y146271D01*
X1037903Y146303D01*
X1037906Y146342D01*
X1037910Y146385D01*
X1037918Y146431D01*
X1037942Y146533D01*
X1037977Y146642D01*
X1038000Y146696D01*
X1038027Y146751D01*
X1038059Y146802D01*
X1038094Y146853D01*
X1038098Y146856D01*
X1038101Y146864D01*
X1038113Y146876D01*
X1038129Y146895D01*
X1038148Y146915D01*
X1038176Y146942D01*
X1038203Y146969D01*
X1038234Y146997D01*
X1038273Y147028D01*
X1038312Y147055D01*
X1038359Y147087D01*
X1038410Y147118D01*
X1038460Y147145D01*
X1038519Y147172D01*
X1038644Y147219D01*
X1038722Y146884D01*
X1038718D01*
X1038710Y146880D01*
X1038694Y146876D01*
X1038675Y146868D01*
X1038651Y146856D01*
X1038624Y146845D01*
X1038566Y146817D01*
X1038499Y146782D01*
X1038429Y146736D01*
X1038367Y146685D01*
X1038312Y146622D01*
X1038308Y146615D01*
X1038293Y146591D01*
X1038273Y146556D01*
X1038246Y146505D01*
X1038222Y146447D01*
X1038203Y146373D01*
X1038187Y146291D01*
X1038183Y146197D01*
Y146193D01*
Y146186D01*
Y146170D01*
X1038187Y146151D01*
Y146123D01*
X1038191Y146096D01*
X1038203Y146026D01*
X1038218Y145948D01*
X1038246Y145866D01*
X1038281Y145784D01*
X1038328Y145706D01*
Y145702D01*
X1038336Y145698D01*
X1038355Y145675D01*
X1038386Y145640D01*
X1038429Y145597D01*
X1038484Y145554D01*
X1038546Y145507D01*
X1038624Y145464D01*
X1038710Y145429D01*
X1038714D01*
X1038722Y145425D01*
X1038733Y145421D01*
X1038753Y145417D01*
X1038772Y145410D01*
X1038800Y145406D01*
X1038862Y145390D01*
X1038936Y145374D01*
X1039018Y145363D01*
X1039108Y145355D01*
X1039201Y145351D01*
X1039256D01*
X1039283Y145355D01*
X1039318D01*
X1039353Y145359D01*
X1039392Y145363D01*
X1039482Y145374D01*
X1039580Y145390D01*
X1039677Y145413D01*
X1039771Y145445D01*
X1039775D01*
X1039782Y145449D01*
X1039794Y145456D01*
X1039810Y145464D01*
X1039857Y145484D01*
X1039907Y145515D01*
X1039970Y145558D01*
X1040028Y145608D01*
X1040087Y145667D01*
X1040137Y145737D01*
Y145741D01*
X1040141Y145745D01*
X1040149Y145757D01*
X1040157Y145772D01*
X1040172Y145815D01*
X1040196Y145870D01*
X1040215Y145932D01*
X1040235Y146006D01*
X1040250Y146088D01*
X1040254Y146174D01*
Y146178D01*
Y146186D01*
Y146201D01*
X1040250Y146221D01*
Y146244D01*
X1040246Y146275D01*
X1040235Y146342D01*
X1040215Y146416D01*
X1040184Y146498D01*
X1040145Y146576D01*
X1040090Y146654D01*
X1040087Y146658D01*
X1040083Y146661D01*
X1040059Y146685D01*
X1040020Y146720D01*
X1039970Y146763D01*
X1039899Y146806D01*
X1039818Y146853D01*
X1039716Y146891D01*
X1039603Y146923D01*
X1039689Y147262D01*
X1039693D01*
X1039708Y147258D01*
D02*
G37*
G36*
X1039732Y149224D02*
X1039755D01*
X1039818Y149216D01*
X1039884Y149200D01*
X1039962Y149185D01*
X1040040Y149157D01*
X1040118Y149122D01*
X1040122D01*
X1040126Y149118D01*
X1040137Y149111D01*
X1040153Y149103D01*
X1040188Y149079D01*
X1040235Y149048D01*
X1040285Y149005D01*
X1040336Y148955D01*
X1040387Y148900D01*
X1040434Y148834D01*
X1040438Y148826D01*
X1040449Y148802D01*
X1040469Y148764D01*
X1040488Y148717D01*
X1040508Y148654D01*
X1040527Y148584D01*
X1040539Y148506D01*
X1040543Y148424D01*
Y148420D01*
Y148409D01*
X1040539Y148385D01*
Y148358D01*
X1040535Y148327D01*
X1040527Y148288D01*
X1040520Y148245D01*
X1040508Y148198D01*
X1040492Y148147D01*
X1040473Y148093D01*
X1040449Y148042D01*
X1040422Y147987D01*
X1040387Y147933D01*
X1040348Y147878D01*
X1040305Y147827D01*
X1040254Y147781D01*
X1040250Y147777D01*
X1040239Y147769D01*
X1040223Y147757D01*
X1040200Y147742D01*
X1040168Y147722D01*
X1040129Y147703D01*
X1040083Y147679D01*
X1040028Y147660D01*
X1039966Y147636D01*
X1039896Y147613D01*
X1039818Y147593D01*
X1039732Y147574D01*
X1039638Y147558D01*
X1039533Y147547D01*
X1039424Y147539D01*
X1039303Y147535D01*
X1039233D01*
X1039182Y147539D01*
X1039119Y147543D01*
X1039049Y147551D01*
X1038971Y147558D01*
X1038889Y147570D01*
X1038800Y147582D01*
X1038710Y147601D01*
X1038620Y147625D01*
X1038534Y147652D01*
X1038445Y147683D01*
X1038367Y147718D01*
X1038289Y147761D01*
X1038222Y147808D01*
X1038218Y147812D01*
X1038211Y147820D01*
X1038195Y147831D01*
X1038176Y147851D01*
X1038152Y147878D01*
X1038129Y147906D01*
X1038101Y147941D01*
X1038074Y147980D01*
X1038047Y148022D01*
X1038020Y148073D01*
X1037996Y148124D01*
X1037973Y148182D01*
X1037953Y148245D01*
X1037938Y148311D01*
X1037930Y148381D01*
X1037926Y148455D01*
Y148459D01*
Y148467D01*
Y148483D01*
X1037930Y148506D01*
Y148530D01*
X1037934Y148561D01*
X1037945Y148631D01*
X1037969Y148709D01*
X1038000Y148791D01*
X1038039Y148873D01*
X1038066Y148912D01*
X1038098Y148951D01*
Y148955D01*
X1038105Y148959D01*
X1038129Y148982D01*
X1038168Y149013D01*
X1038218Y149052D01*
X1038285Y149095D01*
X1038363Y149130D01*
X1038456Y149165D01*
X1038562Y149185D01*
X1038585Y148873D01*
X1038577D01*
X1038554Y148865D01*
X1038523Y148853D01*
X1038484Y148842D01*
X1038394Y148802D01*
X1038355Y148779D01*
X1038320Y148752D01*
X1038312Y148748D01*
X1038297Y148728D01*
X1038277Y148701D01*
X1038250Y148666D01*
X1038226Y148619D01*
X1038203Y148565D01*
X1038187Y148502D01*
X1038183Y148436D01*
Y148428D01*
Y148409D01*
X1038187Y148381D01*
X1038195Y148346D01*
X1038203Y148303D01*
X1038218Y148257D01*
X1038242Y148214D01*
X1038269Y148167D01*
X1038273Y148159D01*
X1038289Y148143D01*
X1038316Y148116D01*
X1038351Y148085D01*
X1038394Y148046D01*
X1038449Y148007D01*
X1038515Y147968D01*
X1038589Y147933D01*
X1038593D01*
X1038597Y147929D01*
X1038612Y147925D01*
X1038628Y147921D01*
X1038647Y147913D01*
X1038675Y147906D01*
X1038706Y147898D01*
X1038741Y147890D01*
X1038780Y147882D01*
X1038823Y147874D01*
X1038874Y147866D01*
X1038924Y147859D01*
X1038983Y147855D01*
X1039045Y147851D01*
X1039112Y147847D01*
X1039178D01*
X1039174Y147851D01*
X1039155Y147866D01*
X1039123Y147890D01*
X1039084Y147925D01*
X1039041Y147964D01*
X1038999Y148011D01*
X1038960Y148065D01*
X1038924Y148124D01*
X1038920Y148132D01*
X1038913Y148151D01*
X1038897Y148186D01*
X1038881Y148229D01*
X1038866Y148280D01*
X1038850Y148338D01*
X1038842Y148401D01*
X1038839Y148467D01*
Y148471D01*
Y148483D01*
Y148498D01*
X1038842Y148522D01*
X1038846Y148549D01*
X1038850Y148580D01*
X1038866Y148654D01*
X1038897Y148736D01*
X1038913Y148783D01*
X1038936Y148826D01*
X1038963Y148873D01*
X1038995Y148919D01*
X1039030Y148962D01*
X1039073Y149005D01*
X1039077Y149009D01*
X1039084Y149013D01*
X1039096Y149025D01*
X1039116Y149040D01*
X1039139Y149056D01*
X1039166Y149075D01*
X1039197Y149095D01*
X1039233Y149118D01*
X1039275Y149138D01*
X1039318Y149157D01*
X1039369Y149177D01*
X1039420Y149193D01*
X1039478Y149208D01*
X1039537Y149220D01*
X1039603Y149224D01*
X1039669Y149228D01*
X1039708D01*
X1039732Y149224D01*
D02*
G37*
G36*
X1097512Y134000D02*
X1097130D01*
X1096834Y134776D01*
X1095757D01*
X1095480Y134000D01*
X1095122D01*
X1096101Y136562D01*
X1096471D01*
X1097512Y134000D01*
D02*
G37*
G36*
X1085865Y163762D02*
X1084352D01*
Y162974D01*
X1085767D01*
Y162674D01*
X1084352D01*
Y161800D01*
X1085923D01*
Y161500D01*
X1084012D01*
Y164062D01*
X1085865D01*
Y163762D01*
D02*
G37*
G36*
X1087440Y164058D02*
X1087511Y164055D01*
X1087589Y164047D01*
X1087663Y164035D01*
X1087725Y164023D01*
X1087729D01*
X1087737Y164019D01*
X1087745D01*
X1087760Y164012D01*
X1087803Y164000D01*
X1087854Y163980D01*
X1087912Y163957D01*
X1087975Y163926D01*
X1088037Y163887D01*
X1088100Y163840D01*
X1088103D01*
X1088107Y163832D01*
X1088135Y163809D01*
X1088170Y163770D01*
X1088213Y163719D01*
X1088263Y163657D01*
X1088314Y163583D01*
X1088361Y163497D01*
X1088404Y163399D01*
Y163395D01*
X1088408Y163388D01*
X1088412Y163372D01*
X1088419Y163353D01*
X1088427Y163329D01*
X1088435Y163298D01*
X1088447Y163263D01*
X1088455Y163224D01*
X1088462Y163181D01*
X1088474Y163134D01*
X1088490Y163033D01*
X1088501Y162920D01*
X1088505Y162795D01*
Y162791D01*
Y162783D01*
Y162768D01*
Y162744D01*
X1088501Y162721D01*
Y162689D01*
X1088497Y162619D01*
X1088490Y162541D01*
X1088474Y162452D01*
X1088458Y162362D01*
X1088435Y162276D01*
Y162272D01*
X1088431Y162264D01*
X1088427Y162253D01*
X1088423Y162237D01*
X1088408Y162198D01*
X1088388Y162144D01*
X1088365Y162085D01*
X1088334Y162023D01*
X1088299Y161960D01*
X1088260Y161902D01*
X1088256Y161894D01*
X1088240Y161878D01*
X1088221Y161851D01*
X1088189Y161816D01*
X1088158Y161781D01*
X1088115Y161742D01*
X1088072Y161703D01*
X1088025Y161668D01*
X1088022Y161664D01*
X1088002Y161656D01*
X1087975Y161640D01*
X1087940Y161621D01*
X1087897Y161601D01*
X1087846Y161582D01*
X1087788Y161562D01*
X1087721Y161543D01*
X1087714D01*
X1087690Y161535D01*
X1087655Y161531D01*
X1087604Y161523D01*
X1087546Y161516D01*
X1087476Y161508D01*
X1087398Y161504D01*
X1087312Y161500D01*
X1086391D01*
Y164062D01*
X1087374D01*
X1087440Y164058D01*
D02*
G37*
G36*
X1088736Y158000D02*
X1088420D01*
Y160005D01*
X1088416Y160001D01*
X1088401Y159985D01*
X1088373Y159966D01*
X1088338Y159938D01*
X1088295Y159903D01*
X1088245Y159868D01*
X1088186Y159825D01*
X1088120Y159786D01*
X1088116D01*
X1088112Y159782D01*
X1088089Y159767D01*
X1088054Y159747D01*
X1088011Y159724D01*
X1087960Y159696D01*
X1087906Y159673D01*
X1087847Y159646D01*
X1087792Y159622D01*
Y159931D01*
X1087796D01*
X1087804Y159934D01*
X1087820Y159942D01*
X1087835Y159954D01*
X1087859Y159966D01*
X1087886Y159977D01*
X1087948Y160012D01*
X1088019Y160055D01*
X1088097Y160106D01*
X1088175Y160164D01*
X1088249Y160227D01*
X1088253Y160231D01*
X1088256Y160235D01*
X1088280Y160258D01*
X1088315Y160293D01*
X1088358Y160336D01*
X1088405Y160391D01*
X1088451Y160449D01*
X1088494Y160512D01*
X1088529Y160574D01*
X1088736D01*
Y158000D01*
D02*
G37*
G36*
X1086271Y160601D02*
X1086303Y160597D01*
X1086342Y160593D01*
X1086384Y160590D01*
X1086431Y160582D01*
X1086533Y160558D01*
X1086642Y160523D01*
X1086697Y160500D01*
X1086751Y160473D01*
X1086802Y160441D01*
X1086852Y160406D01*
X1086856Y160402D01*
X1086864Y160398D01*
X1086876Y160387D01*
X1086895Y160371D01*
X1086915Y160352D01*
X1086942Y160324D01*
X1086969Y160297D01*
X1086997Y160266D01*
X1087028Y160227D01*
X1087055Y160188D01*
X1087086Y160141D01*
X1087118Y160090D01*
X1087145Y160040D01*
X1087172Y159981D01*
X1087219Y159856D01*
X1086884Y159778D01*
Y159782D01*
X1086880Y159790D01*
X1086876Y159806D01*
X1086868Y159825D01*
X1086856Y159849D01*
X1086845Y159876D01*
X1086817Y159934D01*
X1086782Y160001D01*
X1086736Y160071D01*
X1086685Y160133D01*
X1086622Y160188D01*
X1086615Y160192D01*
X1086591Y160207D01*
X1086556Y160227D01*
X1086505Y160254D01*
X1086447Y160278D01*
X1086373Y160297D01*
X1086291Y160313D01*
X1086197Y160317D01*
X1086170D01*
X1086150Y160313D01*
X1086123D01*
X1086096Y160309D01*
X1086026Y160297D01*
X1085948Y160282D01*
X1085866Y160254D01*
X1085784Y160219D01*
X1085706Y160172D01*
X1085702D01*
X1085698Y160164D01*
X1085675Y160145D01*
X1085640Y160114D01*
X1085597Y160071D01*
X1085554Y160016D01*
X1085507Y159954D01*
X1085464Y159876D01*
X1085429Y159790D01*
Y159786D01*
X1085425Y159778D01*
X1085421Y159767D01*
X1085417Y159747D01*
X1085410Y159728D01*
X1085406Y159700D01*
X1085390Y159638D01*
X1085374Y159564D01*
X1085363Y159482D01*
X1085355Y159392D01*
X1085351Y159299D01*
Y159295D01*
Y159283D01*
Y159267D01*
Y159244D01*
X1085355Y159217D01*
Y159182D01*
X1085359Y159147D01*
X1085363Y159108D01*
X1085374Y159018D01*
X1085390Y158920D01*
X1085413Y158823D01*
X1085445Y158729D01*
Y158725D01*
X1085448Y158718D01*
X1085456Y158706D01*
X1085464Y158690D01*
X1085484Y158643D01*
X1085515Y158593D01*
X1085558Y158530D01*
X1085608Y158472D01*
X1085667Y158413D01*
X1085737Y158363D01*
X1085741D01*
X1085745Y158359D01*
X1085757Y158351D01*
X1085772Y158343D01*
X1085815Y158328D01*
X1085870Y158304D01*
X1085932Y158285D01*
X1086006Y158265D01*
X1086088Y158250D01*
X1086174Y158246D01*
X1086201D01*
X1086221Y158250D01*
X1086244D01*
X1086275Y158254D01*
X1086342Y158265D01*
X1086416Y158285D01*
X1086498Y158316D01*
X1086576Y158355D01*
X1086654Y158410D01*
X1086658Y158413D01*
X1086661Y158417D01*
X1086685Y158441D01*
X1086720Y158480D01*
X1086763Y158530D01*
X1086806Y158601D01*
X1086852Y158683D01*
X1086891Y158784D01*
X1086923Y158897D01*
X1087262Y158811D01*
Y158807D01*
X1087258Y158792D01*
X1087250Y158772D01*
X1087243Y158741D01*
X1087227Y158710D01*
X1087211Y158667D01*
X1087196Y158624D01*
X1087172Y158577D01*
X1087122Y158472D01*
X1087051Y158367D01*
X1086973Y158265D01*
X1086927Y158218D01*
X1086876Y158176D01*
X1086872Y158172D01*
X1086864Y158168D01*
X1086849Y158156D01*
X1086825Y158140D01*
X1086798Y158125D01*
X1086767Y158105D01*
X1086732Y158086D01*
X1086689Y158066D01*
X1086642Y158047D01*
X1086591Y158027D01*
X1086533Y158008D01*
X1086474Y157992D01*
X1086345Y157965D01*
X1086275Y157961D01*
X1086201Y157957D01*
X1086162D01*
X1086131Y157961D01*
X1086096D01*
X1086057Y157965D01*
X1086010Y157973D01*
X1085963Y157977D01*
X1085854Y158000D01*
X1085741Y158027D01*
X1085632Y158070D01*
X1085577Y158094D01*
X1085526Y158125D01*
X1085523Y158129D01*
X1085515Y158133D01*
X1085503Y158144D01*
X1085484Y158156D01*
X1085437Y158195D01*
X1085382Y158250D01*
X1085316Y158316D01*
X1085254Y158402D01*
X1085187Y158499D01*
X1085133Y158612D01*
Y158616D01*
X1085129Y158628D01*
X1085121Y158643D01*
X1085113Y158667D01*
X1085101Y158698D01*
X1085090Y158733D01*
X1085078Y158772D01*
X1085066Y158819D01*
X1085055Y158866D01*
X1085043Y158920D01*
X1085019Y159037D01*
X1085004Y159162D01*
X1085000Y159299D01*
Y159303D01*
Y159318D01*
Y159338D01*
X1085004Y159365D01*
Y159400D01*
X1085008Y159443D01*
X1085012Y159486D01*
X1085019Y159537D01*
X1085039Y159646D01*
X1085062Y159763D01*
X1085101Y159884D01*
X1085152Y159997D01*
Y160001D01*
X1085160Y160009D01*
X1085168Y160024D01*
X1085179Y160047D01*
X1085195Y160071D01*
X1085215Y160098D01*
X1085265Y160164D01*
X1085324Y160239D01*
X1085398Y160313D01*
X1085487Y160387D01*
X1085585Y160449D01*
X1085589D01*
X1085597Y160457D01*
X1085612Y160465D01*
X1085636Y160473D01*
X1085659Y160484D01*
X1085690Y160500D01*
X1085729Y160512D01*
X1085768Y160527D01*
X1085811Y160543D01*
X1085858Y160555D01*
X1085963Y160582D01*
X1086080Y160597D01*
X1086205Y160605D01*
X1086244D01*
X1086271Y160601D01*
D02*
G37*
G36*
X1081771Y130601D02*
X1081803Y130597D01*
X1081842Y130594D01*
X1081884Y130590D01*
X1081931Y130582D01*
X1082033Y130558D01*
X1082142Y130523D01*
X1082197Y130500D01*
X1082251Y130473D01*
X1082302Y130441D01*
X1082353Y130406D01*
X1082356Y130402D01*
X1082364Y130398D01*
X1082376Y130387D01*
X1082395Y130371D01*
X1082415Y130352D01*
X1082442Y130324D01*
X1082469Y130297D01*
X1082497Y130266D01*
X1082528Y130227D01*
X1082555Y130188D01*
X1082586Y130141D01*
X1082618Y130090D01*
X1082645Y130040D01*
X1082672Y129981D01*
X1082719Y129856D01*
X1082384Y129778D01*
Y129782D01*
X1082380Y129790D01*
X1082376Y129806D01*
X1082368Y129825D01*
X1082356Y129849D01*
X1082345Y129876D01*
X1082317Y129934D01*
X1082282Y130001D01*
X1082236Y130071D01*
X1082185Y130133D01*
X1082122Y130188D01*
X1082115Y130192D01*
X1082091Y130207D01*
X1082056Y130227D01*
X1082005Y130254D01*
X1081947Y130278D01*
X1081873Y130297D01*
X1081791Y130313D01*
X1081697Y130317D01*
X1081670D01*
X1081651Y130313D01*
X1081623D01*
X1081596Y130309D01*
X1081526Y130297D01*
X1081448Y130281D01*
X1081366Y130254D01*
X1081284Y130219D01*
X1081206Y130172D01*
X1081202D01*
X1081198Y130165D01*
X1081175Y130145D01*
X1081140Y130114D01*
X1081097Y130071D01*
X1081054Y130016D01*
X1081007Y129954D01*
X1080964Y129876D01*
X1080929Y129790D01*
Y129786D01*
X1080925Y129778D01*
X1080921Y129767D01*
X1080917Y129747D01*
X1080910Y129728D01*
X1080906Y129700D01*
X1080890Y129638D01*
X1080874Y129564D01*
X1080863Y129482D01*
X1080855Y129392D01*
X1080851Y129299D01*
Y129295D01*
Y129283D01*
Y129268D01*
Y129244D01*
X1080855Y129217D01*
Y129182D01*
X1080859Y129147D01*
X1080863Y129108D01*
X1080874Y129018D01*
X1080890Y128920D01*
X1080913Y128823D01*
X1080945Y128729D01*
Y128725D01*
X1080949Y128718D01*
X1080956Y128706D01*
X1080964Y128690D01*
X1080984Y128644D01*
X1081015Y128593D01*
X1081058Y128530D01*
X1081108Y128472D01*
X1081167Y128413D01*
X1081237Y128363D01*
X1081241D01*
X1081245Y128359D01*
X1081257Y128351D01*
X1081272Y128343D01*
X1081315Y128328D01*
X1081370Y128304D01*
X1081432Y128285D01*
X1081506Y128265D01*
X1081588Y128250D01*
X1081674Y128246D01*
X1081701D01*
X1081721Y128250D01*
X1081744D01*
X1081775Y128253D01*
X1081842Y128265D01*
X1081916Y128285D01*
X1081998Y128316D01*
X1082076Y128355D01*
X1082154Y128410D01*
X1082158Y128413D01*
X1082161Y128417D01*
X1082185Y128441D01*
X1082220Y128480D01*
X1082263Y128530D01*
X1082306Y128601D01*
X1082353Y128682D01*
X1082391Y128784D01*
X1082423Y128897D01*
X1082762Y128811D01*
Y128807D01*
X1082758Y128792D01*
X1082750Y128772D01*
X1082743Y128741D01*
X1082727Y128710D01*
X1082711Y128667D01*
X1082696Y128624D01*
X1082672Y128577D01*
X1082622Y128472D01*
X1082551Y128367D01*
X1082473Y128265D01*
X1082427Y128218D01*
X1082376Y128175D01*
X1082372Y128172D01*
X1082364Y128168D01*
X1082349Y128156D01*
X1082325Y128140D01*
X1082298Y128125D01*
X1082267Y128105D01*
X1082232Y128086D01*
X1082189Y128066D01*
X1082142Y128047D01*
X1082091Y128027D01*
X1082033Y128008D01*
X1081974Y127992D01*
X1081845Y127965D01*
X1081775Y127961D01*
X1081701Y127957D01*
X1081662D01*
X1081631Y127961D01*
X1081596D01*
X1081557Y127965D01*
X1081510Y127973D01*
X1081463Y127977D01*
X1081354Y128000D01*
X1081241Y128027D01*
X1081132Y128070D01*
X1081077Y128094D01*
X1081026Y128125D01*
X1081023Y128129D01*
X1081015Y128133D01*
X1081003Y128144D01*
X1080984Y128156D01*
X1080937Y128195D01*
X1080882Y128250D01*
X1080816Y128316D01*
X1080754Y128402D01*
X1080687Y128499D01*
X1080633Y128612D01*
Y128616D01*
X1080629Y128628D01*
X1080621Y128644D01*
X1080613Y128667D01*
X1080601Y128698D01*
X1080590Y128733D01*
X1080578Y128772D01*
X1080566Y128819D01*
X1080555Y128866D01*
X1080543Y128920D01*
X1080519Y129037D01*
X1080504Y129162D01*
X1080500Y129299D01*
Y129303D01*
Y129318D01*
Y129338D01*
X1080504Y129365D01*
Y129400D01*
X1080508Y129443D01*
X1080512Y129486D01*
X1080519Y129537D01*
X1080539Y129646D01*
X1080562Y129763D01*
X1080601Y129884D01*
X1080652Y129997D01*
Y130001D01*
X1080660Y130008D01*
X1080668Y130024D01*
X1080679Y130048D01*
X1080695Y130071D01*
X1080715Y130098D01*
X1080765Y130165D01*
X1080824Y130239D01*
X1080898Y130313D01*
X1080987Y130387D01*
X1081085Y130449D01*
X1081089D01*
X1081097Y130457D01*
X1081112Y130465D01*
X1081136Y130473D01*
X1081159Y130484D01*
X1081190Y130500D01*
X1081229Y130512D01*
X1081268Y130527D01*
X1081311Y130543D01*
X1081358Y130554D01*
X1081463Y130582D01*
X1081580Y130597D01*
X1081705Y130605D01*
X1081744D01*
X1081771Y130601D01*
D02*
G37*
G36*
X1094034Y136558D02*
X1094061D01*
X1094127Y136555D01*
X1094201Y136543D01*
X1094279Y136531D01*
X1094357Y136512D01*
X1094427Y136484D01*
X1094431D01*
X1094435Y136480D01*
X1094459Y136469D01*
X1094490Y136449D01*
X1094529Y136426D01*
X1094576Y136391D01*
X1094622Y136348D01*
X1094665Y136301D01*
X1094708Y136242D01*
X1094712Y136235D01*
X1094724Y136215D01*
X1094739Y136180D01*
X1094759Y136137D01*
X1094778Y136086D01*
X1094794Y136032D01*
X1094806Y135969D01*
X1094810Y135903D01*
Y135895D01*
Y135876D01*
X1094806Y135845D01*
X1094798Y135802D01*
X1094786Y135755D01*
X1094771Y135704D01*
X1094751Y135646D01*
X1094720Y135591D01*
X1094716Y135583D01*
X1094704Y135568D01*
X1094681Y135540D01*
X1094654Y135509D01*
X1094615Y135470D01*
X1094568Y135435D01*
X1094513Y135396D01*
X1094447Y135361D01*
X1094451D01*
X1094459Y135357D01*
X1094470Y135353D01*
X1094486Y135349D01*
X1094529Y135330D01*
X1094580Y135307D01*
X1094638Y135271D01*
X1094697Y135232D01*
X1094755Y135186D01*
X1094806Y135127D01*
X1094810Y135119D01*
X1094825Y135100D01*
X1094845Y135065D01*
X1094872Y135018D01*
X1094895Y134959D01*
X1094915Y134897D01*
X1094930Y134823D01*
X1094934Y134741D01*
Y134733D01*
Y134710D01*
X1094930Y134675D01*
X1094927Y134632D01*
X1094915Y134581D01*
X1094903Y134523D01*
X1094884Y134464D01*
X1094856Y134406D01*
X1094853Y134398D01*
X1094845Y134378D01*
X1094825Y134351D01*
X1094806Y134316D01*
X1094778Y134277D01*
X1094747Y134238D01*
X1094708Y134199D01*
X1094669Y134164D01*
X1094665Y134160D01*
X1094650Y134152D01*
X1094626Y134136D01*
X1094591Y134117D01*
X1094552Y134098D01*
X1094501Y134078D01*
X1094447Y134058D01*
X1094388Y134039D01*
X1094381D01*
X1094357Y134031D01*
X1094322Y134027D01*
X1094275Y134019D01*
X1094213Y134012D01*
X1094143Y134008D01*
X1094065Y134000D01*
X1093000D01*
Y136562D01*
X1094006D01*
X1094034Y136558D01*
D02*
G37*
G36*
X1083959Y130570D02*
X1083990Y130566D01*
X1084026Y130562D01*
X1084065Y130558D01*
X1084107Y130547D01*
X1084201Y130523D01*
X1084299Y130488D01*
X1084349Y130465D01*
X1084396Y130438D01*
X1084439Y130402D01*
X1084482Y130367D01*
X1084486Y130363D01*
X1084490Y130359D01*
X1084501Y130348D01*
X1084517Y130332D01*
X1084533Y130309D01*
X1084552Y130285D01*
X1084591Y130227D01*
X1084630Y130153D01*
X1084665Y130067D01*
X1084692Y129970D01*
X1084696Y129915D01*
X1084700Y129860D01*
Y129852D01*
Y129833D01*
X1084696Y129802D01*
X1084692Y129763D01*
X1084685Y129716D01*
X1084673Y129665D01*
X1084657Y129611D01*
X1084634Y129556D01*
X1084630Y129548D01*
X1084622Y129529D01*
X1084607Y129501D01*
X1084583Y129463D01*
X1084556Y129416D01*
X1084521Y129361D01*
X1084474Y129306D01*
X1084423Y129244D01*
X1084416Y129236D01*
X1084396Y129213D01*
X1084361Y129178D01*
X1084338Y129154D01*
X1084310Y129127D01*
X1084279Y129096D01*
X1084240Y129061D01*
X1084201Y129026D01*
X1084158Y128983D01*
X1084111Y128940D01*
X1084057Y128893D01*
X1084002Y128846D01*
X1083940Y128792D01*
X1083936Y128788D01*
X1083928Y128780D01*
X1083912Y128768D01*
X1083893Y128753D01*
X1083846Y128714D01*
X1083788Y128663D01*
X1083729Y128608D01*
X1083667Y128554D01*
X1083616Y128507D01*
X1083597Y128488D01*
X1083577Y128468D01*
X1083573Y128464D01*
X1083565Y128452D01*
X1083550Y128437D01*
X1083530Y128413D01*
X1083487Y128363D01*
X1083444Y128300D01*
X1084704D01*
Y128000D01*
X1083008D01*
Y128004D01*
Y128019D01*
Y128043D01*
X1083012Y128070D01*
X1083016Y128101D01*
X1083019Y128137D01*
X1083031Y128175D01*
X1083043Y128215D01*
Y128218D01*
X1083047Y128222D01*
X1083055Y128246D01*
X1083070Y128277D01*
X1083093Y128324D01*
X1083121Y128374D01*
X1083160Y128433D01*
X1083199Y128491D01*
X1083249Y128554D01*
Y128558D01*
X1083257Y128562D01*
X1083277Y128585D01*
X1083308Y128620D01*
X1083355Y128667D01*
X1083413Y128721D01*
X1083484Y128788D01*
X1083569Y128862D01*
X1083663Y128944D01*
X1083667Y128948D01*
X1083682Y128959D01*
X1083702Y128975D01*
X1083729Y129002D01*
X1083764Y129030D01*
X1083803Y129065D01*
X1083889Y129139D01*
X1083983Y129228D01*
X1084076Y129318D01*
X1084123Y129361D01*
X1084162Y129404D01*
X1084197Y129447D01*
X1084228Y129486D01*
Y129490D01*
X1084236Y129494D01*
X1084244Y129505D01*
X1084252Y129521D01*
X1084275Y129560D01*
X1084303Y129611D01*
X1084330Y129669D01*
X1084353Y129732D01*
X1084369Y129802D01*
X1084377Y129868D01*
Y129872D01*
Y129876D01*
X1084373Y129899D01*
X1084369Y129934D01*
X1084361Y129977D01*
X1084342Y130028D01*
X1084318Y130079D01*
X1084287Y130133D01*
X1084240Y130184D01*
X1084232Y130188D01*
X1084217Y130203D01*
X1084186Y130223D01*
X1084146Y130250D01*
X1084096Y130274D01*
X1084037Y130293D01*
X1083967Y130309D01*
X1083889Y130313D01*
X1083866D01*
X1083850Y130309D01*
X1083811Y130305D01*
X1083760Y130297D01*
X1083702Y130278D01*
X1083640Y130254D01*
X1083581Y130219D01*
X1083526Y130172D01*
X1083523Y130165D01*
X1083507Y130149D01*
X1083484Y130118D01*
X1083460Y130075D01*
X1083433Y130020D01*
X1083413Y129958D01*
X1083398Y129884D01*
X1083390Y129798D01*
X1083066Y129833D01*
Y129837D01*
Y129849D01*
X1083070Y129868D01*
X1083074Y129892D01*
X1083082Y129923D01*
X1083086Y129958D01*
X1083109Y130036D01*
X1083140Y130125D01*
X1083183Y130215D01*
X1083242Y130305D01*
X1083273Y130344D01*
X1083312Y130383D01*
X1083316Y130387D01*
X1083324Y130391D01*
X1083335Y130402D01*
X1083351Y130414D01*
X1083374Y130426D01*
X1083402Y130445D01*
X1083433Y130461D01*
X1083468Y130480D01*
X1083507Y130496D01*
X1083550Y130516D01*
X1083601Y130531D01*
X1083651Y130543D01*
X1083768Y130566D01*
X1083831Y130570D01*
X1083897Y130574D01*
X1083932D01*
X1083959Y130570D01*
D02*
G37*
G36*
X1082339Y161800D02*
X1083599D01*
Y161500D01*
X1082000D01*
Y164062D01*
X1082339D01*
Y161800D01*
D02*
G37*
G36*
X1079468Y126558D02*
X1079500D01*
X1079578Y126555D01*
X1079659Y126547D01*
X1079745Y126531D01*
X1079827Y126515D01*
X1079866Y126504D01*
X1079901Y126492D01*
X1079905D01*
X1079909Y126488D01*
X1079932Y126480D01*
X1079964Y126461D01*
X1080003Y126434D01*
X1080050Y126402D01*
X1080096Y126359D01*
X1080143Y126309D01*
X1080186Y126246D01*
X1080190Y126239D01*
X1080202Y126215D01*
X1080221Y126180D01*
X1080241Y126133D01*
X1080260Y126075D01*
X1080280Y126008D01*
X1080291Y125938D01*
X1080295Y125860D01*
Y125856D01*
Y125849D01*
Y125833D01*
X1080291Y125813D01*
Y125790D01*
X1080287Y125763D01*
X1080272Y125700D01*
X1080252Y125626D01*
X1080221Y125552D01*
X1080174Y125474D01*
X1080147Y125435D01*
X1080116Y125400D01*
X1080108Y125392D01*
X1080096Y125384D01*
X1080085Y125369D01*
X1080065Y125357D01*
X1080042Y125338D01*
X1080014Y125322D01*
X1079983Y125303D01*
X1079948Y125283D01*
X1079905Y125264D01*
X1079862Y125244D01*
X1079812Y125225D01*
X1079761Y125205D01*
X1079702Y125189D01*
X1079640Y125178D01*
X1079574Y125166D01*
X1079582Y125162D01*
X1079597Y125154D01*
X1079620Y125143D01*
X1079648Y125127D01*
X1079714Y125084D01*
X1079749Y125061D01*
X1079776Y125037D01*
X1079784Y125030D01*
X1079804Y125014D01*
X1079831Y124983D01*
X1079866Y124944D01*
X1079909Y124893D01*
X1079956Y124835D01*
X1080007Y124768D01*
X1080057Y124694D01*
X1080502Y124000D01*
X1080077D01*
X1079737Y124530D01*
Y124534D01*
X1079730Y124542D01*
X1079722Y124554D01*
X1079714Y124569D01*
X1079687Y124608D01*
X1079652Y124659D01*
X1079613Y124718D01*
X1079570Y124776D01*
X1079531Y124831D01*
X1079492Y124881D01*
X1079488Y124885D01*
X1079476Y124901D01*
X1079457Y124924D01*
X1079437Y124952D01*
X1079379Y125006D01*
X1079351Y125033D01*
X1079320Y125053D01*
X1079316Y125057D01*
X1079309Y125061D01*
X1079293Y125069D01*
X1079273Y125080D01*
X1079227Y125104D01*
X1079168Y125123D01*
X1079164D01*
X1079156Y125127D01*
X1079141D01*
X1079121Y125131D01*
X1079094Y125135D01*
X1079063D01*
X1079024Y125139D01*
X1078587D01*
Y124000D01*
X1078248D01*
Y126562D01*
X1079437D01*
X1079468Y126558D01*
D02*
G37*
G36*
X1086040Y124000D02*
X1085712D01*
Y126145D01*
X1084964Y124000D01*
X1084659D01*
X1083922Y126180D01*
Y124000D01*
X1083595D01*
Y126562D01*
X1084102D01*
X1084710Y124749D01*
Y124745D01*
X1084714Y124737D01*
X1084718Y124725D01*
X1084722Y124706D01*
X1084737Y124663D01*
X1084757Y124608D01*
X1084776Y124546D01*
X1084796Y124484D01*
X1084815Y124421D01*
X1084831Y124371D01*
X1084835Y124378D01*
X1084839Y124398D01*
X1084850Y124429D01*
X1084866Y124472D01*
X1084882Y124530D01*
X1084905Y124601D01*
X1084936Y124682D01*
X1084967Y124780D01*
X1085580Y126562D01*
X1086040D01*
Y124000D01*
D02*
G37*
G36*
X1088446Y126262D02*
X1086933D01*
Y125474D01*
X1088349D01*
Y125174D01*
X1086933D01*
Y124300D01*
X1088505D01*
Y124000D01*
X1086594D01*
Y126562D01*
X1088446D01*
Y126262D01*
D02*
G37*
G36*
X1071516Y124000D02*
X1071169D01*
X1069824Y126012D01*
Y124000D01*
X1069500D01*
Y126562D01*
X1069843D01*
X1071193Y124550D01*
Y126562D01*
X1071516D01*
Y124000D01*
D02*
G37*
G36*
X1074254Y126601D02*
X1074285Y126597D01*
X1074324Y126593D01*
X1074367Y126590D01*
X1074414Y126582D01*
X1074515Y126558D01*
X1074625Y126523D01*
X1074679Y126500D01*
X1074734Y126473D01*
X1074784Y126441D01*
X1074835Y126406D01*
X1074839Y126402D01*
X1074847Y126399D01*
X1074859Y126387D01*
X1074878Y126371D01*
X1074898Y126352D01*
X1074925Y126324D01*
X1074952Y126297D01*
X1074979Y126266D01*
X1075011Y126227D01*
X1075038Y126188D01*
X1075069Y126141D01*
X1075100Y126090D01*
X1075128Y126040D01*
X1075155Y125981D01*
X1075202Y125856D01*
X1074866Y125778D01*
Y125782D01*
X1074862Y125790D01*
X1074859Y125806D01*
X1074851Y125825D01*
X1074839Y125849D01*
X1074827Y125876D01*
X1074800Y125934D01*
X1074765Y126001D01*
X1074718Y126071D01*
X1074667Y126133D01*
X1074605Y126188D01*
X1074597Y126192D01*
X1074574Y126207D01*
X1074539Y126227D01*
X1074488Y126254D01*
X1074430Y126278D01*
X1074356Y126297D01*
X1074274Y126313D01*
X1074180Y126317D01*
X1074153D01*
X1074133Y126313D01*
X1074106D01*
X1074079Y126309D01*
X1074008Y126297D01*
X1073930Y126281D01*
X1073849Y126254D01*
X1073767Y126219D01*
X1073689Y126172D01*
X1073685D01*
X1073681Y126164D01*
X1073657Y126145D01*
X1073622Y126114D01*
X1073579Y126071D01*
X1073536Y126016D01*
X1073490Y125954D01*
X1073447Y125876D01*
X1073412Y125790D01*
Y125786D01*
X1073408Y125778D01*
X1073404Y125767D01*
X1073400Y125747D01*
X1073392Y125728D01*
X1073388Y125700D01*
X1073373Y125638D01*
X1073357Y125564D01*
X1073345Y125482D01*
X1073338Y125392D01*
X1073334Y125299D01*
Y125295D01*
Y125283D01*
Y125268D01*
Y125244D01*
X1073338Y125217D01*
Y125182D01*
X1073341Y125147D01*
X1073345Y125108D01*
X1073357Y125018D01*
X1073373Y124920D01*
X1073396Y124823D01*
X1073427Y124729D01*
Y124725D01*
X1073431Y124718D01*
X1073439Y124706D01*
X1073447Y124690D01*
X1073466Y124644D01*
X1073497Y124593D01*
X1073540Y124530D01*
X1073591Y124472D01*
X1073650Y124413D01*
X1073720Y124363D01*
X1073724D01*
X1073728Y124359D01*
X1073739Y124351D01*
X1073755Y124343D01*
X1073798Y124328D01*
X1073852Y124304D01*
X1073915Y124285D01*
X1073989Y124265D01*
X1074071Y124250D01*
X1074157Y124246D01*
X1074184D01*
X1074203Y124250D01*
X1074227D01*
X1074258Y124253D01*
X1074324Y124265D01*
X1074398Y124285D01*
X1074480Y124316D01*
X1074558Y124355D01*
X1074636Y124409D01*
X1074640Y124413D01*
X1074644Y124417D01*
X1074667Y124441D01*
X1074703Y124480D01*
X1074745Y124530D01*
X1074788Y124601D01*
X1074835Y124682D01*
X1074874Y124784D01*
X1074905Y124897D01*
X1075245Y124811D01*
Y124807D01*
X1075241Y124792D01*
X1075233Y124772D01*
X1075225Y124741D01*
X1075210Y124710D01*
X1075194Y124667D01*
X1075178Y124624D01*
X1075155Y124577D01*
X1075104Y124472D01*
X1075034Y124367D01*
X1074956Y124265D01*
X1074909Y124218D01*
X1074859Y124176D01*
X1074855Y124172D01*
X1074847Y124168D01*
X1074831Y124156D01*
X1074808Y124140D01*
X1074781Y124125D01*
X1074749Y124105D01*
X1074714Y124086D01*
X1074671Y124066D01*
X1074625Y124047D01*
X1074574Y124027D01*
X1074515Y124008D01*
X1074457Y123992D01*
X1074328Y123965D01*
X1074258Y123961D01*
X1074184Y123957D01*
X1074145D01*
X1074114Y123961D01*
X1074079D01*
X1074040Y123965D01*
X1073993Y123973D01*
X1073946Y123977D01*
X1073837Y124000D01*
X1073724Y124027D01*
X1073615Y124070D01*
X1073560Y124094D01*
X1073509Y124125D01*
X1073505Y124129D01*
X1073497Y124133D01*
X1073486Y124144D01*
X1073466Y124156D01*
X1073419Y124195D01*
X1073365Y124250D01*
X1073299Y124316D01*
X1073236Y124402D01*
X1073170Y124499D01*
X1073115Y124612D01*
Y124616D01*
X1073111Y124628D01*
X1073104Y124644D01*
X1073096Y124667D01*
X1073084Y124698D01*
X1073072Y124733D01*
X1073061Y124772D01*
X1073049Y124819D01*
X1073037Y124866D01*
X1073026Y124920D01*
X1073002Y125037D01*
X1072987Y125162D01*
X1072983Y125299D01*
Y125303D01*
Y125318D01*
Y125338D01*
X1072987Y125365D01*
Y125400D01*
X1072991Y125443D01*
X1072994Y125486D01*
X1073002Y125537D01*
X1073022Y125646D01*
X1073045Y125763D01*
X1073084Y125884D01*
X1073135Y125997D01*
Y126001D01*
X1073143Y126008D01*
X1073150Y126024D01*
X1073162Y126048D01*
X1073178Y126071D01*
X1073197Y126098D01*
X1073248Y126164D01*
X1073306Y126239D01*
X1073380Y126313D01*
X1073470Y126387D01*
X1073568Y126449D01*
X1073572D01*
X1073579Y126457D01*
X1073595Y126465D01*
X1073618Y126473D01*
X1073642Y126484D01*
X1073673Y126500D01*
X1073712Y126512D01*
X1073751Y126527D01*
X1073794Y126543D01*
X1073841Y126555D01*
X1073946Y126582D01*
X1074063Y126597D01*
X1074188Y126605D01*
X1074227D01*
X1074254Y126601D01*
D02*
G37*
G36*
X1077678Y124000D02*
X1077339D01*
Y125209D01*
X1076013D01*
Y124000D01*
X1075674D01*
Y126562D01*
X1076013D01*
Y125509D01*
X1077339D01*
Y126562D01*
X1077678D01*
Y124000D01*
D02*
G37*
G36*
X1099622Y136262D02*
X1098780D01*
Y134000D01*
X1098440D01*
Y136262D01*
X1097598D01*
Y136562D01*
X1099622D01*
Y136262D01*
D02*
G37*
%LPC*%
G36*
X1096276Y136297D02*
Y136293D01*
X1096272Y136285D01*
Y136274D01*
X1096268Y136254D01*
X1096260Y136231D01*
X1096253Y136204D01*
X1096237Y136141D01*
X1096218Y136063D01*
X1096194Y135981D01*
X1096167Y135891D01*
X1096136Y135802D01*
X1095855Y135053D01*
X1096725D01*
X1096459Y135759D01*
Y135763D01*
X1096455Y135775D01*
X1096448Y135790D01*
X1096440Y135813D01*
X1096428Y135841D01*
X1096416Y135872D01*
X1096393Y135946D01*
X1096362Y136032D01*
X1096331Y136122D01*
X1096303Y136211D01*
X1096276Y136297D01*
D02*
G37*
G36*
X1093944Y136262D02*
X1093339D01*
Y135482D01*
X1093967D01*
X1094014Y135486D01*
X1094069Y135490D01*
X1094123Y135494D01*
X1094170Y135502D01*
X1094213Y135509D01*
X1094217Y135513D01*
X1094232Y135517D01*
X1094256Y135525D01*
X1094287Y135540D01*
X1094318Y135556D01*
X1094349Y135580D01*
X1094381Y135607D01*
X1094408Y135638D01*
X1094412Y135642D01*
X1094420Y135654D01*
X1094427Y135673D01*
X1094443Y135700D01*
X1094455Y135732D01*
X1094462Y135771D01*
X1094470Y135813D01*
X1094474Y135864D01*
Y135868D01*
Y135888D01*
X1094470Y135911D01*
X1094466Y135942D01*
X1094459Y135977D01*
X1094447Y136012D01*
X1094431Y136051D01*
X1094412Y136090D01*
X1094408Y136094D01*
X1094400Y136106D01*
X1094384Y136122D01*
X1094365Y136145D01*
X1094342Y136164D01*
X1094310Y136188D01*
X1094275Y136207D01*
X1094236Y136223D01*
X1094232D01*
X1094213Y136231D01*
X1094186Y136235D01*
X1094147Y136242D01*
X1094092Y136250D01*
X1094026Y136254D01*
X1093944Y136262D01*
D02*
G37*
G36*
X1094014Y135182D02*
X1093339D01*
Y134300D01*
X1094065D01*
X1094143Y134304D01*
X1094178Y134308D01*
X1094205Y134312D01*
X1094209D01*
X1094225Y134316D01*
X1094248Y134320D01*
X1094275Y134328D01*
X1094338Y134347D01*
X1094400Y134378D01*
X1094404Y134382D01*
X1094416Y134386D01*
X1094427Y134398D01*
X1094447Y134417D01*
X1094470Y134437D01*
X1094490Y134460D01*
X1094513Y134491D01*
X1094533Y134523D01*
X1094537Y134527D01*
X1094541Y134538D01*
X1094548Y134558D01*
X1094560Y134585D01*
X1094568Y134616D01*
X1094576Y134655D01*
X1094580Y134694D01*
X1094583Y134741D01*
Y134749D01*
Y134764D01*
X1094580Y134792D01*
X1094576Y134823D01*
X1094564Y134862D01*
X1094552Y134905D01*
X1094533Y134948D01*
X1094505Y134987D01*
X1094501Y134991D01*
X1094494Y135006D01*
X1094474Y135022D01*
X1094451Y135045D01*
X1094423Y135073D01*
X1094388Y135096D01*
X1094349Y135119D01*
X1094303Y135139D01*
X1094295Y135143D01*
X1094279Y135147D01*
X1094248Y135154D01*
X1094209Y135162D01*
X1094154Y135170D01*
X1094092Y135174D01*
X1094014Y135182D01*
D02*
G37*
G36*
X1081945Y126313D02*
X1081910D01*
X1081886Y126309D01*
X1081855Y126305D01*
X1081816Y126301D01*
X1081777Y126293D01*
X1081734Y126281D01*
X1081637Y126250D01*
X1081586Y126231D01*
X1081535Y126207D01*
X1081481Y126180D01*
X1081430Y126145D01*
X1081379Y126106D01*
X1081329Y126063D01*
X1081325Y126059D01*
X1081317Y126051D01*
X1081305Y126036D01*
X1081290Y126016D01*
X1081270Y125989D01*
X1081247Y125954D01*
X1081223Y125915D01*
X1081200Y125868D01*
X1081177Y125813D01*
X1081153Y125755D01*
X1081130Y125689D01*
X1081110Y125611D01*
X1081095Y125529D01*
X1081083Y125443D01*
X1081075Y125346D01*
X1081071Y125240D01*
Y125236D01*
Y125221D01*
Y125197D01*
X1081075Y125162D01*
X1081079Y125123D01*
X1081083Y125080D01*
X1081091Y125030D01*
X1081102Y124975D01*
X1081130Y124858D01*
X1081153Y124800D01*
X1081177Y124737D01*
X1081204Y124679D01*
X1081235Y124620D01*
X1081274Y124562D01*
X1081317Y124511D01*
X1081321Y124507D01*
X1081329Y124499D01*
X1081344Y124487D01*
X1081364Y124468D01*
X1081387Y124449D01*
X1081415Y124429D01*
X1081450Y124402D01*
X1081489Y124378D01*
X1081532Y124355D01*
X1081578Y124331D01*
X1081629Y124308D01*
X1081688Y124289D01*
X1081746Y124269D01*
X1081808Y124257D01*
X1081871Y124250D01*
X1081941Y124246D01*
X1081976D01*
X1082003Y124250D01*
X1082038Y124253D01*
X1082074Y124261D01*
X1082117Y124269D01*
X1082163Y124281D01*
X1082261Y124312D01*
X1082315Y124331D01*
X1082366Y124359D01*
X1082421Y124390D01*
X1082471Y124425D01*
X1082522Y124464D01*
X1082569Y124511D01*
X1082573Y124515D01*
X1082581Y124523D01*
X1082592Y124538D01*
X1082608Y124562D01*
X1082627Y124589D01*
X1082647Y124624D01*
X1082670Y124663D01*
X1082694Y124706D01*
X1082717Y124760D01*
X1082740Y124815D01*
X1082760Y124878D01*
X1082780Y124948D01*
X1082795Y125022D01*
X1082807Y125100D01*
X1082815Y125186D01*
X1082819Y125275D01*
Y125279D01*
Y125291D01*
Y125306D01*
Y125326D01*
X1082815Y125353D01*
Y125388D01*
X1082807Y125462D01*
X1082791Y125544D01*
X1082772Y125638D01*
X1082744Y125732D01*
X1082709Y125821D01*
Y125825D01*
X1082705Y125833D01*
X1082698Y125845D01*
X1082690Y125860D01*
X1082666Y125903D01*
X1082631Y125954D01*
X1082588Y126012D01*
X1082534Y126075D01*
X1082471Y126133D01*
X1082401Y126184D01*
X1082397D01*
X1082393Y126188D01*
X1082382Y126196D01*
X1082366Y126204D01*
X1082323Y126223D01*
X1082269Y126250D01*
X1082202Y126274D01*
X1082124Y126293D01*
X1082038Y126309D01*
X1081945Y126313D01*
D02*
G37*
G36*
X1033725Y145961D02*
X1033674D01*
X1033647Y145958D01*
X1033612D01*
X1033537Y145950D01*
X1033456Y145934D01*
X1033362Y145915D01*
X1033268Y145887D01*
X1033179Y145852D01*
X1033175D01*
X1033167Y145848D01*
X1033155Y145841D01*
X1033140Y145833D01*
X1033097Y145809D01*
X1033046Y145774D01*
X1032988Y145731D01*
X1032925Y145677D01*
X1032867Y145614D01*
X1032816Y145544D01*
Y145540D01*
X1032812Y145536D01*
X1032804Y145525D01*
X1032796Y145509D01*
X1032777Y145466D01*
X1032750Y145412D01*
X1032726Y145345D01*
X1032707Y145267D01*
X1032691Y145182D01*
X1032687Y145088D01*
Y145084D01*
Y145072D01*
Y145053D01*
X1032691Y145029D01*
X1032695Y144998D01*
X1032699Y144959D01*
X1032707Y144920D01*
X1032718Y144877D01*
X1032750Y144780D01*
X1032769Y144729D01*
X1032793Y144678D01*
X1032820Y144624D01*
X1032855Y144573D01*
X1032894Y144522D01*
X1032937Y144472D01*
X1032941Y144468D01*
X1032949Y144460D01*
X1032964Y144448D01*
X1032984Y144433D01*
X1033011Y144413D01*
X1033046Y144390D01*
X1033085Y144366D01*
X1033132Y144343D01*
X1033187Y144320D01*
X1033245Y144296D01*
X1033311Y144273D01*
X1033389Y144253D01*
X1033471Y144238D01*
X1033557Y144226D01*
X1033654Y144218D01*
X1033760Y144214D01*
X1033803D01*
X1033838Y144218D01*
X1033877Y144222D01*
X1033920Y144226D01*
X1033970Y144234D01*
X1034025Y144246D01*
X1034142Y144273D01*
X1034200Y144296D01*
X1034263Y144320D01*
X1034321Y144347D01*
X1034380Y144378D01*
X1034438Y144417D01*
X1034489Y144460D01*
X1034493Y144464D01*
X1034501Y144472D01*
X1034513Y144487D01*
X1034532Y144507D01*
X1034552Y144530D01*
X1034571Y144557D01*
X1034598Y144593D01*
X1034622Y144632D01*
X1034645Y144675D01*
X1034669Y144721D01*
X1034692Y144772D01*
X1034711Y144831D01*
X1034731Y144889D01*
X1034743Y144951D01*
X1034750Y145014D01*
X1034754Y145084D01*
Y145088D01*
Y145100D01*
Y145119D01*
X1034750Y145146D01*
X1034746Y145182D01*
X1034739Y145217D01*
X1034731Y145259D01*
X1034719Y145306D01*
X1034688Y145404D01*
X1034669Y145458D01*
X1034641Y145509D01*
X1034610Y145564D01*
X1034575Y145614D01*
X1034536Y145665D01*
X1034489Y145712D01*
X1034485Y145716D01*
X1034477Y145724D01*
X1034462Y145735D01*
X1034438Y145751D01*
X1034411Y145770D01*
X1034376Y145790D01*
X1034337Y145813D01*
X1034294Y145837D01*
X1034239Y145860D01*
X1034185Y145884D01*
X1034122Y145903D01*
X1034052Y145923D01*
X1033978Y145938D01*
X1033900Y145950D01*
X1033814Y145958D01*
X1033725Y145961D01*
D02*
G37*
G36*
X1033140Y143087D02*
X1033109D01*
X1033077Y143079D01*
X1033034Y143072D01*
X1032988Y143056D01*
X1032937Y143033D01*
X1032886Y142998D01*
X1032839Y142955D01*
X1032835Y142947D01*
X1032820Y142931D01*
X1032800Y142896D01*
X1032781Y142853D01*
X1032757Y142795D01*
X1032742Y142725D01*
X1032726Y142639D01*
X1032722Y142537D01*
Y141730D01*
X1033569D01*
Y142455D01*
Y142459D01*
Y142467D01*
Y142479D01*
Y142494D01*
X1033565Y142537D01*
X1033561Y142588D01*
X1033557Y142647D01*
X1033549Y142709D01*
X1033537Y142767D01*
X1033522Y142818D01*
X1033518Y142826D01*
X1033514Y142841D01*
X1033502Y142865D01*
X1033487Y142892D01*
X1033463Y142923D01*
X1033436Y142958D01*
X1033405Y142990D01*
X1033370Y143017D01*
X1033366Y143021D01*
X1033350Y143029D01*
X1033331Y143040D01*
X1033300Y143052D01*
X1033268Y143064D01*
X1033229Y143076D01*
X1033187Y143083D01*
X1033140Y143087D01*
D02*
G37*
G36*
X1039689Y148904D02*
X1039662D01*
X1039646Y148900D01*
X1039622D01*
X1039595Y148896D01*
X1039537Y148888D01*
X1039470Y148869D01*
X1039400Y148845D01*
X1039334Y148810D01*
X1039272Y148764D01*
X1039264Y148756D01*
X1039248Y148740D01*
X1039221Y148709D01*
X1039194Y148666D01*
X1039166Y148615D01*
X1039139Y148553D01*
X1039123Y148483D01*
X1039116Y148405D01*
Y148401D01*
Y148397D01*
Y148385D01*
X1039119Y148370D01*
X1039123Y148331D01*
X1039135Y148280D01*
X1039155Y148225D01*
X1039182Y148163D01*
X1039221Y148104D01*
X1039272Y148046D01*
X1039279Y148038D01*
X1039299Y148022D01*
X1039334Y147999D01*
X1039377Y147972D01*
X1039435Y147944D01*
X1039505Y147921D01*
X1039583Y147906D01*
X1039673Y147898D01*
X1039701D01*
X1039732Y147902D01*
X1039771Y147906D01*
X1039821Y147913D01*
X1039872Y147925D01*
X1039927Y147941D01*
X1039985Y147964D01*
X1039993Y147968D01*
X1040009Y147976D01*
X1040036Y147991D01*
X1040067Y148015D01*
X1040106Y148042D01*
X1040141Y148073D01*
X1040180Y148112D01*
X1040211Y148155D01*
X1040215Y148159D01*
X1040223Y148179D01*
X1040235Y148202D01*
X1040246Y148233D01*
X1040262Y148272D01*
X1040274Y148319D01*
X1040282Y148366D01*
X1040285Y148416D01*
Y148420D01*
Y148424D01*
Y148436D01*
X1040282Y148451D01*
X1040278Y148487D01*
X1040266Y148537D01*
X1040246Y148588D01*
X1040219Y148646D01*
X1040180Y148705D01*
X1040126Y148760D01*
X1040118Y148767D01*
X1040094Y148783D01*
X1040059Y148806D01*
X1040012Y148834D01*
X1039950Y148857D01*
X1039872Y148881D01*
X1039786Y148896D01*
X1039689Y148904D01*
D02*
G37*
G36*
X1087265Y163762D02*
X1086731D01*
Y161800D01*
X1087316D01*
X1087359Y161804D01*
X1087417Y161808D01*
X1087479Y161812D01*
X1087546Y161820D01*
X1087608Y161831D01*
X1087667Y161847D01*
X1087675Y161851D01*
X1087690Y161855D01*
X1087717Y161867D01*
X1087749Y161882D01*
X1087788Y161902D01*
X1087827Y161921D01*
X1087862Y161949D01*
X1087897Y161980D01*
X1087901Y161984D01*
X1087916Y162003D01*
X1087940Y162030D01*
X1087967Y162065D01*
X1087994Y162112D01*
X1088025Y162167D01*
X1088057Y162233D01*
X1088084Y162303D01*
Y162307D01*
X1088088Y162311D01*
X1088092Y162323D01*
X1088096Y162338D01*
X1088100Y162358D01*
X1088107Y162381D01*
X1088119Y162440D01*
X1088131Y162514D01*
X1088142Y162600D01*
X1088150Y162693D01*
X1088154Y162799D01*
Y162803D01*
Y162818D01*
Y162838D01*
Y162865D01*
X1088150Y162900D01*
X1088146Y162939D01*
X1088142Y162982D01*
X1088139Y163025D01*
X1088123Y163126D01*
X1088100Y163228D01*
X1088064Y163325D01*
X1088045Y163372D01*
X1088022Y163415D01*
Y163419D01*
X1088014Y163423D01*
X1088010Y163434D01*
X1087998Y163450D01*
X1087971Y163489D01*
X1087932Y163532D01*
X1087885Y163583D01*
X1087831Y163629D01*
X1087768Y163672D01*
X1087702Y163707D01*
X1087694Y163711D01*
X1087675Y163715D01*
X1087643Y163723D01*
X1087597Y163735D01*
X1087534Y163746D01*
X1087460Y163754D01*
X1087370Y163758D01*
X1087265Y163762D01*
D02*
G37*
G36*
X1079394Y126278D02*
X1078587D01*
Y125431D01*
X1079351D01*
X1079394Y125435D01*
X1079445Y125439D01*
X1079504Y125443D01*
X1079566Y125451D01*
X1079624Y125462D01*
X1079675Y125478D01*
X1079683Y125482D01*
X1079698Y125486D01*
X1079722Y125498D01*
X1079749Y125513D01*
X1079780Y125537D01*
X1079815Y125564D01*
X1079847Y125595D01*
X1079874Y125630D01*
X1079878Y125634D01*
X1079886Y125650D01*
X1079897Y125669D01*
X1079909Y125700D01*
X1079921Y125732D01*
X1079932Y125771D01*
X1079940Y125813D01*
X1079944Y125860D01*
Y125864D01*
Y125868D01*
Y125891D01*
X1079936Y125923D01*
X1079929Y125966D01*
X1079913Y126012D01*
X1079890Y126063D01*
X1079854Y126114D01*
X1079812Y126161D01*
X1079804Y126164D01*
X1079788Y126180D01*
X1079753Y126200D01*
X1079710Y126219D01*
X1079652Y126242D01*
X1079582Y126258D01*
X1079496Y126274D01*
X1079394Y126278D01*
D02*
G37*
G36*
X1077647Y164278D02*
X1076839D01*
Y163431D01*
X1077604D01*
X1077647Y163435D01*
X1077697Y163439D01*
X1077756Y163443D01*
X1077818Y163451D01*
X1077877Y163462D01*
X1077927Y163478D01*
X1077935Y163482D01*
X1077951Y163486D01*
X1077974Y163498D01*
X1078001Y163513D01*
X1078033Y163537D01*
X1078068Y163564D01*
X1078099Y163595D01*
X1078126Y163630D01*
X1078130Y163634D01*
X1078138Y163650D01*
X1078150Y163669D01*
X1078161Y163700D01*
X1078173Y163732D01*
X1078185Y163771D01*
X1078193Y163813D01*
X1078197Y163860D01*
Y163864D01*
Y163868D01*
Y163891D01*
X1078189Y163923D01*
X1078181Y163966D01*
X1078165Y164012D01*
X1078142Y164063D01*
X1078107Y164114D01*
X1078064Y164161D01*
X1078056Y164164D01*
X1078041Y164180D01*
X1078005Y164200D01*
X1077962Y164219D01*
X1077904Y164242D01*
X1077834Y164258D01*
X1077748Y164274D01*
X1077647Y164278D01*
D02*
G37*
G36*
X1061115Y172278D02*
X1060308D01*
Y171431D01*
X1061072D01*
X1061115Y171435D01*
X1061166Y171439D01*
X1061224Y171443D01*
X1061287Y171451D01*
X1061345Y171463D01*
X1061396Y171478D01*
X1061404Y171482D01*
X1061419Y171486D01*
X1061443Y171498D01*
X1061470Y171513D01*
X1061501Y171537D01*
X1061536Y171564D01*
X1061568Y171595D01*
X1061595Y171630D01*
X1061599Y171634D01*
X1061607Y171650D01*
X1061618Y171669D01*
X1061630Y171700D01*
X1061642Y171732D01*
X1061653Y171771D01*
X1061661Y171813D01*
X1061665Y171860D01*
Y171864D01*
Y171868D01*
Y171891D01*
X1061657Y171923D01*
X1061650Y171966D01*
X1061634Y172012D01*
X1061611Y172063D01*
X1061575Y172114D01*
X1061532Y172161D01*
X1061525Y172164D01*
X1061509Y172180D01*
X1061474Y172200D01*
X1061431Y172219D01*
X1061373Y172242D01*
X1061302Y172258D01*
X1061217Y172274D01*
X1061115Y172278D01*
D02*
G37*
G36*
X1058451Y172297D02*
Y172293D01*
X1058448Y172285D01*
Y172274D01*
X1058444Y172254D01*
X1058436Y172231D01*
X1058428Y172204D01*
X1058412Y172141D01*
X1058393Y172063D01*
X1058370Y171981D01*
X1058342Y171891D01*
X1058311Y171802D01*
X1058030Y171053D01*
X1058900D01*
X1058635Y171759D01*
Y171763D01*
X1058631Y171774D01*
X1058623Y171790D01*
X1058615Y171813D01*
X1058604Y171841D01*
X1058592Y171872D01*
X1058568Y171946D01*
X1058537Y172032D01*
X1058506Y172122D01*
X1058479Y172211D01*
X1058451Y172297D01*
D02*
G37*
G36*
X1033190Y140603D02*
X1033163D01*
X1033132Y140599D01*
X1033093Y140591D01*
X1033050Y140583D01*
X1033003Y140568D01*
X1032956Y140548D01*
X1032913Y140521D01*
X1032910Y140517D01*
X1032894Y140505D01*
X1032874Y140490D01*
X1032851Y140463D01*
X1032828Y140431D01*
X1032800Y140396D01*
X1032781Y140353D01*
X1032761Y140306D01*
Y140303D01*
X1032757Y140291D01*
X1032754Y140268D01*
X1032750Y140236D01*
X1032746Y140193D01*
X1032742Y140139D01*
X1032738Y140069D01*
Y139991D01*
Y139339D01*
X1033654D01*
Y139998D01*
Y140002D01*
Y140014D01*
Y140030D01*
X1033651Y140053D01*
Y140080D01*
X1033647Y140108D01*
X1033639Y140178D01*
X1033623Y140256D01*
X1033604Y140334D01*
X1033573Y140404D01*
X1033553Y140435D01*
X1033534Y140463D01*
X1033530Y140470D01*
X1033510Y140486D01*
X1033483Y140505D01*
X1033444Y140533D01*
X1033397Y140560D01*
X1033339Y140579D01*
X1033268Y140595D01*
X1033190Y140603D01*
D02*
G37*
G36*
X1039721Y136594D02*
X1039670D01*
X1039643Y136590D01*
X1039612D01*
X1039538Y136583D01*
X1039452Y136567D01*
X1039362Y136551D01*
X1039268Y136524D01*
X1039179Y136489D01*
X1039175D01*
X1039167Y136485D01*
X1039155Y136477D01*
X1039140Y136469D01*
X1039097Y136446D01*
X1039046Y136411D01*
X1038988Y136368D01*
X1038925Y136313D01*
X1038867Y136251D01*
X1038816Y136181D01*
Y136177D01*
X1038812Y136173D01*
X1038804Y136161D01*
X1038797Y136146D01*
X1038777Y136103D01*
X1038750Y136048D01*
X1038726Y135982D01*
X1038707Y135904D01*
X1038691Y135818D01*
X1038687Y135725D01*
Y135721D01*
Y135709D01*
Y135689D01*
X1038691Y135662D01*
X1038695Y135631D01*
X1038703Y135592D01*
X1038711Y135549D01*
X1038719Y135506D01*
X1038750Y135405D01*
X1038773Y135354D01*
X1038797Y135300D01*
X1038828Y135249D01*
X1038863Y135194D01*
X1038902Y135143D01*
X1038949Y135097D01*
X1038953Y135093D01*
X1038960Y135085D01*
X1038976Y135073D01*
X1038995Y135058D01*
X1039023Y135038D01*
X1039058Y135019D01*
X1039097Y134995D01*
X1039140Y134976D01*
X1039194Y134952D01*
X1039249Y134929D01*
X1039315Y134909D01*
X1039382Y134890D01*
X1039460Y134874D01*
X1039541Y134863D01*
X1039627Y134855D01*
X1039721Y134851D01*
X1039768D01*
X1039803Y134855D01*
X1039846Y134859D01*
X1039892Y134863D01*
X1039947Y134871D01*
X1040005Y134882D01*
X1040130Y134909D01*
X1040193Y134933D01*
X1040255Y134956D01*
X1040321Y134984D01*
X1040380Y135015D01*
X1040438Y135054D01*
X1040489Y135097D01*
X1040493Y135101D01*
X1040501Y135108D01*
X1040512Y135120D01*
X1040532Y135140D01*
X1040551Y135167D01*
X1040571Y135194D01*
X1040598Y135229D01*
X1040622Y135268D01*
X1040645Y135311D01*
X1040668Y135358D01*
X1040692Y135409D01*
X1040711Y135467D01*
X1040731Y135526D01*
X1040743Y135588D01*
X1040750Y135654D01*
X1040754Y135725D01*
Y135729D01*
Y135732D01*
Y135756D01*
X1040750Y135791D01*
X1040746Y135834D01*
X1040739Y135884D01*
X1040727Y135943D01*
X1040711Y136005D01*
X1040688Y136064D01*
X1040684Y136056D01*
X1040672Y136037D01*
X1040653Y136005D01*
X1040629Y135962D01*
X1040606Y135916D01*
X1040583Y135857D01*
X1040559Y135799D01*
X1040540Y135732D01*
X1040294Y135814D01*
Y135818D01*
X1040298Y135826D01*
X1040302Y135842D01*
X1040310Y135865D01*
X1040318Y135888D01*
X1040329Y135916D01*
X1040357Y135986D01*
X1040392Y136060D01*
X1040431Y136142D01*
X1040481Y136220D01*
X1040540Y136294D01*
X1040536Y136298D01*
X1040528Y136306D01*
X1040512Y136321D01*
X1040489Y136341D01*
X1040458Y136364D01*
X1040423Y136388D01*
X1040384Y136415D01*
X1040333Y136446D01*
X1040282Y136473D01*
X1040220Y136501D01*
X1040154Y136524D01*
X1040080Y136548D01*
X1039998Y136567D01*
X1039912Y136583D01*
X1039818Y136590D01*
X1039721Y136594D01*
D02*
G37*
G36*
X1089778Y150011D02*
X1088931D01*
Y149286D01*
Y149282D01*
Y149274D01*
Y149262D01*
Y149247D01*
X1088935Y149204D01*
X1088939Y149153D01*
X1088943Y149095D01*
X1088951Y149032D01*
X1088962Y148974D01*
X1088978Y148923D01*
X1088982Y148915D01*
X1088986Y148900D01*
X1088998Y148876D01*
X1089013Y148849D01*
X1089037Y148818D01*
X1089064Y148783D01*
X1089095Y148751D01*
X1089130Y148724D01*
X1089134Y148720D01*
X1089150Y148712D01*
X1089169Y148701D01*
X1089200Y148689D01*
X1089232Y148677D01*
X1089271Y148666D01*
X1089314Y148658D01*
X1089360Y148654D01*
X1089392D01*
X1089423Y148662D01*
X1089466Y148670D01*
X1089512Y148685D01*
X1089563Y148708D01*
X1089614Y148744D01*
X1089661Y148786D01*
X1089664Y148794D01*
X1089680Y148810D01*
X1089700Y148845D01*
X1089719Y148888D01*
X1089742Y148946D01*
X1089758Y149017D01*
X1089774Y149102D01*
X1089778Y149204D01*
Y150011D01*
D02*
G37*
%LPD*%
D32*
X1034659Y155654D02*
G03*
X1037264Y155612I1340J2346D01*
G01*
X1037269Y160257D02*
G03*
X1034641Y160201I-1269J-2157D01*
G01*
D33*
X1063556Y161343D02*
G03*
X1066444Y161343I1444J0D01*
G01*
X1069000Y113000D02*
X1089000D01*
Y123000D01*
X1069000D02*
X1089000D01*
X1069000Y113000D02*
Y123000D01*
X1042622Y146606D02*
X1045378D01*
Y147394D01*
X1042622Y146606D02*
Y147394D01*
X1082697Y132441D02*
Y137559D01*
X1082303D02*
X1082697D01*
X1082303Y132441D02*
X1082697D01*
X1069331Y141657D02*
Y161343D01*
X1060669Y141657D02*
Y161343D01*
Y141657D02*
X1069331D01*
X1066444Y161343D02*
X1069331D01*
X1060669D02*
X1063556D01*
X1091000Y133000D02*
X1101000D01*
Y113000D02*
Y133000D01*
X1091000Y113000D02*
X1101000D01*
X1091000D02*
Y133000D01*
X1094606Y157622D02*
Y160378D01*
Y157622D02*
X1095394D01*
X1094606Y160378D02*
X1095394D01*
X1094197Y165441D02*
Y170559D01*
X1093803D02*
X1094197D01*
X1093803Y165441D02*
X1094197D01*
X1078106Y166524D02*
X1078894D01*
X1078106Y169476D02*
X1078894D01*
X1044382Y139189D02*
X1054618D01*
X1044382Y112811D02*
X1054618D01*
X1044382D02*
Y139189D01*
X1054618Y112811D02*
Y139189D01*
X1033000Y173000D02*
X1053000D01*
X1033000Y163000D02*
Y173000D01*
Y163000D02*
X1053000D01*
Y173000D01*
X1021000Y113000D02*
Y173000D01*
X1031000Y113000D02*
Y173000D01*
X1021000D02*
X1031000D01*
X1021000Y113000D02*
X1031000D01*
D34*
X1055256Y162346D02*
G03*
X1055256Y162346I-492J0D01*
G01*
X1061409Y112811D02*
G03*
X1061409Y112811I-492J0D01*
G01*
M02*
