%FSLAX25Y25*%
%MOIN*%
G70*
G01*
G75*
G04 Layer_Color=16711935*
%ADD10R,0.03543X0.02953*%
%ADD11R,0.02953X0.01772*%
%ADD12R,0.02953X0.01772*%
%ADD13R,0.04134X0.05906*%
%ADD14R,0.08661X0.02362*%
%ADD15R,0.08661X0.02362*%
%ADD16R,0.02953X0.03543*%
%ADD17R,0.03150X0.03740*%
%ADD18R,0.09449X0.12992*%
%ADD19R,0.09449X0.03937*%
%ADD20C,0.01200*%
%ADD21C,0.05000*%
%ADD22C,0.04000*%
%ADD23C,0.02000*%
%ADD24C,0.05906*%
%ADD25R,0.05906X0.05906*%
%ADD26C,0.02787*%
%ADD27R,0.05906X0.05906*%
%ADD28C,0.02500*%
%ADD29R,0.03740X0.03150*%
%ADD30O,0.02165X0.06496*%
%ADD31O,0.06496X0.02165*%
%ADD32C,0.01000*%
%ADD33C,0.00787*%
%ADD34C,0.00984*%
%ADD35R,0.04343X0.03753*%
%ADD36R,0.03753X0.02572*%
%ADD37R,0.03753X0.02572*%
%ADD38R,0.04934X0.06706*%
%ADD39R,0.09461X0.03162*%
%ADD40R,0.09461X0.03162*%
%ADD41R,0.03753X0.04343*%
%ADD42R,0.03950X0.04540*%
%ADD43R,0.10249X0.13792*%
%ADD44R,0.10249X0.04737*%
%ADD45C,0.06706*%
%ADD46R,0.06706X0.06706*%
%ADD47C,0.04187*%
%ADD48R,0.06706X0.06706*%
%ADD49C,0.03300*%
%ADD50C,0.03900*%
%ADD51R,0.04540X0.03950*%
%ADD52O,0.02965X0.07296*%
%ADD53O,0.07296X0.02965*%
D35*
X1096000Y148555D02*
D03*
Y155445D02*
D03*
Y141445D02*
D03*
Y134555D02*
D03*
X1044000Y146555D02*
D03*
Y153445D02*
D03*
D38*
X1066839Y116000D02*
D03*
X1059161D02*
D03*
D41*
X1043445Y137000D02*
D03*
X1036555D02*
D03*
X1044555Y117500D02*
D03*
X1051445D02*
D03*
D45*
X1074000Y118000D02*
D03*
X1096000Y128000D02*
D03*
X1048000Y168000D02*
D03*
X1026000Y118000D02*
D03*
Y128000D02*
D03*
Y138000D02*
D03*
Y148000D02*
D03*
Y158000D02*
D03*
D46*
X1084000Y118000D02*
D03*
X1038000Y168000D02*
D03*
D47*
X1034031Y158000D02*
D03*
X1037969D02*
D03*
D48*
X1096000Y118000D02*
D03*
X1026000Y168000D02*
D03*
D49*
X1039000Y152500D02*
D03*
X1036500Y142000D02*
D03*
X1032000Y115000D02*
D03*
X1067500Y149000D02*
D03*
Y144000D02*
D03*
X1073000Y140000D02*
D03*
X1059500D02*
D03*
X1055000Y165000D02*
D03*
X1047500Y160000D02*
D03*
X1062000Y154000D02*
D03*
X1091000Y135114D02*
D03*
D50*
X1054000Y114000D02*
D03*
D51*
X1037500Y122043D02*
D03*
Y114957D02*
D03*
D52*
X1080024Y161035D02*
D03*
X1076874D02*
D03*
X1073724D02*
D03*
X1070575D02*
D03*
X1067425D02*
D03*
X1064276D02*
D03*
X1061126D02*
D03*
X1057976D02*
D03*
Y127965D02*
D03*
X1061126D02*
D03*
X1064276D02*
D03*
X1067425D02*
D03*
X1070575D02*
D03*
X1073724D02*
D03*
X1076874D02*
D03*
X1080024D02*
D03*
D53*
X1052465Y155524D02*
D03*
Y152374D02*
D03*
Y149224D02*
D03*
Y146075D02*
D03*
Y142925D02*
D03*
Y139776D02*
D03*
Y136626D02*
D03*
Y133476D02*
D03*
X1085535D02*
D03*
Y136626D02*
D03*
Y139776D02*
D03*
Y142925D02*
D03*
Y146075D02*
D03*
Y149224D02*
D03*
Y152374D02*
D03*
Y155524D02*
D03*
M02*
