M48
;Layer_Color=9474304
;FILE_FORMAT=2:5
INCH,LZ
;TYPE=PLATED
T1F00S00C0.01200
T2F00S00C0.01575
T3F00S00C0.03543
%
T01
X1032Y0115
X1054Y0114
X10595Y014
X10675Y0144
Y0149
X1062Y0154
X1039Y01525
X10365Y0142
X1073Y014
X1091Y0135114
X1055Y0165
X10475Y016
T02
X1034031Y0158
X1037969
T03
X1026Y0118
Y0128
Y0138
Y0148
X1074Y0118
X1084
X1096
Y0128
X1048Y0168
X1038
X1026
Y0158
M30
