<?xml version="1.0" encoding="utf-8"?>
<svg version="1.1" xmlns="http://www.w3.org/2000/svg" xmlns:xlink="http://www.w3.org/1999/xlink" x="0px" y="0px"
	 viewBox="0 0 595.2 842" style="enable-background:new 0 0 595.2 842;" xml:space="preserve">
<style type="text/css">
	.st0{fill:none;stroke:#000000;stroke-width:0.75;stroke-linecap:round;stroke-linejoin:round;stroke-miterlimit:10;}
	.st1{fill-rule:evenodd;clip-rule:evenodd;}
</style>
<g id="Layer_1">
	<line class="st0" x1="166.4" y1="578.4" x2="137.5" y2="590"/>
	<line class="st0" x1="166.4" y1="578.4" x2="166.4" y2="578.4"/>
	<polyline class="st0" points="166.4,671.1 166.4,671.1 166.4,706 	"/>
	<line class="st0" x1="127.7" y1="604.4" x2="127.7" y2="645.3"/>
	<line class="st0" x1="137.5" y1="659.5" x2="166.4" y2="671.1"/>
	<line class="st0" x1="181.8" y1="721.3" x2="374.9" y2="721.3"/>
	<polyline class="st0" points="166.4,543.8 166.4,578.4 166.4,578.9 	"/>
	<line class="st0" x1="166.4" y1="670.6" x2="166.4" y2="671.1"/>
	<line class="st0" x1="137.5" y1="590" x2="137.5" y2="590"/>
	<line class="st0" x1="137.5" y1="659.5" x2="137.5" y2="659.5"/>
	<polyline class="st0" points="166.4,706 166.4,706 166.4,670.6 	"/>
	<polyline class="st0" points="181.8,721.3 181.8,721.3 197.3,721.3 	"/>
	<line class="st0" x1="181.8" y1="528.2" x2="181.8" y2="528.2"/>
	<line class="st0" x1="197.3" y1="528.2" x2="181.8" y2="528.2"/>
	<line class="st0" x1="166.4" y1="543.8" x2="166.4" y2="543.8"/>
	<line class="st0" x1="166.4" y1="578.9" x2="166.4" y2="543.8"/>
	<line class="st0" x1="483.1" y1="543.8" x2="483.1" y2="543.8"/>
	<polyline class="st0" points="483.1,706 483.1,706 483.1,543.8 	"/>
	<path class="st0" d="M483.1,706h-0.2c-21,0-42.1,0-63.1,0h-6.4"/>
	<path class="st0" d="M413.4,543.8h6.4c21,0,42.1,0,63.1,0h0.2"/>
	<line class="st0" x1="413.4" y1="706" x2="413.4" y2="543.8"/>
	<line class="st0" x1="197.3" y1="543.8" x2="177.4" y2="543.8"/>
	<polyline class="st0" points="177.4,706 197.3,706 197.3,543.8 	"/>
	<line class="st0" x1="127.7" y1="604.4" x2="127.7" y2="645.3"/>
	<line class="st0" x1="127.7" y1="604.4" x2="127.7" y2="604.4"/>
	<line class="st0" x1="413.4" y1="543.8" x2="197.3" y2="543.8"/>
	<line class="st0" x1="197.3" y1="706" x2="413.4" y2="706"/>
	<path class="st0" d="M137.5,590l-1,0.5c-4.9,2.1-8.5,7.5-8.7,12.8l-0.2,1.1"/>
	<path class="st0" d="M127.7,645.3l0.2,1c0.1,5.4,3.8,10.5,8.7,12.9l1,0.3l-1-0.3c-4.8-2.4-8.5-7.5-8.7-12.9L127.7,645.3"/>
	<path class="st0" d="M166.4,706v1.3c0.6,7.4,6.6,13.3,14.1,14.1h1.3h-1.3c-7.5-0.7-13.4-6.6-14.1-14.1V706"/>
	<line class="st0" x1="467.6" y1="721.3" x2="467.6" y2="721.3"/>
	<path class="st0" d="M483.1,706l-0.2,1.3c-0.6,7.4-6.4,13.2-13.9,14.1h-1.5"/>
	<path class="st0" d="M467.6,528.2L467.6,528.2h1.5c7.6,1.2,13.1,6.3,13.9,14.1l0.2,1.5"/>
	<path class="st0" d="M181.8,528.2h-1.3c-7.3,0.7-13.6,6.7-14.1,14.1v1.5"/>
	<path class="st0" d="M181.8,528.2h-1.3c-7.3,0.7-13.6,6.7-14.1,14.1v1.5"/>
	<line class="st0" x1="413.4" y1="528.2" x2="197.3" y2="528.2"/>
	<path class="st0" d="M467.6,721.3h-0.2c-14.6,0-29.2,0-43.8,0h-10.1"/>
	<path class="st0" d="M413.4,706v2.8c0,4.1,0,8.3,0,12.4v0.2"/>
	<path class="st0" d="M413.4,528.2h10.1c14.6,0,29.2,0,43.8,0h0.2"/>
	<path class="st0" d="M413.4,528.2v0.3c0,4.1,0,8.2,0,12.3v2.9"/>
	<path class="st0" d="M177.4,588.9l-6.4,2l-6,2c-7.8,2.3-15.6,4.9-23.4,7.2l-2,0.7l-1.8,0.5c-3,1.2-6.5,1.9-9.5,3.1h-0.5l-0.2,0.2"
		/>
	<path class="st0" d="M137.5,590l-1,0.5c-4.9,2.1-8.5,7.5-8.7,12.8l-0.2,1.1"/>
	<path class="st0" d="M166.4,578.9v0.7c0.7,0.9,1.4,2,2.3,2.8l0.7,0.7l0.8,0.5c1.5,1.5,3.4,3,5.2,4.1l2,1.3"/>
	<path class="st0" d="M166.4,578.4l-2.6,1l-2.6,1.1c-4.9,1.8-9.5,3.9-14.6,5.7l-1.3,0.7l-1.5,0.5c-2,0.9-4,1.6-6,2.5l-0.2,0.2h-0.2"
		/>
	<path class="st0" d="M137.5,659.5l0.2,0.2h0.2l0.5,0.3l0.8,0.2l0.7,0.3l0.8,0.3l1,0.5l1.1,0.3l1.1,0.5l1.5,0.5l1.3,0.7
		c4.9,1.8,9.7,3.9,14.6,5.9l5.2,2"/>
	<path class="st0" d="M177.4,660.7l-2,1.3c-1.5,0.9-3.9,2.9-5.2,4.1l-0.8,0.5l-0.7,0.7l-0.5,0.7l-1,1l-0.3,0.5l-0.2,0.3l-0.3,0.3
		v0.7"/>
	<path class="st0" d="M127.7,645.3h0.2c14.4,4.4,28.8,9,43.2,13.4l6.4,2"/>
	<path class="st0" d="M166.4,706h0.2c2.9,0,5.8,0,8.7,0h2.1v-45.3"/>
	<path class="st0" d="M197.3,721.3v-0.2c0-4.1,0-8.3,0-12.4V706"/>
	<path class="st0" d="M177.4,706v2.8c0.3,2.9,0.9,11.2,4.1,12.6h0.3"/>
	<path class="st0" d="M197.3,543.8v-2.9c0-4.1,0-8.2,0-12.3v-0.3"/>
	<path class="st0" d="M177.4,543.8v-2.9c0.5-3.5,0.6-10.4,4.1-12.6h0.3"/>
	<path class="st0" d="M177.4,588.9v-45.1h-2.1c-2.9,0-5.8,0-8.7,0h-0.2"/>
	<line class="st0" x1="197.3" y1="721.3" x2="413.4" y2="721.3"/>
	<line class="st0" x1="374.9" y1="721.3" x2="374.9" y2="721.3"/>
	<line class="st0" x1="374.9" y1="528.2" x2="374.9" y2="721.3"/>
	<line class="st0" x1="374.9" y1="528.2" x2="374.9" y2="528.2"/>
	<line class="st0" x1="467.6" y1="721.3" x2="374.9" y2="721.3"/>
	<line class="st0" x1="374.9" y1="528.2" x2="467.6" y2="528.2"/>
	<path class="st0" d="M483.1,543.8V706l-0.2,1.3c-0.6,7.4-6.4,13.2-13.9,14.1h-1.5"/>
	<path class="st0" d="M467.6,528.2h1.5c7.6,1.2,13.1,6.3,13.9,14.1l0.2,1.5"/>
	<polyline class="st0" points="374.9,721.3 374.9,528.2 181.8,528.2 	"/>
	<polygon class="st1" points="537,721.3 539,713.6 535.1,713.6 	"/>
	<polygon class="st0" points="537,721.3 539,713.6 535.1,713.6 	"/>
	<polygon class="st1" points="537,528.2 535.1,535.9 539,535.9 	"/>
	<polygon class="st0" points="537,528.2 535.1,535.9 539,535.9 	"/>
	<g>
		<path d="M533.7,636.3h1.3v7.5c-0.3,0-0.7,0-1-0.2c-0.5-0.2-1-0.5-1.5-0.9c-0.5-0.4-1.1-1-1.7-1.8c-1-1.2-1.8-2.1-2.4-2.5
			c-0.6-0.4-1.2-0.7-1.7-0.7c-0.6,0-1,0.2-1.4,0.6c-0.4,0.4-0.6,0.9-0.6,1.6c0,0.7,0.2,1.2,0.6,1.6c0.4,0.4,1,0.6,1.7,0.6l-0.1,1.4
			c-1.1-0.1-1.9-0.5-2.5-1.1s-0.8-1.5-0.8-2.6c0-1.1,0.3-2,0.9-2.6s1.4-1,2.3-1c0.5,0,0.9,0.1,1.3,0.3c0.4,0.2,0.9,0.5,1.4,0.9
			c0.5,0.4,1.2,1.2,2,2.2c0.7,0.8,1.2,1.4,1.4,1.6c0.3,0.2,0.5,0.4,0.8,0.6V636.3z"/>
		<path d="M532.1,634.7l-0.1-1.5c0.7-0.1,1.3-0.4,1.6-0.8c0.4-0.4,0.5-0.9,0.5-1.4c0-0.7-0.3-1.2-0.8-1.7c-0.5-0.5-1.2-0.7-2-0.7
			c-0.8,0-1.4,0.2-1.9,0.7c-0.5,0.4-0.7,1-0.7,1.8c0,0.5,0.1,0.9,0.3,1.2s0.5,0.6,0.8,0.9l-0.2,1.3l-5.9-1.1v-5.7h1.3v4.6l3.1,0.6
			c-0.5-0.7-0.7-1.4-0.7-2.2c0-1,0.3-1.8,1-2.5c0.7-0.7,1.6-1,2.7-1c1,0,1.9,0.3,2.7,0.9c0.9,0.7,1.4,1.7,1.4,3c0,1-0.3,1.9-0.9,2.5
			C533.8,634.2,533.1,634.6,532.1,634.7z"/>
		<path d="M535.1,625h-1.6v-1.6h1.6V625z"/>
		<path d="M529.5,621.4c-1.4,0-2.4-0.1-3.3-0.4c-0.8-0.3-1.5-0.7-1.9-1.2c-0.4-0.5-0.7-1.2-0.7-2.1c0-0.6,0.1-1.2,0.4-1.6
			c0.2-0.5,0.6-0.8,1.1-1.1c0.5-0.3,1-0.5,1.7-0.7c0.7-0.2,1.6-0.3,2.7-0.3c1.3,0,2.4,0.1,3.2,0.4c0.8,0.3,1.5,0.7,1.9,1.2
			c0.4,0.5,0.7,1.2,0.7,2.1c0,1.1-0.4,2-1.2,2.6C533.1,621,531.6,621.4,529.5,621.4z M529.5,620c1.9,0,3.1-0.2,3.7-0.7
			c0.6-0.4,0.9-1,0.9-1.6c0-0.6-0.3-1.2-0.9-1.6s-1.9-0.7-3.7-0.7c-1.9,0-3.1,0.2-3.7,0.7c-0.6,0.4-0.9,1-0.9,1.6
			c0,0.6,0.3,1.2,0.8,1.5C526.3,619.7,527.6,620,529.5,620z"/>
		<path d="M529.5,612.4c-1.4,0-2.4-0.1-3.3-0.4c-0.8-0.3-1.5-0.7-1.9-1.2c-0.4-0.5-0.7-1.2-0.7-2.1c0-0.6,0.1-1.2,0.4-1.6
			c0.2-0.5,0.6-0.8,1.1-1.1c0.5-0.3,1-0.5,1.7-0.7c0.7-0.2,1.6-0.3,2.7-0.3c1.3,0,2.4,0.1,3.2,0.4c0.8,0.3,1.5,0.7,1.9,1.2
			c0.4,0.5,0.7,1.2,0.7,2.1c0,1.1-0.4,2-1.2,2.6C533.1,612,531.6,612.4,529.5,612.4z M529.5,611c1.9,0,3.1-0.2,3.7-0.7
			c0.6-0.4,0.9-1,0.9-1.6c0-0.6-0.3-1.2-0.9-1.6s-1.9-0.7-3.7-0.7c-1.9,0-3.1,0.2-3.7,0.7c-0.6,0.4-0.9,1-0.9,1.6
			c0,0.6,0.3,1.2,0.8,1.5C526.3,610.7,527.6,611,529.5,611z"/>
	</g>
	<polygon class="st1" points="166.4,493.4 174.1,495.4 174.1,491.6 	"/>
	<polygon class="st0" points="166.4,493.4 174.1,495.4 174.1,491.6 	"/>
	<polygon class="st1" points="483.1,493.4 475.2,491.6 475.2,495.4 	"/>
	<polygon class="st0" points="483.1,493.4 475.2,491.6 475.2,495.4 	"/>
	<g>
		<path d="M310.2,491.6v-2.7h-5v-1.3l5.2-7.4h1.1v7.4h1.5v1.3h-1.5v2.7H310.2z M310.2,487.6v-5.1l-3.6,5.1H310.2z"/>
		<path d="M319.8,491.6h-1.4v-8.9c-0.3,0.3-0.8,0.6-1.3,1s-1,0.6-1.5,0.7V483c0.8-0.4,1.5-0.8,2.1-1.3s1-1,1.2-1.5h0.9V491.6z"/>
		<path d="M324.3,491.6V490h1.6v1.6H324.3z"/>
		<path d="M328,486c0-1.4,0.1-2.4,0.4-3.3c0.3-0.8,0.7-1.5,1.2-1.9c0.5-0.4,1.2-0.7,2.1-0.7c0.6,0,1.2,0.1,1.6,0.4
			c0.5,0.2,0.8,0.6,1.1,1.1c0.3,0.5,0.5,1,0.7,1.7c0.2,0.7,0.3,1.6,0.3,2.7c0,1.3-0.1,2.4-0.4,3.2c-0.3,0.8-0.7,1.5-1.2,1.9
			c-0.5,0.4-1.2,0.7-2.1,0.7c-1.1,0-2-0.4-2.6-1.2C328.3,489.7,328,488.1,328,486z M329.4,486c0,1.9,0.2,3.1,0.7,3.7
			c0.4,0.6,1,0.9,1.6,0.9c0.6,0,1.2-0.3,1.6-0.9s0.7-1.9,0.7-3.7c0-1.9-0.2-3.1-0.7-3.7c-0.4-0.6-1-0.9-1.6-0.9
			c-0.6,0-1.2,0.3-1.5,0.8C329.6,482.8,329.4,484.1,329.4,486z"/>
		<path d="M336.9,486c0-1.4,0.1-2.4,0.4-3.3c0.3-0.8,0.7-1.5,1.2-1.9c0.5-0.4,1.2-0.7,2.1-0.7c0.6,0,1.2,0.1,1.6,0.4
			c0.5,0.2,0.8,0.6,1.1,1.1c0.3,0.5,0.5,1,0.7,1.7c0.2,0.7,0.3,1.6,0.3,2.7c0,1.3-0.1,2.4-0.4,3.2c-0.3,0.8-0.7,1.5-1.2,1.9
			c-0.5,0.4-1.2,0.7-2.1,0.7c-1.1,0-2-0.4-2.6-1.2C337.3,489.7,336.9,488.1,336.9,486z M338.4,486c0,1.9,0.2,3.1,0.7,3.7
			c0.4,0.6,1,0.9,1.6,0.9c0.6,0,1.2-0.3,1.6-0.9s0.7-1.9,0.7-3.7c0-1.9-0.2-3.1-0.7-3.7c-0.4-0.6-1-0.9-1.6-0.9
			c-0.6,0-1.2,0.3-1.5,0.8C338.6,482.8,338.4,484.1,338.4,486z"/>
	</g>
	<polygon class="st1" points="127.7,470.4 135.5,472.3 135.5,468.4 	"/>
	<polygon class="st0" points="127.7,470.4 135.5,472.3 135.5,468.4 	"/>
	<polygon class="st1" points="483.1,470.4 475.2,468.4 475.2,472.3 	"/>
	<polygon class="st0" points="483.1,470.4 475.2,468.4 475.2,472.3 	"/>
	<g>
		<path d="M290.9,468.4v-2.7h-5v-1.3l5.2-7.4h1.1v7.4h1.5v1.3h-1.5v2.7H290.9z M290.9,464.4v-5.1l-3.6,5.1H290.9z"/>
		<path d="M302.5,459.8l-1.4,0.1c-0.1-0.6-0.3-1-0.5-1.2c-0.4-0.4-0.8-0.6-1.4-0.6c-0.4,0-0.8,0.1-1.2,0.4c-0.4,0.3-0.8,0.8-1,1.4
			c-0.3,0.6-0.4,1.5-0.4,2.6c0.3-0.5,0.7-0.9,1.2-1.1s1-0.4,1.5-0.4c0.9,0,1.7,0.3,2.4,1s1,1.6,1,2.7c0,0.7-0.2,1.4-0.5,2
			s-0.7,1.1-1.3,1.4c-0.5,0.3-1.2,0.5-1.8,0.5c-1.2,0-2.1-0.4-2.9-1.3s-1.1-2.3-1.1-4.2c0-2.2,0.4-3.8,1.2-4.8
			c0.7-0.9,1.7-1.3,2.9-1.3c0.9,0,1.6,0.3,2.2,0.8C302.1,458.2,302.4,458.9,302.5,459.8z M296.8,464.7c0,0.5,0.1,0.9,0.3,1.4
			c0.2,0.4,0.5,0.8,0.9,1c0.4,0.2,0.8,0.3,1.2,0.3c0.6,0,1.1-0.2,1.5-0.7s0.6-1.1,0.6-1.9c0-0.8-0.2-1.4-0.6-1.9
			c-0.4-0.5-1-0.7-1.6-0.7c-0.6,0-1.2,0.2-1.6,0.7S296.8,464,296.8,464.7z"/>
		<path d="M305,468.4v-1.6h1.6v1.6H305z"/>
		<path d="M308.7,462.8c0-1.4,0.1-2.4,0.4-3.3c0.3-0.8,0.7-1.5,1.2-1.9c0.5-0.4,1.2-0.7,2.1-0.7c0.6,0,1.2,0.1,1.6,0.4
			c0.5,0.2,0.8,0.6,1.1,1.1c0.3,0.5,0.5,1,0.7,1.7c0.2,0.7,0.3,1.6,0.3,2.7c0,1.3-0.1,2.4-0.4,3.2c-0.3,0.8-0.7,1.5-1.2,1.9
			c-0.5,0.4-1.2,0.7-2.1,0.7c-1.1,0-2-0.4-2.6-1.2C309,466.5,308.7,464.9,308.7,462.8z M310.1,462.8c0,1.9,0.2,3.1,0.7,3.7
			c0.4,0.6,1,0.9,1.6,0.9c0.6,0,1.2-0.3,1.6-0.9s0.7-1.9,0.7-3.7c0-1.9-0.2-3.1-0.7-3.7c-0.4-0.6-1-0.9-1.6-0.9
			c-0.6,0-1.2,0.3-1.5,0.8C310.3,459.6,310.1,460.9,310.1,462.8z"/>
		<path d="M317.6,462.8c0-1.4,0.1-2.4,0.4-3.3c0.3-0.8,0.7-1.5,1.2-1.9c0.5-0.4,1.2-0.7,2.1-0.7c0.6,0,1.2,0.1,1.6,0.4
			c0.5,0.2,0.8,0.6,1.1,1.1c0.3,0.5,0.5,1,0.7,1.7c0.2,0.7,0.3,1.6,0.3,2.7c0,1.3-0.1,2.4-0.4,3.2c-0.3,0.8-0.7,1.5-1.2,1.9
			c-0.5,0.4-1.2,0.7-2.1,0.7c-1.1,0-2-0.4-2.6-1.2C318,466.5,317.6,464.9,317.6,462.8z M319.1,462.8c0,1.9,0.2,3.1,0.7,3.7
			c0.4,0.6,1,0.9,1.6,0.9c0.6,0,1.2-0.3,1.6-0.9s0.7-1.9,0.7-3.7c0-1.9-0.2-3.1-0.7-3.7c-0.4-0.6-1-0.9-1.6-0.9
			c-0.6,0-1.2,0.3-1.5,0.8C319.3,459.6,319.1,460.9,319.1,462.8z"/>
	</g>
	<polygon class="st1" points="83.4,659.5 85.3,651.8 81.4,651.8 	"/>
	<polygon class="st0" points="83.4,659.5 85.3,651.8 81.4,651.8 	"/>
	<polygon class="st1" points="83.4,590 81.4,597.7 85.3,597.7 	"/>
	<polygon class="st0" points="83.4,590 81.4,597.7 85.3,597.7 	"/>
	<g>
		<path d="M78.8,637.7l-0.1-1.3c0.6-0.1,1.1-0.3,1.4-0.7s0.4-0.7,0.4-1.2c0-0.4-0.1-0.8-0.3-1.1c-0.2-0.3-0.5-0.6-0.8-0.8
			s-0.8-0.4-1.3-0.5c-0.6-0.1-1.1-0.2-1.7-0.2c-0.1,0-0.2,0-0.3,0c0.4,0.3,0.8,0.7,1.1,1.1c0.3,0.5,0.4,1,0.4,1.6
			c0,0.9-0.3,1.7-1,2.4c-0.7,0.7-1.6,1-2.7,1c-1.2,0-2.1-0.3-2.8-1c-0.7-0.7-1.1-1.5-1.1-2.6c0-0.7,0.2-1.4,0.6-2s1-1.1,1.7-1.4
			c0.7-0.3,1.8-0.5,3.2-0.5c1.5,0,2.6,0.2,3.5,0.5c0.9,0.3,1.5,0.8,2,1.4c0.5,0.6,0.7,1.4,0.7,2.2c0,0.9-0.2,1.6-0.7,2.2
			C80.3,637.3,79.7,637.6,78.8,637.7z M73.7,632c-0.8,0-1.4,0.2-1.9,0.6c-0.5,0.4-0.7,0.9-0.7,1.5c0,0.6,0.3,1.2,0.8,1.6
			s1.2,0.7,2,0.7c0.7,0,1.3-0.2,1.8-0.7c0.5-0.4,0.7-1,0.7-1.6c0-0.6-0.2-1.2-0.7-1.6C75.1,632.2,74.5,632,73.7,632z"/>
		<path d="M81.4,628.3h-1.6v-1.6h1.6V628.3z"/>
		<path d="M75.8,624.5c-1.4,0-2.4-0.1-3.3-0.4c-0.8-0.3-1.5-0.7-1.9-1.2c-0.4-0.5-0.7-1.2-0.7-2.1c0-0.6,0.1-1.2,0.4-1.6
			c0.2-0.5,0.6-0.8,1.1-1.1c0.5-0.3,1-0.5,1.7-0.7c0.7-0.2,1.6-0.3,2.7-0.3c1.3,0,2.4,0.1,3.2,0.4c0.8,0.3,1.5,0.7,1.9,1.2
			s0.7,1.2,0.7,2.1c0,1.1-0.4,2-1.2,2.6C79.5,624.1,77.9,624.5,75.8,624.5z M75.8,623.1c1.9,0,3.1-0.2,3.7-0.7
			c0.6-0.4,0.9-1,0.9-1.6c0-0.6-0.3-1.2-0.9-1.6s-1.9-0.7-3.7-0.7c-1.9,0-3.1,0.2-3.7,0.7c-0.6,0.4-0.9,1-0.9,1.6
			c0,0.6,0.3,1.2,0.8,1.5C72.6,622.8,73.9,623.1,75.8,623.1z"/>
		<path d="M75.8,615.7c-1.4,0-2.4-0.1-3.3-0.4c-0.8-0.3-1.5-0.7-1.9-1.2c-0.4-0.5-0.7-1.2-0.7-2.1c0-0.6,0.1-1.2,0.4-1.6
			c0.2-0.5,0.6-0.8,1.1-1.1c0.5-0.3,1-0.5,1.7-0.7c0.7-0.2,1.6-0.3,2.7-0.3c1.3,0,2.4,0.1,3.2,0.4c0.8,0.3,1.5,0.7,1.9,1.2
			s0.7,1.2,0.7,2.1c0,1.1-0.4,2-1.2,2.6C79.5,615.3,77.9,615.7,75.8,615.7z M75.8,614.2c1.9,0,3.1-0.2,3.7-0.7
			c0.6-0.4,0.9-1,0.9-1.6c0-0.6-0.3-1.2-0.9-1.6s-1.9-0.7-3.7-0.7c-1.9,0-3.1,0.2-3.7,0.7c-0.6,0.4-0.9,1-0.9,1.6
			c0,0.6,0.3,1.2,0.8,1.5C72.6,614,73.9,614.2,75.8,614.2z"/>
	</g>
	<line class="st0" x1="502.4" y1="528.2" x2="541" y2="528.2"/>
	<line class="st0" x1="502.4" y1="721.3" x2="541" y2="721.3"/>
	<line class="st0" x1="537" y1="721.3" x2="537" y2="528.2"/>
	<line class="st0" x1="166.4" y1="516.6" x2="166.4" y2="489.7"/>
	<line class="st0" x1="483.1" y1="516.6" x2="483.1" y2="489.7"/>
	<line class="st0" x1="166.4" y1="493.4" x2="483.1" y2="493.4"/>
	<line class="st0" x1="127.7" y1="516.6" x2="127.7" y2="466.6"/>
	<line class="st0" x1="483.1" y1="512.9" x2="483.1" y2="466.6"/>
	<line class="st0" x1="127.7" y1="470.4" x2="483.1" y2="470.4"/>
	<line class="st0" x1="110.3" y1="590" x2="79.4" y2="590"/>
	<line class="st0" x1="110.3" y1="659.5" x2="79.4" y2="659.5"/>
	<line class="st0" x1="83.4" y1="659.5" x2="83.4" y2="590"/>
</g>
<g id="Layer_2">
	<line class="st0" x1="166.8" y1="340.8" x2="137.9" y2="340.8"/>
	<line class="st0" x1="166.8" y1="340.8" x2="166.8" y2="130.7"/>
	<line class="st0" x1="166.8" y1="340.8" x2="166.8" y2="130.7"/>
	<line class="st0" x1="166.8" y1="340.8" x2="166.8" y2="340.8"/>
	<line class="st0" x1="128.3" y1="340.8" x2="128.3" y2="340.8"/>
	<line class="st0" x1="137.9" y1="340.8" x2="166.8" y2="340.8"/>
	<line class="st0" x1="182.2" y1="340.8" x2="375.3" y2="340.8"/>
	<line class="st0" x1="166.8" y1="340.8" x2="166.8" y2="340.8"/>
	<path class="st0" d="M166.8,130.7v-0.2c0-1.2,0-2.4,0-3.6v-0.2v0.2c0,1.2,0,2.4,0,3.6V130.7"/>
	<line class="st0" x1="137.9" y1="178.6" x2="137.9" y2="340.8"/>
	<line class="st0" x1="137.9" y1="178.6" x2="137.9" y2="340.8"/>
	<line class="st0" x1="166.8" y1="126.8" x2="166.8" y2="340.8"/>
	<line class="st0" x1="166.8" y1="126.8" x2="166.8" y2="126.8"/>
	<line class="st0" x1="182.2" y1="126.8" x2="182.2" y2="340.8"/>
	<path class="st0" d="M182.2,126.8l1.5-0.5c4.2-1,7.8-1.6,12.1-1.8h2"/>
	<line class="st0" x1="182.2" y1="126.8" x2="182.2" y2="340.8"/>
	<polyline class="st0" points="197.7,124.5 191.2,124.8 184.7,126.1 183.5,126.4 182.2,126.8 	"/>
	<line class="st0" x1="166.8" y1="126.8" x2="166.8" y2="340.8"/>
	<line class="st0" x1="166.8" y1="126.8" x2="166.8" y2="126.8"/>
	<line class="st0" x1="483.5" y1="178.6" x2="483.5" y2="329.2"/>
	<line class="st0" x1="483.5" y1="178.6" x2="483.5" y2="329.2"/>
	<path class="st0" d="M483.5,178.6L483.5,178.6l-0.2-3.1c-1.3-35.8-30.5-64.9-66.2-66.4H414h3.1c35.7,1.5,65,30.6,66.2,66.4
		L483.5,178.6"/>
	<line class="st0" x1="414" y1="109.1" x2="414" y2="109.1"/>
	<path class="st0" d="M197.7,109.1h-2.5c-4.9,0.3-10.2,0.7-14.9,2.1l-2.6,0.7l2.6-0.7c4.7-1.4,10-1.9,14.9-2.1H197.7"/>
	<line class="st0" x1="128.3" y1="178.6" x2="128.3" y2="340.8"/>
	<line class="st0" x1="128.3" y1="178.6" x2="128.3" y2="340.8"/>
	<polyline class="st0" points="414,109.1 197.7,109.1 414,109.1 	"/>
	<path class="st0" d="M137.9,340.8h-2c-2.5,0-5,0-7.5,0h-0.2h0.2c2.5,0,5,0,7.5,0H137.9"/>
	<path class="st0" d="M137.9,178.6h-2c-2.5,0-5,0-7.5,0h-0.2"/>
	<path class="st0" d="M166.8,340.8h0.2c4.1,0,8.3,0,12.4,0h2.8"/>
	<path class="st0" d="M182.2,126.8h-2.8c-4.1,0-8.3,0-12.4,0h-0.2"/>
	<line class="st0" x1="468" y1="178.6" x2="468" y2="329.2"/>
	<path class="st0" d="M483.5,178.6h-0.3c-4.1,0-8.2,0-12.3,0H468v150.6"/>
	<path class="st0" d="M468,178.6h2.9c4.1,0,8.2,0,12.3,0h0.3"/>
	<path class="st0" d="M182.2,340.8h-2.8c-4.1,0-8.3,0-12.4,0h-0.2"/>
	<path class="st0" d="M182.2,126.8h-2.8c-4.1,0-8.3,0-12.4,0h-0.2"/>
	<line class="st0" x1="414" y1="124.5" x2="197.7" y2="124.5"/>
	<path class="st0" d="M468,178.6V176c-1.4-28-23.5-50-51.5-51.5H414"/>
	<path class="st0" d="M414,109.1v0.2c0,4.1,0,8.3,0,12.4v2.8h2.5c28,1.5,50.1,23.5,51.5,51.5v2.6"/>
	<path class="st0" d="M414,124.5v-2.8c0-4.1,0-8.3,0-12.4v-0.2"/>
	<path class="st0" d="M177.8,111.9l-3.1,1.1c-27.4,9.3-46.6,36.1-46.4,65.1v0.5"/>
	<path class="st0" d="M137.9,178.6h-2c-2.5,0-5,0-7.5,0h-0.2"/>
	<path class="st0" d="M166.8,126.8v-1.1c0.6-6.2,4.3-11,10-13.4l1-0.3"/>
	<path class="st0" d="M166.8,130.7l-2.6,1.5c-16.4,10-26,26.9-26.3,46.1v0.3v-0.3c0.3-19.2,9.9-36.1,26.3-46.1L166.8,130.7"/>
	<path class="st0" d="M177.8,111.9l-1,0.3c-5.7,2.4-9.4,7.2-10,13.4v1.1"/>
	<path class="st0" d="M128.3,178.6v-0.5c-0.1-28.9,19-55.8,46.4-65.1l3.1-1.1"/>
	<path class="st0" d="M166.8,126.8v-1.1c0.1-5.6,4.8-11.6,10-13.2l1-0.5"/>
	<path class="st0" d="M197.7,124.5v-2.8c0-4.1,0-8.3,0-12.4v-0.2"/>
	<polyline class="st0" points="177.8,111.9 178,112.1 178,112.5 178.3,113.5 178.6,114.3 178.8,115.3 179.1,116.3 179.4,117.4 
		179.9,118.6 180.6,121.2 182.2,126.8 	"/>
	<path class="st0" d="M197.7,109.1v0.2c0,4.1,0,8.3,0,12.4v2.8"/>
	<polyline class="st0" points="177.8,111.9 178,112.1 178,112.5 178.3,113.5 178.6,114.3 178.8,115.3 179.1,116.3 179.4,117.4 
		179.9,118.6 180.6,121.2 182.2,126.8 	"/>
	<path class="st0" d="M177.8,111.9l-1,0.5c-5.2,1.6-9.8,7.7-10,13.2v1.1"/>
	<line class="st0" x1="197.7" y1="124.5" x2="414" y2="124.5"/>
	<polyline class="st0" points="375.3,329.2 375.3,340.8 375.3,329.2 	"/>
	<polyline class="st0" points="468,329.2 375.3,329.2 468,329.2 	"/>
	<path class="st0" d="M483.5,329.2L483.5,329.2h-0.3c-4.1,0-8.2,0-12.3,0H468h2.9c4.1,0,8.2,0,12.3,0H483.5"/>
	<line class="st0" x1="375.3" y1="329.2" x2="375.3" y2="329.2"/>
	<line class="st0" x1="375.3" y1="340.8" x2="182.2" y2="340.8"/>
	<polygon class="st1" points="375.3,375.4 383.1,377.4 383.1,373.6 	"/>
	<polygon class="st0" points="375.3,375.4 383.1,377.4 383.1,373.6 	"/>
	<polygon class="st1" points="483.5,375.4 475.8,373.6 475.8,377.4 	"/>
	<polygon class="st0" points="483.5,375.4 475.8,373.6 475.8,377.4 	"/>
	<g>
		<path d="M416.6,373.6h-1.4v-8.9c-0.3,0.3-0.8,0.6-1.3,1s-1,0.6-1.5,0.7V365c0.8-0.4,1.5-0.8,2.1-1.3s1-1,1.2-1.5h0.9V373.6z"/>
		<path d="M424.6,373.6v-2.7h-5v-1.3l5.2-7.4h1.1v7.4h1.5v1.3H426v2.7H424.6z M424.6,369.6v-5.1l-3.6,5.1H424.6z"/>
		<path d="M429.9,373.6V372h1.6v1.6H429.9z"/>
		<path d="M433.5,368c0-1.4,0.1-2.4,0.4-3.3c0.3-0.8,0.7-1.5,1.2-1.9c0.5-0.4,1.2-0.7,2.1-0.7c0.6,0,1.2,0.1,1.6,0.4
			c0.5,0.2,0.8,0.6,1.1,1.1c0.3,0.5,0.5,1,0.7,1.7c0.2,0.7,0.3,1.6,0.3,2.7c0,1.3-0.1,2.4-0.4,3.2c-0.3,0.8-0.7,1.5-1.2,1.9
			s-1.2,0.7-2.1,0.7c-1.1,0-2-0.4-2.6-1.2C433.9,371.7,433.5,370.2,433.5,368z M435,368c0,1.9,0.2,3.1,0.7,3.7
			c0.4,0.6,1,0.9,1.6,0.9c0.6,0,1.2-0.3,1.6-0.9s0.7-1.9,0.7-3.7c0-1.9-0.2-3.1-0.7-3.7c-0.4-0.6-1-0.9-1.6-0.9
			c-0.6,0-1.2,0.3-1.5,0.8C435.2,364.8,435,366.1,435,368z"/>
		<path d="M442.5,368c0-1.4,0.1-2.4,0.4-3.3c0.3-0.8,0.7-1.5,1.2-1.9c0.5-0.4,1.2-0.7,2.1-0.7c0.6,0,1.2,0.1,1.6,0.4
			c0.5,0.2,0.8,0.6,1.1,1.1c0.3,0.5,0.5,1,0.7,1.7c0.2,0.7,0.3,1.6,0.3,2.7c0,1.3-0.1,2.4-0.4,3.2c-0.3,0.8-0.7,1.5-1.2,1.9
			s-1.2,0.7-2.1,0.7c-1.1,0-2-0.4-2.6-1.2C442.9,371.7,442.5,370.2,442.5,368z M443.9,368c0,1.9,0.2,3.1,0.7,3.7
			c0.4,0.6,1,0.9,1.6,0.9c0.6,0,1.2-0.3,1.6-0.9s0.7-1.9,0.7-3.7c0-1.9-0.2-3.1-0.7-3.7c-0.4-0.6-1-0.9-1.6-0.9
			c-0.6,0-1.2,0.3-1.5,0.8C444.2,364.8,443.9,366.1,443.9,368z"/>
	</g>
	<polygon class="st1" points="66.5,340.8 68.4,333.1 64.5,333.1 	"/>
	<polygon class="st0" points="66.5,340.8 68.4,333.1 64.5,333.1 	"/>
	<polygon class="st1" points="66.5,109.1 64.5,116.8 68.4,116.8 	"/>
	<polygon class="st0" points="66.5,109.1 64.5,116.8 68.4,116.8 	"/>
	<g>
		<path d="M61.5,243.6l-0.2-1.4c0.8-0.2,1.4-0.4,1.7-0.8s0.5-0.9,0.5-1.4c0-0.7-0.2-1.2-0.7-1.7c-0.5-0.5-1-0.7-1.7-0.7
			c-0.6,0-1.2,0.2-1.6,0.6c-0.4,0.4-0.6,1-0.6,1.6c0,0.3,0.1,0.6,0.2,1l-1.2-0.2c0-0.1,0-0.2,0-0.2c0-0.6-0.2-1.1-0.5-1.6
			s-0.8-0.7-1.4-0.7c-0.5,0-0.9,0.2-1.3,0.5c-0.3,0.3-0.5,0.8-0.5,1.3c0,0.5,0.2,1,0.5,1.4c0.3,0.4,0.9,0.6,1.5,0.7l-0.2,1.4
			c-0.9-0.2-1.7-0.6-2.2-1.2c-0.5-0.6-0.8-1.4-0.8-2.3c0-0.6,0.1-1.2,0.4-1.7c0.3-0.5,0.6-0.9,1.1-1.2c0.5-0.3,1-0.4,1.5-0.4
			c0.5,0,0.9,0.1,1.3,0.4c0.4,0.3,0.7,0.7,1,1.2c0.2-0.7,0.5-1.2,1-1.6c0.5-0.4,1.1-0.6,1.8-0.6c1,0,1.8,0.4,2.5,1.1
			c0.7,0.7,1,1.6,1,2.8c0,1-0.3,1.8-0.9,2.5C63.2,243.2,62.4,243.6,61.5,243.6z"/>
		<path d="M58.9,234.7c-1.4,0-2.4-0.1-3.3-0.4c-0.8-0.3-1.5-0.7-1.9-1.2c-0.4-0.5-0.7-1.2-0.7-2.1c0-0.6,0.1-1.1,0.4-1.6
			c0.2-0.5,0.6-0.8,1.1-1.1c0.5-0.3,1-0.5,1.7-0.7c0.7-0.2,1.6-0.3,2.7-0.3c1.3,0,2.4,0.1,3.2,0.4c0.8,0.3,1.5,0.7,1.9,1.2
			c0.4,0.5,0.7,1.2,0.7,2.1c0,1.1-0.4,2-1.2,2.6C62.6,234.3,61,234.7,58.9,234.7z M58.9,233.2c1.9,0,3.1-0.2,3.7-0.7
			c0.6-0.4,0.9-1,0.9-1.6c0-0.6-0.3-1.2-0.9-1.6c-0.6-0.4-1.9-0.7-3.7-0.7c-1.9,0-3.1,0.2-3.7,0.7c-0.6,0.4-0.9,1-0.9,1.6
			c0,0.6,0.3,1.2,0.8,1.5C55.7,233,57,233.2,58.9,233.2z"/>
		<path d="M64.5,225h-1.6v-1.6h1.6V225z"/>
		<path d="M58.9,221.3c-1.4,0-2.4-0.1-3.3-0.4c-0.8-0.3-1.5-0.7-1.9-1.2c-0.4-0.5-0.7-1.2-0.7-2.1c0-0.6,0.1-1.1,0.4-1.6
			c0.2-0.5,0.6-0.8,1.1-1.1c0.5-0.3,1-0.5,1.7-0.7c0.7-0.2,1.6-0.3,2.7-0.3c1.3,0,2.4,0.1,3.2,0.4c0.8,0.3,1.5,0.7,1.9,1.2
			c0.4,0.5,0.7,1.2,0.7,2.1c0,1.1-0.4,2-1.2,2.6C62.6,220.9,61,221.3,58.9,221.3z M58.9,219.8c1.9,0,3.1-0.2,3.7-0.7
			c0.6-0.4,0.9-1,0.9-1.6c0-0.6-0.3-1.2-0.9-1.6c-0.6-0.4-1.9-0.7-3.7-0.7c-1.9,0-3.1,0.2-3.7,0.7c-0.6,0.4-0.9,1-0.9,1.6
			c0,0.6,0.3,1.2,0.8,1.5C55.7,219.6,57,219.8,58.9,219.8z"/>
		<path d="M58.9,212.4c-1.4,0-2.4-0.1-3.3-0.4c-0.8-0.3-1.5-0.7-1.9-1.2c-0.4-0.5-0.7-1.2-0.7-2.1c0-0.6,0.1-1.1,0.4-1.6
			c0.2-0.5,0.6-0.8,1.1-1.1c0.5-0.3,1-0.5,1.7-0.7c0.7-0.2,1.6-0.3,2.7-0.3c1.3,0,2.4,0.1,3.2,0.4c0.8,0.3,1.5,0.7,1.9,1.2
			c0.4,0.5,0.7,1.2,0.7,2.1c0,1.1-0.4,2-1.2,2.6C62.6,212,61,212.4,58.9,212.4z M58.9,211c1.9,0,3.1-0.2,3.7-0.7
			c0.6-0.4,0.9-1,0.9-1.6c0-0.6-0.3-1.2-0.9-1.6c-0.6-0.4-1.9-0.7-3.7-0.7c-1.9,0-3.1,0.2-3.7,0.7c-0.6,0.4-0.9,1-0.9,1.6
			c0,0.6,0.3,1.2,0.8,1.5C55.7,210.7,57,211,58.9,211z"/>
	</g>
	<polygon class="st1" points="503.5,340.8 501.6,348.5 505.5,348.5 	"/>
	<polygon class="st0" points="503.5,340.8 501.6,348.5 505.5,348.5 	"/>
	<polygon class="st1" points="503.5,329.2 505.5,321.5 501.6,321.5 	"/>
	<polygon class="st0" points="503.5,329.2 505.5,321.5 501.6,321.5 	"/>
	<g>
		<path d="M526.1,343.5v1.4h-8.9c0.3,0.3,0.6,0.8,1,1.3s0.6,1,0.7,1.5h-1.4c-0.4-0.8-0.8-1.5-1.3-2.1s-1-1-1.5-1.2v-0.9H526.1z"/>
		<path d="M526.1,339h-1.6v-1.6h1.6V339z"/>
		<path d="M523.1,335.4l-0.1-1.5c0.7-0.1,1.3-0.4,1.6-0.8c0.4-0.4,0.5-0.9,0.5-1.4c0-0.7-0.3-1.2-0.8-1.7c-0.5-0.5-1.2-0.7-2-0.7
			c-0.8,0-1.4,0.2-1.9,0.7c-0.5,0.4-0.7,1-0.7,1.8c0,0.5,0.1,0.9,0.3,1.2c0.2,0.4,0.5,0.6,0.8,0.9l-0.2,1.3l-5.9-1.1v-5.7h1.3v4.6
			l3.1,0.6c-0.5-0.7-0.7-1.4-0.7-2.2c0-1,0.3-1.8,1-2.5c0.7-0.7,1.6-1,2.7-1c1,0,1.9,0.3,2.7,0.9c0.9,0.7,1.4,1.7,1.4,3
			c0,1-0.3,1.9-0.9,2.5C524.8,334.9,524.1,335.3,523.1,335.4z"/>
		<path d="M520.5,326.4c-1.4,0-2.4-0.1-3.3-0.4s-1.5-0.7-1.9-1.2c-0.4-0.5-0.7-1.2-0.7-2.1c0-0.6,0.1-1.1,0.4-1.6
			c0.2-0.5,0.6-0.8,1.1-1.1c0.5-0.3,1-0.5,1.7-0.7s1.6-0.3,2.7-0.3c1.3,0,2.4,0.1,3.2,0.4c0.8,0.3,1.5,0.7,1.9,1.2
			c0.4,0.5,0.7,1.2,0.7,2.1c0,1.1-0.4,2-1.2,2.6C524.1,326,522.6,326.4,520.5,326.4z M520.5,324.9c1.9,0,3.1-0.2,3.7-0.7
			c0.6-0.4,0.9-1,0.9-1.6c0-0.6-0.3-1.2-0.9-1.6c-0.6-0.4-1.9-0.7-3.7-0.7c-1.9,0-3.1,0.2-3.7,0.7c-0.6,0.4-0.9,1-0.9,1.6
			c0,0.6,0.3,1.2,0.8,1.5C517.3,324.7,518.6,324.9,520.5,324.9z"/>
	</g>
	<line class="st0" x1="375.3" y1="364" x2="375.3" y2="379.4"/>
	<line class="st0" x1="483.5" y1="364" x2="483.5" y2="379.4"/>
	<line class="st0" x1="375.3" y1="375.4" x2="483.5" y2="375.4"/>
	<line class="st0" x1="101.1" y1="109.1" x2="62.5" y2="109.1"/>
	<line class="st0" x1="101.1" y1="340.8" x2="62.5" y2="340.8"/>
	<line class="st0" x1="66.5" y1="340.8" x2="66.5" y2="109.1"/>
	<line class="st0" x1="491.9" y1="329.2" x2="507.5" y2="329.2"/>
	<line class="st0" x1="491.9" y1="340.8" x2="507.5" y2="340.8"/>
	<line class="st0" x1="503.5" y1="340.8" x2="503.5" y2="352.4"/>
	<line class="st0" x1="503.5" y1="317.6" x2="503.5" y2="329.2"/>
</g>
<g id="Layer_3">
	<g>
		<path d="M64,32.3c0-1.5,0.2-2.8,0.7-3.9c0.3-0.8,0.8-1.5,1.4-2.1s1.2-1.1,1.9-1.4c0.9-0.4,2-0.6,3.2-0.6c2.2,0,4,0.7,5.3,2.1
			s2,3.3,2,5.7c0,2.4-0.7,4.3-2,5.7c-1.3,1.4-3.1,2.1-5.3,2.1c-2.2,0-4-0.7-5.3-2C64.6,36.6,64,34.7,64,32.3z M67.1,32.2
			c0,1.7,0.4,3,1.2,3.9s1.8,1.3,3,1.3s2.2-0.4,3-1.3c0.8-0.9,1.2-2.2,1.2-3.9c0-1.7-0.4-3-1.1-3.9s-1.8-1.3-3-1.3s-2.3,0.4-3,1.3
			S67.1,30.5,67.1,32.2z"/>
		<path d="M80.8,28.9h2.7v1.6c0.3-0.5,0.8-1,1.4-1.3s1.3-0.5,2-0.5c1.3,0,2.3,0.5,3.2,1.5s1.3,2.4,1.3,4.1c0,1.8-0.4,3.2-1.3,4.2
			c-0.9,1-2,1.5-3.2,1.5c-0.6,0-1.1-0.1-1.6-0.4s-1-0.6-1.5-1.2v5.5h-2.9V28.9z M83.7,34.1c0,1.2,0.2,2.1,0.7,2.7
			c0.5,0.6,1.1,0.9,1.8,0.9c0.7,0,1.2-0.3,1.7-0.8c0.4-0.5,0.7-1.4,0.7-2.6c0-1.1-0.2-2-0.7-2.5s-1-0.8-1.7-0.8
			c-0.7,0-1.3,0.3-1.8,0.8C83.9,32.2,83.7,33,83.7,34.1z"/>
		<path d="M100,36.3l2.9,0.5c-0.4,1.1-1,1.9-1.7,2.4c-0.8,0.6-1.8,0.8-3,0.8c-1.9,0-3.3-0.6-4.2-1.9c-0.7-1-1.1-2.2-1.1-3.8
			c0-1.8,0.5-3.2,1.4-4.2s2.1-1.5,3.6-1.5c1.6,0,2.9,0.5,3.8,1.6c0.9,1.1,1.4,2.7,1.3,4.9h-7.2c0,0.9,0.3,1.5,0.7,2
			c0.4,0.5,1,0.7,1.7,0.7c0.5,0,0.8-0.1,1.1-0.4S99.9,36.8,100,36.3z M100.2,33.4c0-0.8-0.2-1.5-0.6-1.9c-0.4-0.4-0.9-0.7-1.5-0.7
			c-0.6,0-1.1,0.2-1.6,0.7s-0.6,1.1-0.6,1.9H100.2z"/>
		<path d="M115.3,39.7h-2.9v-5.6c0-1.2-0.1-1.9-0.2-2.3s-0.3-0.6-0.6-0.8c-0.3-0.2-0.6-0.3-1-0.3c-0.5,0-0.9,0.1-1.3,0.4
			s-0.7,0.6-0.8,1.1c-0.1,0.5-0.2,1.3-0.2,2.5v4.9h-2.9V28.9h2.7v1.6c1-1.2,2.1-1.8,3.6-1.8c0.6,0,1.2,0.1,1.7,0.3s0.9,0.5,1.2,0.9
			s0.5,0.8,0.6,1.2c0.1,0.5,0.2,1.1,0.2,1.9V39.7z"/>
		<path d="M118.3,24.7h5.5c1.3,0,2.2,0.1,2.9,0.3c0.9,0.3,1.6,0.7,2.3,1.4s1.1,1.5,1.4,2.4c0.3,1,0.5,2.1,0.5,3.6
			c0,1.2-0.2,2.3-0.5,3.2c-0.4,1.1-0.9,2-1.6,2.7c-0.5,0.5-1.2,0.9-2.1,1.2c-0.7,0.2-1.6,0.3-2.7,0.3h-5.7V24.7z M121.3,27.3v10h2.3
			c0.8,0,1.5,0,1.8-0.1c0.5-0.1,0.9-0.3,1.2-0.6c0.3-0.3,0.6-0.8,0.8-1.5c0.2-0.7,0.3-1.6,0.3-2.8s-0.1-2.1-0.3-2.7
			s-0.5-1.1-0.9-1.5s-0.8-0.6-1.4-0.7c-0.4-0.1-1.3-0.1-2.5-0.1H121.3z"/>
		<path d="M136.2,39.7h-2.9V28.9h2.7v1.5c0.5-0.7,0.9-1.2,1.2-1.4s0.8-0.3,1.2-0.3c0.7,0,1.3,0.2,1.9,0.5l-0.9,2.5
			c-0.5-0.3-0.9-0.5-1.4-0.5c-0.4,0-0.7,0.1-1,0.3c-0.3,0.2-0.5,0.6-0.7,1.2c-0.2,0.6-0.2,1.8-0.2,3.7V39.7z"/>
		<path d="M140.9,34.1c0-1,0.2-1.9,0.7-2.8s1.1-1.6,2-2.1s1.8-0.7,2.9-0.7c1.6,0,3,0.5,4.1,1.6c1.1,1.1,1.6,2.4,1.6,4.1
			c0,1.6-0.5,3-1.6,4.1s-2.4,1.6-4,1.6c-1,0-2-0.2-2.9-0.7s-1.6-1.1-2.1-2C141.2,36.5,140.9,35.4,140.9,34.1z M143.9,34.3
			c0,1.1,0.3,1.9,0.8,2.5s1.1,0.9,1.9,0.9s1.4-0.3,1.9-0.9s0.8-1.4,0.8-2.5c0-1.1-0.3-1.9-0.8-2.5s-1.1-0.9-1.9-0.9
			s-1.4,0.3-1.9,0.9S143.9,33.2,143.9,34.3z"/>
		<path d="M154.3,28.9h2.7v1.6c0.3-0.5,0.8-1,1.4-1.3s1.3-0.5,2-0.5c1.3,0,2.3,0.5,3.2,1.5s1.3,2.4,1.3,4.1c0,1.8-0.4,3.2-1.3,4.2
			c-0.9,1-2,1.5-3.2,1.5c-0.6,0-1.1-0.1-1.6-0.4s-1-0.6-1.5-1.2v5.5h-2.9V28.9z M157.2,34.1c0,1.2,0.2,2.1,0.7,2.7
			c0.5,0.6,1.1,0.9,1.8,0.9c0.7,0,1.2-0.3,1.7-0.8c0.4-0.5,0.7-1.4,0.7-2.6c0-1.1-0.2-2-0.7-2.5s-1-0.8-1.7-0.8
			c-0.7,0-1.3,0.3-1.8,0.8C157.4,32.2,157.2,33,157.2,34.1z"/>
		<path d="M172.3,34.8l3-0.3c0.2,1,0.5,1.7,1.1,2.2c0.5,0.5,1.3,0.7,2.2,0.7c1,0,1.7-0.2,2.2-0.6c0.5-0.4,0.7-0.9,0.7-1.5
			c0-0.4-0.1-0.7-0.3-0.9c-0.2-0.2-0.6-0.5-1.1-0.7c-0.4-0.1-1.2-0.3-2.4-0.7c-1.6-0.4-2.8-0.9-3.4-1.5c-0.9-0.8-1.4-1.8-1.4-3
			c0-0.8,0.2-1.5,0.7-2.1c0.4-0.7,1.1-1.2,1.9-1.5c0.8-0.3,1.8-0.5,3-0.5c1.9,0,3.3,0.4,4.3,1.2c1,0.8,1.5,1.9,1.5,3.3l-3,0.1
			c-0.1-0.8-0.4-1.3-0.8-1.7c-0.4-0.3-1.1-0.5-1.9-0.5c-0.9,0-1.6,0.2-2.1,0.5c-0.3,0.2-0.5,0.5-0.5,0.9c0,0.4,0.2,0.7,0.5,0.9
			c0.4,0.3,1.3,0.7,2.8,1s2.6,0.7,3.3,1.1c0.7,0.4,1.3,0.9,1.7,1.5c0.4,0.6,0.6,1.4,0.6,2.4c0,0.9-0.2,1.7-0.7,2.4s-1.2,1.3-2,1.7
			c-0.9,0.4-2,0.5-3.3,0.5c-1.9,0-3.4-0.4-4.4-1.3S172.5,36.5,172.3,34.8z"/>
		<path d="M186.9,28.9h2.7v1.5c1-1.2,2.1-1.7,3.4-1.7c0.7,0,1.3,0.1,1.8,0.4s0.9,0.7,1.3,1.3c0.5-0.6,1-1,1.5-1.3s1.1-0.4,1.8-0.4
			c0.8,0,1.5,0.2,2,0.5s1,0.8,1.2,1.4c0.2,0.5,0.3,1.2,0.3,2.3v7H200v-6.2c0-1.1-0.1-1.8-0.3-2.1c-0.3-0.4-0.7-0.6-1.2-0.6
			c-0.4,0-0.8,0.1-1.1,0.4s-0.6,0.6-0.8,1.1c-0.2,0.5-0.2,1.2-0.2,2.3v5.2h-2.9v-6c0-1.1-0.1-1.7-0.2-2.1s-0.3-0.5-0.5-0.7
			c-0.2-0.2-0.5-0.2-0.9-0.2c-0.4,0-0.8,0.1-1.2,0.4s-0.6,0.6-0.8,1c-0.2,0.5-0.2,1.2-0.2,2.2v5.3h-2.9V28.9z"/>
		<path d="M207.9,32.2l-2.6-0.5c0.3-1.1,0.8-1.8,1.5-2.3s1.8-0.8,3.2-0.8c1.3,0,2.2,0.2,2.9,0.5c0.6,0.3,1.1,0.7,1.3,1.2
			c0.3,0.5,0.4,1.3,0.4,2.6l0,3.4c0,1,0,1.7,0.1,2.1c0.1,0.5,0.3,0.9,0.5,1.5h-2.9c-0.1-0.2-0.2-0.5-0.3-0.9c0-0.2-0.1-0.3-0.1-0.3
			c-0.5,0.5-1,0.8-1.6,1.1s-1.2,0.4-1.8,0.4c-1.1,0-2-0.3-2.7-0.9c-0.6-0.6-1-1.4-1-2.3c0-0.6,0.1-1.2,0.4-1.6
			c0.3-0.5,0.7-0.9,1.2-1.1c0.5-0.3,1.3-0.5,2.3-0.7c1.3-0.3,2.3-0.5,2.8-0.7v-0.3c0-0.6-0.1-0.9-0.4-1.2c-0.3-0.2-0.8-0.4-1.5-0.4
			c-0.5,0-0.9,0.1-1.2,0.3C208.3,31.3,208.1,31.7,207.9,32.2z M211.8,34.5c-0.4,0.1-1,0.3-1.8,0.4s-1.3,0.3-1.6,0.5
			c-0.4,0.3-0.6,0.6-0.6,1c0,0.4,0.2,0.8,0.5,1s0.7,0.4,1.1,0.4c0.5,0,1-0.2,1.5-0.5c0.3-0.3,0.6-0.6,0.7-1c0.1-0.2,0.1-0.7,0.1-1.4
			V34.5z"/>
		<path d="M217.4,39.7v-15h2.9v15H217.4z"/>
		<path d="M223.3,39.7v-15h2.9v15H223.3z"/>
		<path d="M234.9,39.7v-15h4.5l2.7,10.3l2.7-10.3h4.6v15h-2.8V27.9l-3,11.8h-2.9l-3-11.8v11.8H234.9z"/>
		<path d="M254.6,32.2l-2.6-0.5c0.3-1.1,0.8-1.8,1.5-2.3s1.8-0.8,3.2-0.8c1.3,0,2.2,0.2,2.9,0.5c0.6,0.3,1.1,0.7,1.3,1.2
			c0.3,0.5,0.4,1.3,0.4,2.6l0,3.4c0,1,0,1.7,0.1,2.1c0.1,0.5,0.3,0.9,0.5,1.5H259c-0.1-0.2-0.2-0.5-0.3-0.9c0-0.2-0.1-0.3-0.1-0.3
			c-0.5,0.5-1,0.8-1.6,1.1s-1.2,0.4-1.8,0.4c-1.1,0-2-0.3-2.7-0.9c-0.6-0.6-1-1.4-1-2.3c0-0.6,0.1-1.2,0.4-1.6
			c0.3-0.5,0.7-0.9,1.2-1.1c0.5-0.3,1.3-0.5,2.3-0.7c1.3-0.3,2.3-0.5,2.8-0.7v-0.3c0-0.6-0.1-0.9-0.4-1.2c-0.3-0.2-0.8-0.4-1.5-0.4
			c-0.5,0-0.9,0.1-1.2,0.3C255,31.3,254.8,31.7,254.6,32.2z M258.4,34.5c-0.4,0.1-1,0.3-1.8,0.4s-1.3,0.3-1.6,0.5
			c-0.4,0.3-0.6,0.6-0.6,1c0,0.4,0.2,0.8,0.5,1s0.7,0.4,1.1,0.4c0.5,0,1-0.2,1.5-0.5c0.3-0.3,0.6-0.6,0.7-1c0.1-0.2,0.1-0.7,0.1-1.4
			V34.5z"/>
		<path d="M263.9,28.9h2.7v1.5c1-1.2,2.1-1.7,3.4-1.7c0.7,0,1.3,0.1,1.8,0.4s0.9,0.7,1.3,1.3c0.5-0.6,1-1,1.5-1.3s1.1-0.4,1.8-0.4
			c0.8,0,1.5,0.2,2,0.5s1,0.8,1.2,1.4c0.2,0.5,0.3,1.2,0.3,2.3v7H277v-6.2c0-1.1-0.1-1.8-0.3-2.1c-0.3-0.4-0.7-0.6-1.2-0.6
			c-0.4,0-0.8,0.1-1.1,0.4s-0.6,0.6-0.8,1.1c-0.2,0.5-0.2,1.2-0.2,2.3v5.2h-2.9v-6c0-1.1-0.1-1.7-0.2-2.1s-0.3-0.5-0.5-0.7
			c-0.2-0.2-0.5-0.2-0.9-0.2c-0.4,0-0.8,0.1-1.2,0.4s-0.6,0.6-0.8,1c-0.2,0.5-0.2,1.2-0.2,2.2v5.3h-2.9V28.9z"/>
		<path d="M282.6,28.9h2.7v1.5c1-1.2,2.1-1.7,3.4-1.7c0.7,0,1.3,0.1,1.8,0.4s0.9,0.7,1.3,1.3c0.5-0.6,1-1,1.5-1.3s1.1-0.4,1.8-0.4
			c0.8,0,1.5,0.2,2,0.5s1,0.8,1.2,1.4c0.2,0.5,0.3,1.2,0.3,2.3v7h-2.9v-6.2c0-1.1-0.1-1.8-0.3-2.1c-0.3-0.4-0.7-0.6-1.2-0.6
			c-0.4,0-0.8,0.1-1.1,0.4s-0.6,0.6-0.8,1.1c-0.2,0.5-0.2,1.2-0.2,2.3v5.2h-2.9v-6c0-1.1-0.1-1.7-0.2-2.1s-0.3-0.5-0.5-0.7
			c-0.2-0.2-0.5-0.2-0.9-0.2c-0.4,0-0.8,0.1-1.2,0.4s-0.6,0.6-0.8,1c-0.2,0.5-0.2,1.2-0.2,2.2v5.3h-2.9V28.9z"/>
		<path d="M303.6,32.2l-2.6-0.5c0.3-1.1,0.8-1.8,1.5-2.3s1.8-0.8,3.2-0.8c1.3,0,2.2,0.2,2.9,0.5c0.6,0.3,1.1,0.7,1.3,1.2
			c0.3,0.5,0.4,1.3,0.4,2.6l0,3.4c0,1,0,1.7,0.1,2.1c0.1,0.5,0.3,0.9,0.5,1.5h-2.9c-0.1-0.2-0.2-0.5-0.3-0.9c0-0.2-0.1-0.3-0.1-0.3
			c-0.5,0.5-1,0.8-1.6,1.1S305,40,304.3,40c-1.1,0-2-0.3-2.7-0.9c-0.6-0.6-1-1.4-1-2.3c0-0.6,0.1-1.2,0.4-1.6
			c0.3-0.5,0.7-0.9,1.2-1.1c0.5-0.3,1.3-0.5,2.3-0.7c1.3-0.3,2.3-0.5,2.8-0.7v-0.3c0-0.6-0.1-0.9-0.4-1.2c-0.3-0.2-0.8-0.4-1.5-0.4
			c-0.5,0-0.9,0.1-1.2,0.3C304,31.3,303.8,31.7,303.6,32.2z M307.5,34.5c-0.4,0.1-1,0.3-1.8,0.4s-1.3,0.3-1.6,0.5
			c-0.4,0.3-0.6,0.6-0.6,1c0,0.4,0.2,0.8,0.5,1s0.7,0.4,1.1,0.4c0.5,0,1-0.2,1.5-0.5c0.3-0.3,0.6-0.6,0.7-1c0.1-0.2,0.1-0.7,0.1-1.4
			V34.5z"/>
		<path d="M313.1,39.7v-15h2.9v15H313.1z"/>
		<path d="M324.8,39.7v-15h3v5.9h5.9v-5.9h3v15h-3v-6.6h-5.9v6.6H324.8z"/>
		<path d="M339.3,34.1c0-1,0.2-1.9,0.7-2.8s1.1-1.6,2-2.1c0.9-0.5,1.8-0.7,2.9-0.7c1.6,0,3,0.5,4,1.6c1.1,1.1,1.6,2.4,1.6,4.1
			c0,1.6-0.5,3-1.6,4.1c-1.1,1.1-2.4,1.6-4,1.6c-1,0-2-0.2-2.9-0.7c-0.9-0.5-1.6-1.1-2.1-2C339.5,36.5,339.3,35.4,339.3,34.1z
			 M342.3,34.3c0,1.1,0.3,1.9,0.8,2.5s1.1,0.9,1.9,0.9s1.4-0.3,1.9-0.9c0.5-0.6,0.8-1.4,0.8-2.5c0-1.1-0.3-1.9-0.8-2.5
			c-0.5-0.6-1.1-0.9-1.9-0.9s-1.4,0.3-1.9,0.9S342.3,33.2,342.3,34.3z"/>
		<path d="M360,39.7v-1.6c-0.4,0.6-0.9,1-1.6,1.4c-0.6,0.3-1.3,0.5-2,0.5c-0.7,0-1.4-0.2-2-0.5s-1-0.8-1.3-1.4s-0.4-1.4-0.4-2.4
			v-6.9h2.9v5c0,1.5,0.1,2.5,0.2,2.8c0.1,0.3,0.3,0.6,0.6,0.8c0.3,0.2,0.6,0.3,1.1,0.3c0.5,0,0.9-0.1,1.3-0.4c0.4-0.3,0.7-0.6,0.8-1
			c0.1-0.4,0.2-1.4,0.2-2.9v-4.6h2.9v10.9H360z"/>
		<path d="M364.6,36.6l2.9-0.4c0.1,0.6,0.4,1,0.7,1.3c0.4,0.3,0.9,0.4,1.6,0.4c0.7,0,1.3-0.1,1.7-0.4c0.3-0.2,0.4-0.4,0.4-0.8
			c0-0.2-0.1-0.4-0.2-0.5c-0.1-0.1-0.5-0.3-1-0.4c-2.3-0.5-3.8-1-4.4-1.4c-0.9-0.6-1.3-1.4-1.3-2.5c0-0.9,0.4-1.7,1.1-2.4
			s1.9-1,3.5-1c1.5,0,2.6,0.2,3.3,0.7s1.2,1.2,1.5,2.2l-2.7,0.5c-0.1-0.4-0.3-0.7-0.7-1c-0.3-0.2-0.8-0.3-1.4-0.3
			c-0.8,0-1.3,0.1-1.6,0.3c-0.2,0.2-0.3,0.3-0.3,0.6c0,0.2,0.1,0.4,0.3,0.5c0.3,0.2,1.2,0.5,2.7,0.8c1.5,0.3,2.6,0.8,3.2,1.3
			c0.6,0.5,0.9,1.2,0.9,2.1c0,1-0.4,1.9-1.3,2.6s-2.1,1.1-3.7,1.1c-1.5,0-2.7-0.3-3.5-0.9C365.4,38.5,364.9,37.7,364.6,36.6z"/>
		<path d="M377.3,27.4v-2.7h2.9v2.7H377.3z M377.3,39.7V28.9h2.9v10.9H377.3z"/>
		<path d="M393,39.7h-2.9v-5.6c0-1.2-0.1-1.9-0.2-2.3s-0.3-0.6-0.6-0.8c-0.3-0.2-0.6-0.3-1-0.3c-0.5,0-0.9,0.1-1.3,0.4
			s-0.7,0.6-0.8,1.1c-0.1,0.5-0.2,1.3-0.2,2.5v4.9h-2.9V28.9h2.7v1.6c1-1.2,2.1-1.8,3.6-1.8c0.6,0,1.2,0.1,1.7,0.3s0.9,0.5,1.2,0.9
			c0.3,0.4,0.5,0.8,0.6,1.2c0.1,0.5,0.2,1.1,0.2,1.9V39.7z"/>
		<path d="M395.7,40.5l3.3,0.4c0.1,0.4,0.2,0.6,0.4,0.8c0.3,0.2,0.7,0.3,1.3,0.3c0.8,0,1.3-0.1,1.7-0.3c0.3-0.2,0.4-0.4,0.6-0.7
			c0.1-0.2,0.1-0.7,0.1-1.3V38c-0.9,1.2-1.9,1.8-3.3,1.8c-1.5,0-2.6-0.6-3.5-1.9c-0.7-1-1-2.2-1-3.7c0-1.8,0.4-3.2,1.3-4.2
			c0.9-1,2-1.4,3.3-1.4c1.3,0,2.5,0.6,3.3,1.8v-1.5h2.7v9.8c0,1.3-0.1,2.2-0.3,2.9s-0.5,1.1-0.9,1.5s-0.9,0.6-1.5,0.9
			c-0.6,0.2-1.4,0.3-2.4,0.3c-1.8,0-3.2-0.3-3.9-0.9s-1.2-1.4-1.2-2.4C395.7,40.7,395.7,40.6,395.7,40.5z M398.3,34.1
			c0,1.2,0.2,2,0.7,2.5c0.4,0.5,1,0.8,1.7,0.8c0.7,0,1.3-0.3,1.8-0.8c0.5-0.5,0.7-1.4,0.7-2.4c0-1.1-0.2-2-0.7-2.5s-1.1-0.8-1.8-0.8
			c-0.7,0-1.3,0.3-1.7,0.8C398.5,32.2,398.3,33,398.3,34.1z"/>
		<path d="M414.6,24.7h5.5c1.3,0,2.2,0.1,2.9,0.3c0.9,0.3,1.6,0.7,2.3,1.4s1.1,1.5,1.4,2.4c0.3,1,0.5,2.1,0.5,3.6
			c0,1.2-0.2,2.3-0.5,3.2c-0.4,1.1-0.9,2-1.6,2.7c-0.5,0.5-1.2,0.9-2.1,1.2c-0.7,0.2-1.6,0.3-2.7,0.3h-5.7V24.7z M417.7,27.3v10h2.3
			c0.8,0,1.5,0,1.8-0.1c0.5-0.1,0.9-0.3,1.2-0.6s0.6-0.8,0.8-1.5c0.2-0.7,0.3-1.6,0.3-2.8s-0.1-2.1-0.3-2.7s-0.5-1.1-0.9-1.5
			s-0.8-0.6-1.4-0.7c-0.4-0.1-1.3-0.1-2.5-0.1H417.7z"/>
		<path d="M429.8,27.4v-2.7h2.9v2.7H429.8z M429.8,39.7V28.9h2.9v10.9H429.8z"/>
		<path d="M435.4,28.9h2.7v1.5c1-1.2,2.1-1.7,3.4-1.7c0.7,0,1.3,0.1,1.8,0.4c0.5,0.3,0.9,0.7,1.3,1.3c0.5-0.6,1-1,1.5-1.3
			c0.6-0.3,1.1-0.4,1.8-0.4c0.8,0,1.5,0.2,2,0.5s1,0.8,1.2,1.4c0.2,0.5,0.3,1.2,0.3,2.3v7h-2.9v-6.2c0-1.1-0.1-1.8-0.3-2.1
			c-0.3-0.4-0.7-0.6-1.2-0.6c-0.4,0-0.8,0.1-1.1,0.4c-0.4,0.2-0.6,0.6-0.8,1.1c-0.2,0.5-0.2,1.2-0.2,2.3v5.2H442v-6
			c0-1.1-0.1-1.7-0.2-2.1c-0.1-0.3-0.3-0.5-0.5-0.7c-0.2-0.2-0.5-0.2-0.9-0.2c-0.4,0-0.8,0.1-1.2,0.4s-0.6,0.6-0.8,1
			c-0.2,0.5-0.2,1.2-0.2,2.2v5.3h-2.9V28.9z"/>
		<path d="M460.6,36.3l2.9,0.5c-0.4,1.1-1,1.9-1.7,2.4c-0.8,0.6-1.8,0.8-3,0.8c-1.9,0-3.3-0.6-4.2-1.9c-0.7-1-1.1-2.2-1.1-3.8
			c0-1.8,0.5-3.2,1.4-4.2s2.1-1.5,3.6-1.5c1.6,0,2.9,0.5,3.8,1.6c0.9,1.1,1.4,2.7,1.3,4.9h-7.2c0,0.9,0.3,1.5,0.7,2
			c0.4,0.5,1,0.7,1.7,0.7c0.5,0,0.8-0.1,1.1-0.4S460.4,36.8,460.6,36.3z M460.8,33.4c0-0.8-0.2-1.5-0.6-1.9
			c-0.4-0.4-0.9-0.7-1.5-0.7c-0.6,0-1.1,0.2-1.6,0.7s-0.6,1.1-0.6,1.9H460.8z"/>
		<path d="M475.9,39.7H473v-5.6c0-1.2-0.1-1.9-0.2-2.3s-0.3-0.6-0.6-0.8c-0.3-0.2-0.6-0.3-1-0.3c-0.5,0-0.9,0.1-1.3,0.4
			c-0.4,0.3-0.7,0.6-0.8,1.1c-0.1,0.5-0.2,1.3-0.2,2.5v4.9H466V28.9h2.7v1.6c1-1.2,2.1-1.8,3.6-1.8c0.6,0,1.2,0.1,1.7,0.3
			s0.9,0.5,1.2,0.9c0.3,0.4,0.5,0.8,0.6,1.2c0.1,0.5,0.2,1.1,0.2,1.9V39.7z"/>
		<path d="M477.8,36.6l2.9-0.4c0.1,0.6,0.4,1,0.7,1.3c0.4,0.3,0.9,0.4,1.6,0.4c0.7,0,1.3-0.1,1.7-0.4c0.3-0.2,0.4-0.4,0.4-0.8
			c0-0.2-0.1-0.4-0.2-0.5c-0.1-0.1-0.5-0.3-1-0.4c-2.3-0.5-3.8-1-4.4-1.4c-0.9-0.6-1.3-1.4-1.3-2.5c0-0.9,0.4-1.7,1.1-2.4
			s1.9-1,3.5-1c1.5,0,2.6,0.2,3.3,0.7s1.2,1.2,1.5,2.2l-2.7,0.5c-0.1-0.4-0.3-0.7-0.7-1c-0.3-0.2-0.8-0.3-1.4-0.3
			c-0.8,0-1.3,0.1-1.6,0.3c-0.2,0.2-0.3,0.3-0.3,0.6c0,0.2,0.1,0.4,0.3,0.5c0.3,0.2,1.2,0.5,2.7,0.8c1.5,0.3,2.6,0.8,3.2,1.3
			c0.6,0.5,0.9,1.2,0.9,2.1c0,1-0.4,1.9-1.3,2.6S484.6,40,483,40c-1.5,0-2.7-0.3-3.5-0.9C478.6,38.5,478.1,37.7,477.8,36.6z"/>
		<path d="M490.5,27.4v-2.7h2.9v2.7H490.5z M490.5,39.7V28.9h2.9v10.9H490.5z"/>
		<path d="M495.7,34.1c0-1,0.2-1.9,0.7-2.8c0.5-0.9,1.1-1.6,2-2.1c0.9-0.5,1.8-0.7,2.9-0.7c1.6,0,3,0.5,4.1,1.6
			c1.1,1.1,1.6,2.4,1.6,4.1c0,1.6-0.5,3-1.6,4.1c-1.1,1.1-2.4,1.6-4,1.6c-1,0-2-0.2-2.9-0.7c-0.9-0.5-1.6-1.1-2.1-2
			C495.9,36.5,495.7,35.4,495.7,34.1z M498.6,34.3c0,1.1,0.3,1.9,0.8,2.5c0.5,0.6,1.1,0.9,1.9,0.9s1.4-0.3,1.9-0.9
			c0.5-0.6,0.8-1.4,0.8-2.5c0-1.1-0.3-1.9-0.8-2.5c-0.5-0.6-1.1-0.9-1.9-0.9s-1.4,0.3-1.9,0.9C498.9,32.4,498.6,33.2,498.6,34.3z"/>
		<path d="M519.1,39.7h-2.9v-5.6c0-1.2-0.1-1.9-0.2-2.3s-0.3-0.6-0.6-0.8c-0.3-0.2-0.6-0.3-1-0.3c-0.5,0-0.9,0.1-1.3,0.4
			c-0.4,0.3-0.7,0.6-0.8,1.1c-0.1,0.5-0.2,1.3-0.2,2.5v4.9h-2.9V28.9h2.7v1.6c1-1.2,2.1-1.8,3.6-1.8c0.6,0,1.2,0.1,1.7,0.3
			s0.9,0.5,1.2,0.9c0.3,0.4,0.5,0.8,0.6,1.2c0.1,0.5,0.2,1.1,0.2,1.9V39.7z"/>
		<path d="M521,36.6l2.9-0.4c0.1,0.6,0.4,1,0.7,1.3c0.4,0.3,0.9,0.4,1.6,0.4c0.7,0,1.3-0.1,1.7-0.4c0.3-0.2,0.4-0.4,0.4-0.8
			c0-0.2-0.1-0.4-0.2-0.5c-0.1-0.1-0.5-0.3-1-0.4c-2.3-0.5-3.8-1-4.4-1.4c-0.9-0.6-1.3-1.4-1.3-2.5c0-0.9,0.4-1.7,1.1-2.4
			s1.9-1,3.5-1c1.5,0,2.6,0.2,3.3,0.7s1.2,1.2,1.5,2.2L528,32c-0.1-0.4-0.3-0.7-0.7-1c-0.3-0.2-0.8-0.3-1.4-0.3
			c-0.8,0-1.3,0.1-1.6,0.3c-0.2,0.2-0.3,0.3-0.3,0.6c0,0.2,0.1,0.4,0.3,0.5c0.3,0.2,1.2,0.5,2.7,0.8c1.5,0.3,2.6,0.8,3.2,1.3
			c0.6,0.5,0.9,1.2,0.9,2.1c0,1-0.4,1.9-1.3,2.6s-2.1,1.1-3.7,1.1c-1.5,0-2.7-0.3-3.5-0.9C521.8,38.5,521.2,37.7,521,36.6z"/>
	</g>
	<g>
		<path d="M229.2,811.2l1.8-8.6h1.1l1.4,3.2c0.4,1,0.8,1.8,1,2.5c0.1,0.4,0.3,0.9,0.5,1.6c0.1-0.7,0.2-1.5,0.4-2.2l1.1-5.1h1.1
			l-1.8,8.6h-1.1l-2.1-5c-0.4-0.9-0.7-1.6-0.9-2.3c-0.1,0.6-0.2,1.2-0.3,2.1l-1.1,5.2H229.2z"/>
		<path d="M237.8,808.8c0-1.2,0.4-2.2,1.1-3c0.6-0.7,1.4-1,2.3-1c0.8,0,1.4,0.2,1.8,0.7s0.7,1.1,0.7,1.9c0,0.7-0.1,1.4-0.4,2
			s-0.7,1.1-1.2,1.4s-1.1,0.5-1.7,0.5c-0.5,0-0.9-0.1-1.3-0.3s-0.7-0.5-0.9-0.9S237.8,809.3,237.8,808.8z M238.9,808.7
			c0,0.6,0.1,1,0.4,1.3s0.6,0.5,1.1,0.5c0.2,0,0.5,0,0.7-0.1s0.4-0.2,0.6-0.4s0.4-0.4,0.5-0.6s0.2-0.5,0.3-0.8
			c0.1-0.4,0.2-0.8,0.2-1.1c0-0.6-0.1-1-0.4-1.3s-0.6-0.5-1.1-0.5c-0.3,0-0.6,0.1-0.9,0.2s-0.5,0.4-0.7,0.7s-0.4,0.7-0.5,1.1
			S238.9,808.4,238.9,808.7z"/>
		<path d="M246.8,810.3l-0.2,0.9c-0.3,0.1-0.5,0.1-0.7,0.1c-0.4,0-0.8-0.1-1-0.3c-0.2-0.2-0.3-0.4-0.3-0.6c0-0.1,0.1-0.5,0.2-0.9
			l0.8-3.6h-0.8l0.2-0.8h0.8l0.3-1.5l1.2-0.7l-0.5,2.3h1l-0.2,0.8h-1l-0.7,3.4c-0.1,0.4-0.1,0.7-0.1,0.8c0,0.1,0,0.2,0.1,0.3
			s0.2,0.1,0.4,0.1C246.4,810.4,246.6,810.4,246.8,810.3z"/>
		<path d="M250.5,813.6l1.8-8.6h1l-0.2,0.9c0.4-0.4,0.7-0.6,1-0.8s0.6-0.2,0.9-0.2c0.6,0,1.1,0.2,1.5,0.6s0.6,1,0.6,1.9
			c0,0.6-0.1,1.2-0.3,1.8s-0.5,1-0.8,1.3s-0.6,0.6-0.9,0.7s-0.6,0.2-1,0.2c-0.7,0-1.3-0.4-1.7-1.1l-0.7,3.4H250.5z M252.6,808.6
			c0,0.5,0,0.8,0.1,1c0.1,0.3,0.3,0.5,0.5,0.6s0.5,0.2,0.8,0.2c0.6,0,1.1-0.3,1.5-1s0.6-1.4,0.6-2.1c0-0.5-0.1-0.9-0.4-1.2
			s-0.6-0.4-0.9-0.4c-0.3,0-0.5,0.1-0.8,0.2s-0.4,0.4-0.6,0.6s-0.4,0.6-0.5,1S252.6,808.3,252.6,808.6z"/>
		<path d="M257.6,811.2l1.3-6.2h1.1l-1.3,6.2H257.6z M259.2,803.8l0.3-1.2h1.1l-0.3,1.2H259.2z"/>
		<path d="M264.6,808.9l1.1,0.1c-0.3,0.8-0.6,1.4-1.1,1.7s-1,0.6-1.7,0.6c-0.7,0-1.2-0.2-1.6-0.7s-0.6-1-0.6-1.8
			c0-0.7,0.1-1.3,0.4-2s0.7-1.2,1.2-1.5s1.1-0.5,1.7-0.5c0.7,0,1.2,0.2,1.6,0.6s0.6,0.9,0.6,1.5l-1,0.1c0-0.4-0.1-0.7-0.3-0.9
			s-0.5-0.3-0.9-0.3c-0.4,0-0.8,0.1-1.1,0.4s-0.6,0.7-0.7,1.2s-0.3,1.1-0.3,1.6c0,0.5,0.1,0.9,0.4,1.2s0.5,0.4,0.9,0.4
			s0.7-0.1,1-0.4S264.4,809.5,264.6,808.9z"/>
		<path d="M268.8,810.3l-0.2,0.9c-0.3,0.1-0.5,0.1-0.7,0.1c-0.4,0-0.8-0.1-1-0.3c-0.2-0.2-0.3-0.4-0.3-0.6c0-0.1,0.1-0.5,0.2-0.9
			l0.8-3.6h-0.8l0.2-0.8h0.8l0.3-1.5l1.2-0.7l-0.5,2.3h1l-0.2,0.8h-1l-0.7,3.4c-0.1,0.4-0.1,0.7-0.1,0.8c0,0.1,0,0.2,0.1,0.3
			s0.2,0.1,0.4,0.1C268.4,810.4,268.6,810.4,268.8,810.3z"/>
		<path d="M273.9,810.1c-0.7,0.8-1.5,1.3-2.3,1.3c-0.5,0-0.9-0.1-1.2-0.4s-0.4-0.6-0.4-1c0-0.3,0.1-0.7,0.2-1.3l0.8-3.6h1.1l-0.8,4
			c-0.1,0.3-0.1,0.6-0.1,0.8c0,0.2,0.1,0.4,0.2,0.5s0.4,0.2,0.6,0.2c0.3,0,0.6-0.1,0.9-0.2s0.5-0.3,0.7-0.6s0.4-0.5,0.5-0.9
			c0.1-0.2,0.2-0.6,0.3-1.1l0.6-2.7h1.1l-1.3,6.2h-1L273.9,810.1z"/>
		<path d="M276.3,811.2l1.3-6.2h0.9l-0.3,1.3c0.3-0.5,0.6-0.8,0.9-1.1s0.6-0.3,0.9-0.3c0.2,0,0.5,0.1,0.8,0.2l-0.4,1
			c-0.2-0.1-0.4-0.2-0.6-0.2c-0.4,0-0.8,0.2-1.1,0.6s-0.7,1.2-0.9,2.2l-0.5,2.5H276.3z"/>
		<path d="M284.9,809.1l1,0.1c-0.1,0.5-0.5,1-1,1.5s-1.2,0.7-1.9,0.7c-0.5,0-0.9-0.1-1.3-0.3s-0.7-0.5-0.9-0.9s-0.3-0.9-0.3-1.4
			c0-0.7,0.2-1.3,0.5-2s0.7-1.1,1.2-1.4s1-0.5,1.6-0.5c0.7,0,1.3,0.2,1.8,0.7s0.7,1.1,0.7,1.9c0,0.3,0,0.6-0.1,0.9h-4.6
			c0,0.1,0,0.2,0,0.3c0,0.6,0.1,1,0.4,1.3s0.6,0.5,1,0.5c0.4,0,0.7-0.1,1.1-0.4S284.7,809.5,284.9,809.1z M281.8,807.5h3.5
			c0-0.1,0-0.2,0-0.2c0-0.5-0.1-0.9-0.4-1.2s-0.6-0.4-1-0.4c-0.5,0-0.9,0.2-1.2,0.5S282,806.9,281.8,807.5z"/>
		<path d="M291.2,810.3c-0.6,0.7-1.2,1-1.9,1c-0.6,0-1.1-0.2-1.5-0.7s-0.6-1.1-0.6-1.9c0-0.8,0.2-1.5,0.5-2.1s0.7-1.1,1.2-1.4
			s0.9-0.5,1.4-0.5c0.8,0,1.4,0.4,1.8,1.1l0.7-3.3h1.1l-1.8,8.6h-1L291.2,810.3z M288.3,808.6c0,0.4,0,0.8,0.1,1s0.2,0.5,0.4,0.6
			s0.5,0.2,0.7,0.2c0.5,0,0.9-0.3,1.3-0.8c0.5-0.7,0.8-1.5,0.8-2.5c0-0.5-0.1-0.9-0.4-1.2s-0.6-0.4-1-0.4c-0.3,0-0.5,0.1-0.7,0.2
			s-0.4,0.3-0.6,0.6s-0.4,0.6-0.5,1S288.3,808.3,288.3,808.6z"/>
		<path d="M301.2,810.4c-0.4,0.3-0.7,0.5-1.1,0.7s-0.7,0.2-1.1,0.2c-0.6,0-1-0.2-1.4-0.5s-0.5-0.8-0.5-1.3c0-0.3,0.1-0.7,0.2-0.9
			s0.4-0.5,0.6-0.6s0.6-0.3,1-0.3c0.2,0,0.7-0.1,1.4-0.1s1.1-0.1,1.4-0.2c0.1-0.3,0.1-0.5,0.1-0.7c0-0.2-0.1-0.4-0.3-0.6
			c-0.2-0.2-0.6-0.3-1.1-0.3c-0.4,0-0.8,0.1-1.1,0.3s-0.5,0.5-0.6,0.8l-1.1-0.1c0.2-0.6,0.6-1.1,1-1.4s1.1-0.5,1.8-0.5
			c0.8,0,1.4,0.2,1.8,0.6c0.3,0.3,0.5,0.6,0.5,1.1c0,0.3,0,0.7-0.1,1.2l-0.3,1.5c-0.1,0.5-0.2,0.9-0.2,1.2c0,0.2,0,0.5,0.1,0.8h-1.1
			C301.3,811,301.2,810.7,301.2,810.4z M301.6,808c-0.1,0.1-0.3,0.1-0.5,0.1s-0.5,0.1-0.9,0.1c-0.6,0.1-1.1,0.1-1.3,0.2
			s-0.4,0.2-0.6,0.4s-0.2,0.4-0.2,0.6c0,0.3,0.1,0.5,0.3,0.7s0.5,0.3,0.9,0.3c0.4,0,0.7-0.1,1-0.3s0.6-0.4,0.8-0.8
			S301.5,808.6,301.6,808z"/>
		<path d="M306.2,810.3l-0.2,0.9c-0.3,0.1-0.5,0.1-0.7,0.1c-0.4,0-0.8-0.1-1-0.3c-0.2-0.2-0.3-0.4-0.3-0.6c0-0.1,0.1-0.5,0.2-0.9
			l0.8-3.6H304l0.2-0.8h0.8l0.3-1.5l1.2-0.7l-0.5,2.3h1l-0.2,0.8h-1l-0.7,3.4c-0.1,0.4-0.1,0.7-0.1,0.8c0,0.1,0,0.2,0.1,0.3
			s0.2,0.1,0.4,0.1C305.8,810.4,306,810.4,306.2,810.3z"/>
		<path d="M314.5,810.4c-0.4,0.3-0.7,0.5-1.1,0.7s-0.7,0.2-1.1,0.2c-0.6,0-1-0.2-1.4-0.5s-0.5-0.8-0.5-1.3c0-0.3,0.1-0.7,0.2-0.9
			s0.4-0.5,0.6-0.6s0.6-0.3,1-0.3c0.2,0,0.7-0.1,1.4-0.1s1.1-0.1,1.4-0.2c0.1-0.3,0.1-0.5,0.1-0.7c0-0.2-0.1-0.4-0.3-0.6
			c-0.2-0.2-0.6-0.3-1.1-0.3c-0.4,0-0.8,0.1-1.1,0.3s-0.5,0.5-0.6,0.8l-1.1-0.1c0.2-0.6,0.6-1.1,1-1.4s1.1-0.5,1.8-0.5
			c0.8,0,1.4,0.2,1.8,0.6c0.3,0.3,0.5,0.6,0.5,1.1c0,0.3,0,0.7-0.1,1.2l-0.3,1.5c-0.1,0.5-0.2,0.9-0.2,1.2c0,0.2,0,0.5,0.1,0.8h-1.1
			C314.6,811,314.6,810.7,314.5,810.4z M314.9,808c-0.1,0.1-0.3,0.1-0.5,0.1s-0.5,0.1-0.9,0.1c-0.6,0.1-1.1,0.1-1.3,0.2
			s-0.4,0.2-0.6,0.4s-0.2,0.4-0.2,0.6c0,0.3,0.1,0.5,0.3,0.7s0.5,0.3,0.9,0.3c0.4,0,0.7-0.1,1-0.3s0.6-0.4,0.8-0.8
			S314.8,808.6,314.9,808z"/>
		<path d="M321.3,808.9l1.1,0.1c-0.3,0.8-0.6,1.4-1.1,1.7s-1,0.6-1.7,0.6c-0.7,0-1.2-0.2-1.6-0.7s-0.6-1-0.6-1.8
			c0-0.7,0.1-1.3,0.4-2s0.7-1.2,1.2-1.5s1.1-0.5,1.7-0.5c0.7,0,1.2,0.2,1.6,0.6s0.6,0.9,0.6,1.5l-1,0.1c0-0.4-0.1-0.7-0.3-0.9
			s-0.5-0.3-0.9-0.3c-0.4,0-0.8,0.1-1.1,0.4s-0.6,0.7-0.7,1.2s-0.3,1.1-0.3,1.6c0,0.5,0.1,0.9,0.4,1.2s0.5,0.4,0.9,0.4
			s0.7-0.1,1-0.4S321.1,809.5,321.3,808.9z"/>
		<path d="M325.5,810.3l-0.2,0.9c-0.3,0.1-0.5,0.1-0.7,0.1c-0.4,0-0.8-0.1-1-0.3c-0.2-0.2-0.3-0.4-0.3-0.6c0-0.1,0.1-0.5,0.2-0.9
			l0.8-3.6h-0.8l0.2-0.8h0.8l0.3-1.5l1.2-0.7l-0.5,2.3h1l-0.2,0.8h-1l-0.7,3.4c-0.1,0.4-0.1,0.7-0.1,0.8c0,0.1,0,0.2,0.1,0.3
			s0.2,0.1,0.4,0.1C325.1,810.4,325.3,810.4,325.5,810.3z"/>
		<path d="M330.6,810.1c-0.7,0.8-1.5,1.3-2.3,1.3c-0.5,0-0.9-0.1-1.2-0.4s-0.4-0.6-0.4-1c0-0.3,0.1-0.7,0.2-1.3l0.8-3.6h1.1l-0.8,4
			c-0.1,0.3-0.1,0.6-0.1,0.8c0,0.2,0.1,0.4,0.2,0.5s0.4,0.2,0.6,0.2c0.3,0,0.6-0.1,0.9-0.2s0.5-0.3,0.7-0.6s0.4-0.5,0.5-0.9
			c0.1-0.2,0.2-0.6,0.3-1.1l0.6-2.7h1.1l-1.3,6.2h-1L330.6,810.1z"/>
		<path d="M337.2,810.4c-0.4,0.3-0.7,0.5-1.1,0.7s-0.7,0.2-1.1,0.2c-0.6,0-1-0.2-1.4-0.5s-0.5-0.8-0.5-1.3c0-0.3,0.1-0.7,0.2-0.9
			s0.4-0.5,0.6-0.6s0.6-0.3,1-0.3c0.2,0,0.7-0.1,1.4-0.1s1.1-0.1,1.4-0.2c0.1-0.3,0.1-0.5,0.1-0.7c0-0.2-0.1-0.4-0.3-0.6
			c-0.2-0.2-0.6-0.3-1.1-0.3c-0.4,0-0.8,0.1-1.1,0.3s-0.5,0.5-0.6,0.8l-1.1-0.1c0.2-0.6,0.6-1.1,1-1.4s1.1-0.5,1.8-0.5
			c0.8,0,1.4,0.2,1.8,0.6c0.3,0.3,0.5,0.6,0.5,1.1c0,0.3,0,0.7-0.1,1.2l-0.3,1.5c-0.1,0.5-0.2,0.9-0.2,1.2c0,0.2,0,0.5,0.1,0.8h-1.1
			C337.3,811,337.2,810.7,337.2,810.4z M337.6,808c-0.1,0.1-0.3,0.1-0.5,0.1s-0.5,0.1-0.9,0.1c-0.6,0.1-1.1,0.1-1.3,0.2
			s-0.4,0.2-0.6,0.4s-0.2,0.4-0.2,0.6c0,0.3,0.1,0.5,0.3,0.7s0.5,0.3,0.9,0.3c0.4,0,0.7-0.1,1-0.3s0.6-0.4,0.8-0.8
			S337.5,808.6,337.6,808z"/>
		<path d="M339.6,811.2l1.8-8.6h1.1l-1.8,8.6H339.6z"/>
		<path d="M345.8,809.1l1.1-0.1c0,0.3,0,0.6,0.1,0.8s0.3,0.4,0.5,0.5s0.5,0.2,0.9,0.2c0.5,0,0.8-0.1,1.1-0.3s0.4-0.4,0.4-0.7
			c0-0.2-0.1-0.4-0.2-0.5c-0.1-0.2-0.5-0.4-1.1-0.6s-0.9-0.4-1.1-0.5c-0.3-0.2-0.5-0.3-0.6-0.6s-0.2-0.5-0.2-0.7
			c0-0.5,0.2-0.9,0.6-1.3s0.9-0.5,1.6-0.5c0.8,0,1.4,0.2,1.8,0.5s0.6,0.8,0.6,1.4l-1,0.1c0-0.4-0.1-0.7-0.4-0.9s-0.6-0.3-1.1-0.3
			c-0.4,0-0.7,0.1-0.9,0.3s-0.3,0.3-0.3,0.5s0.1,0.4,0.3,0.5c0.1,0.1,0.4,0.3,0.9,0.5c0.8,0.4,1.3,0.6,1.5,0.8
			c0.3,0.3,0.5,0.7,0.5,1.2c0,0.3-0.1,0.6-0.3,0.9s-0.5,0.5-0.9,0.7s-0.8,0.3-1.4,0.3c-0.7,0-1.3-0.2-1.8-0.5
			S345.8,809.9,345.8,809.1z"/>
		<path d="M351.7,811.2l1.3-6.2h1.1l-1.3,6.2H351.7z M353.2,803.8l0.3-1.2h1.1l-0.3,1.2H353.2z"/>
		<path d="M354.2,811.2l0.2-0.8l3.3-3.8c0.2-0.3,0.5-0.5,0.8-0.8c-0.5,0.1-0.9,0.1-1.1,0.1h-2.3l0.2-0.9h4.8l-0.1,0.7l-3.4,3.8
			c-0.2,0.2-0.5,0.5-0.9,0.9c0.6,0,1-0.1,1.2-0.1h2.4l-0.2,0.9H354.2z"/>
		<path d="M364.9,809.1l1,0.1c-0.1,0.5-0.5,1-1,1.5s-1.2,0.7-1.9,0.7c-0.5,0-0.9-0.1-1.3-0.3s-0.7-0.5-0.9-0.9s-0.3-0.9-0.3-1.4
			c0-0.7,0.2-1.3,0.5-2s0.7-1.1,1.2-1.4s1-0.5,1.6-0.5c0.7,0,1.3,0.2,1.8,0.7s0.7,1.1,0.7,1.9c0,0.3,0,0.6-0.1,0.9h-4.6
			c0,0.1,0,0.2,0,0.3c0,0.6,0.1,1,0.4,1.3s0.6,0.5,1,0.5c0.4,0,0.7-0.1,1.1-0.4S364.7,809.5,364.9,809.1z M361.9,807.5h3.5
			c0-0.1,0-0.2,0-0.2c0-0.5-0.1-0.9-0.4-1.2s-0.6-0.4-1-0.4c-0.5,0-0.9,0.2-1.2,0.5S362,806.9,361.9,807.5z"/>
		<path d="M230.1,825.6l1.8-8.6h2.6c0.6,0,1.1,0,1.4,0.1c0.5,0.1,0.9,0.3,1.2,0.6s0.6,0.7,0.8,1.2s0.3,1,0.3,1.6
			c0,0.7-0.1,1.3-0.3,1.9s-0.5,1.1-0.8,1.5s-0.7,0.8-1.1,1s-0.8,0.4-1.3,0.5c-0.4,0.1-0.9,0.1-1.4,0.1H230.1z M231.5,824.6h1.4
			c0.6,0,1.2-0.1,1.6-0.2c0.3-0.1,0.6-0.2,0.8-0.3c0.3-0.2,0.5-0.4,0.8-0.7c0.3-0.4,0.5-0.8,0.7-1.3s0.3-1,0.3-1.7
			c0-0.7-0.1-1.2-0.4-1.6s-0.6-0.6-0.9-0.7c-0.3-0.1-0.7-0.1-1.3-0.1h-1.5L231.5,824.6z"/>
		<path d="M238.6,825.6l1.3-6.2h1.1l-1.3,6.2H238.6z M240.2,818.2l0.3-1.2h1.1l-0.3,1.2H240.2z"/>
		<path d="M241.3,825.6l1.3-6.2h1.1l-0.2,1c0.4-0.4,0.7-0.7,1.1-0.9s0.6-0.3,1-0.3c0.4,0,0.7,0.1,1,0.3s0.4,0.5,0.5,0.9
			c0.3-0.4,0.6-0.7,1-0.9s0.7-0.3,1.1-0.3c0.5,0,0.9,0.1,1.2,0.4s0.4,0.6,0.4,1c0,0.2,0,0.5-0.1,0.9l-0.8,4h-1.1l0.9-4.1
			c0.1-0.3,0.1-0.6,0.1-0.7c0-0.2-0.1-0.4-0.2-0.5s-0.3-0.2-0.5-0.2c-0.3,0-0.6,0.1-1,0.3s-0.6,0.4-0.8,0.8s-0.3,0.8-0.5,1.4l-0.6,3
			H245l0.9-4.2c0.1-0.3,0.1-0.5,0.1-0.6c0-0.2-0.1-0.4-0.2-0.5s-0.3-0.2-0.5-0.2c-0.3,0-0.6,0.1-0.9,0.3s-0.6,0.5-0.8,0.8
			s-0.4,0.8-0.5,1.5l-0.6,2.9H241.3z"/>
		<path d="M255.9,823.5l1,0.1c-0.1,0.5-0.5,1-1,1.5s-1.2,0.7-1.9,0.7c-0.5,0-0.9-0.1-1.3-0.3s-0.7-0.5-0.9-0.9s-0.3-0.9-0.3-1.4
			c0-0.7,0.2-1.3,0.5-2s0.7-1.1,1.2-1.4s1-0.5,1.6-0.5c0.7,0,1.3,0.2,1.8,0.7s0.7,1.1,0.7,1.9c0,0.3,0,0.6-0.1,0.9h-4.6
			c0,0.1,0,0.2,0,0.3c0,0.6,0.1,1,0.4,1.3s0.6,0.5,1,0.5c0.4,0,0.7-0.1,1.1-0.4S255.7,823.9,255.9,823.5z M252.8,821.9h3.5
			c0-0.1,0-0.2,0-0.2c0-0.5-0.1-0.9-0.4-1.2s-0.6-0.4-1-0.4c-0.5,0-0.9,0.2-1.2,0.5S253,821.3,252.8,821.9z"/>
		<path d="M258,825.6l1.3-6.2h1l-0.2,1.1c0.4-0.4,0.8-0.7,1.2-0.9s0.7-0.3,1.1-0.3c0.5,0,0.9,0.1,1.2,0.4s0.4,0.6,0.4,1.1
			c0,0.2-0.1,0.6-0.2,1.1l-0.8,3.8h-1.1l0.8-3.9c0.1-0.4,0.1-0.7,0.1-0.8c0-0.2-0.1-0.4-0.2-0.5s-0.3-0.2-0.6-0.2
			c-0.5,0-1,0.2-1.5,0.6s-0.7,1.1-0.9,2l-0.6,2.9H258z"/>
		<path d="M264.8,823.5l1.1-0.1c0,0.3,0,0.6,0.1,0.8s0.3,0.4,0.5,0.5s0.5,0.2,0.9,0.2c0.5,0,0.8-0.1,1.1-0.3s0.4-0.4,0.4-0.7
			c0-0.2-0.1-0.4-0.2-0.5c-0.1-0.2-0.5-0.4-1.1-0.6s-0.9-0.4-1.1-0.5c-0.3-0.2-0.5-0.3-0.6-0.6s-0.2-0.5-0.2-0.7
			c0-0.5,0.2-0.9,0.6-1.3s0.9-0.5,1.6-0.5c0.8,0,1.4,0.2,1.8,0.5s0.6,0.8,0.6,1.4l-1,0.1c0-0.4-0.1-0.7-0.4-0.9s-0.6-0.3-1.1-0.3
			c-0.4,0-0.7,0.1-0.9,0.3s-0.3,0.3-0.3,0.5s0.1,0.4,0.3,0.5c0.1,0.1,0.4,0.3,0.9,0.5c0.8,0.4,1.3,0.6,1.5,0.8
			c0.3,0.3,0.5,0.7,0.5,1.2c0,0.3-0.1,0.6-0.3,0.9s-0.5,0.5-0.9,0.7s-0.8,0.3-1.4,0.3c-0.7,0-1.3-0.2-1.8-0.5
			S264.7,824.3,264.8,823.5z"/>
		<path d="M270.6,825.6l1.3-6.2h1.1l-1.3,6.2H270.6z M272.2,818.2l0.3-1.2h1.1l-0.3,1.2H272.2z"/>
		<path d="M273.5,823.2c0-1.2,0.4-2.2,1.1-3c0.6-0.7,1.4-1,2.3-1c0.8,0,1.4,0.2,1.8,0.7s0.7,1.1,0.7,1.9c0,0.7-0.1,1.4-0.4,2
			s-0.7,1.1-1.2,1.4s-1.1,0.5-1.7,0.5c-0.5,0-0.9-0.1-1.3-0.3s-0.7-0.5-0.9-0.9S273.5,823.7,273.5,823.2z M274.6,823.1
			c0,0.6,0.1,1,0.4,1.3s0.6,0.5,1.1,0.5c0.2,0,0.5,0,0.7-0.1s0.4-0.2,0.6-0.4s0.4-0.4,0.5-0.6s0.2-0.5,0.3-0.8
			c0.1-0.4,0.2-0.8,0.2-1.1c0-0.6-0.1-1-0.4-1.3s-0.6-0.5-1.1-0.5c-0.3,0-0.6,0.1-0.9,0.2s-0.5,0.4-0.7,0.7s-0.4,0.7-0.5,1.1
			S274.6,822.8,274.6,823.1z"/>
		<path d="M280,825.6l1.3-6.2h1l-0.2,1.1c0.4-0.4,0.8-0.7,1.2-0.9s0.7-0.3,1.1-0.3c0.5,0,0.9,0.1,1.2,0.4s0.4,0.6,0.4,1.1
			c0,0.2-0.1,0.6-0.2,1.1l-0.8,3.8h-1.1l0.8-3.9c0.1-0.4,0.1-0.7,0.1-0.8c0-0.2-0.1-0.4-0.2-0.5s-0.3-0.2-0.6-0.2
			c-0.5,0-1,0.2-1.5,0.6s-0.7,1.1-0.9,2l-0.6,2.9H280z"/>
		<path d="M286.8,823.5l1.1-0.1c0,0.3,0,0.6,0.1,0.8s0.3,0.4,0.5,0.5s0.5,0.2,0.9,0.2c0.5,0,0.8-0.1,1.1-0.3s0.4-0.4,0.4-0.7
			c0-0.2-0.1-0.4-0.2-0.5c-0.1-0.2-0.5-0.4-1.1-0.6s-0.9-0.4-1.1-0.5c-0.3-0.2-0.5-0.3-0.6-0.6s-0.2-0.5-0.2-0.7
			c0-0.5,0.2-0.9,0.6-1.3s0.9-0.5,1.6-0.5c0.8,0,1.4,0.2,1.8,0.5s0.6,0.8,0.6,1.4l-1,0.1c0-0.4-0.1-0.7-0.4-0.9s-0.6-0.3-1.1-0.3
			c-0.4,0-0.7,0.1-0.9,0.3s-0.3,0.3-0.3,0.5s0.1,0.4,0.3,0.5c0.1,0.1,0.4,0.3,0.9,0.5c0.8,0.4,1.3,0.6,1.5,0.8
			c0.3,0.3,0.5,0.7,0.5,1.2c0,0.3-0.1,0.6-0.3,0.9s-0.5,0.5-0.9,0.7s-0.8,0.3-1.4,0.3c-0.7,0-1.3-0.2-1.8-0.5
			S286.8,824.3,286.8,823.5z"/>
		<path d="M296,825.6l1.3-6.2h1.1l-1.3,6.2H296z M297.5,818.2l0.3-1.2h1.1l-0.3,1.2H297.5z"/>
		<path d="M298.7,825.6l1.3-6.2h1l-0.2,1.1c0.4-0.4,0.8-0.7,1.2-0.9s0.7-0.3,1.1-0.3c0.5,0,0.9,0.1,1.2,0.4s0.4,0.6,0.4,1.1
			c0,0.2-0.1,0.6-0.2,1.1l-0.8,3.8h-1.1l0.8-3.9c0.1-0.4,0.1-0.7,0.1-0.8c0-0.2-0.1-0.4-0.2-0.5s-0.3-0.2-0.6-0.2
			c-0.5,0-1,0.2-1.5,0.6s-0.7,1.1-0.9,2l-0.6,2.9H298.7z"/>
		<path d="M308.7,825.6l1.3-6.2h1.1l-0.2,1c0.4-0.4,0.7-0.7,1.1-0.9s0.6-0.3,1-0.3c0.4,0,0.7,0.1,1,0.3s0.4,0.5,0.5,0.9
			c0.3-0.4,0.6-0.7,1-0.9s0.7-0.3,1.1-0.3c0.5,0,0.9,0.1,1.2,0.4s0.4,0.6,0.4,1c0,0.2,0,0.5-0.1,0.9l-0.8,4H316l0.9-4.1
			c0.1-0.3,0.1-0.6,0.1-0.7c0-0.2-0.1-0.4-0.2-0.5s-0.3-0.2-0.5-0.2c-0.3,0-0.6,0.1-1,0.3s-0.6,0.4-0.8,0.8s-0.3,0.8-0.5,1.4l-0.6,3
			h-1.1l0.9-4.2c0.1-0.3,0.1-0.5,0.1-0.6c0-0.2-0.1-0.4-0.2-0.5s-0.3-0.2-0.5-0.2c-0.3,0-0.6,0.1-0.9,0.3s-0.6,0.5-0.8,0.8
			s-0.4,0.8-0.5,1.5l-0.6,2.9H308.7z"/>
		<path d="M318.6,825.6l1.3-6.2h1.1l-1.3,6.2H318.6z M320.2,818.2l0.3-1.2h1.1l-0.3,1.2H320.2z"/>
		<path d="M321.3,825.6l1.8-8.6h1.1l-1.8,8.6H321.3z"/>
		<path d="M323.9,825.6l1.8-8.6h1.1l-1.8,8.6H323.9z"/>
		<path d="M326.6,825.6l1.3-6.2h1.1l-1.3,6.2H326.6z M328.2,818.2l0.3-1.2h1.1l-0.3,1.2H328.2z"/>
		<path d="M329.3,825.6l1.3-6.2h1.1l-0.2,1c0.4-0.4,0.7-0.7,1.1-0.9s0.6-0.3,1-0.3c0.4,0,0.7,0.1,1,0.3s0.4,0.5,0.5,0.9
			c0.3-0.4,0.6-0.7,1-0.9s0.7-0.3,1.1-0.3c0.5,0,0.9,0.1,1.2,0.4s0.4,0.6,0.4,1c0,0.2,0,0.5-0.1,0.9l-0.8,4h-1.1l0.9-4.1
			c0.1-0.3,0.1-0.6,0.1-0.7c0-0.2-0.1-0.4-0.2-0.5s-0.3-0.2-0.5-0.2c-0.3,0-0.6,0.1-1,0.3s-0.6,0.4-0.8,0.8s-0.3,0.8-0.5,1.4l-0.6,3
			H333l0.9-4.2c0.1-0.3,0.1-0.5,0.1-0.6c0-0.2-0.1-0.4-0.2-0.5s-0.3-0.2-0.5-0.2c-0.3,0-0.6,0.1-0.9,0.3s-0.6,0.5-0.8,0.8
			s-0.4,0.8-0.5,1.5l-0.6,2.9H329.3z"/>
		<path d="M343.9,823.5l1,0.1c-0.1,0.5-0.5,1-1,1.5s-1.2,0.7-1.9,0.7c-0.5,0-0.9-0.1-1.3-0.3s-0.7-0.5-0.9-0.9s-0.3-0.9-0.3-1.4
			c0-0.7,0.2-1.3,0.5-2s0.7-1.1,1.2-1.4s1-0.5,1.6-0.5c0.7,0,1.3,0.2,1.8,0.7s0.7,1.1,0.7,1.9c0,0.3,0,0.6-0.1,0.9h-4.6
			c0,0.1,0,0.2,0,0.3c0,0.6,0.1,1,0.4,1.3s0.6,0.5,1,0.5c0.4,0,0.7-0.1,1.1-0.4S343.7,823.9,343.9,823.5z M340.8,821.9h3.5
			c0-0.1,0-0.2,0-0.2c0-0.5-0.1-0.9-0.4-1.2s-0.6-0.4-1-0.4c-0.5,0-0.9,0.2-1.2,0.5S341,821.3,340.8,821.9z"/>
		<path d="M348.5,824.7l-0.2,0.9c-0.3,0.1-0.5,0.1-0.7,0.1c-0.4,0-0.8-0.1-1-0.3c-0.2-0.2-0.3-0.4-0.3-0.6c0-0.1,0.1-0.5,0.2-0.9
			l0.8-3.6h-0.8l0.2-0.8h0.8l0.3-1.5l1.2-0.7l-0.5,2.3h1l-0.2,0.8h-1l-0.7,3.4c-0.1,0.4-0.1,0.7-0.1,0.8c0,0.1,0,0.2,0.1,0.3
			s0.2,0.1,0.4,0.1C348.1,824.8,348.3,824.8,348.5,824.7z"/>
		<path d="M349.4,825.6l1.3-6.2h0.9l-0.3,1.3c0.3-0.5,0.6-0.8,0.9-1.1s0.6-0.3,0.9-0.3c0.2,0,0.5,0.1,0.8,0.2l-0.4,1
			c-0.2-0.1-0.4-0.2-0.6-0.2c-0.4,0-0.8,0.2-1.1,0.6s-0.7,1.2-0.9,2.2l-0.5,2.5H349.4z"/>
		<path d="M357.9,823.5l1,0.1c-0.1,0.5-0.5,1-1,1.5s-1.2,0.7-1.9,0.7c-0.5,0-0.9-0.1-1.3-0.3s-0.7-0.5-0.9-0.9s-0.3-0.9-0.3-1.4
			c0-0.7,0.2-1.3,0.5-2s0.7-1.1,1.2-1.4s1-0.5,1.6-0.5c0.7,0,1.3,0.2,1.8,0.7s0.7,1.1,0.7,1.9c0,0.3,0,0.6-0.1,0.9h-4.6
			c0,0.1,0,0.2,0,0.3c0,0.6,0.1,1,0.4,1.3s0.6,0.5,1,0.5c0.4,0,0.7-0.1,1.1-0.4S357.7,823.9,357.9,823.5z M354.8,821.9h3.5
			c0-0.1,0-0.2,0-0.2c0-0.5-0.1-0.9-0.4-1.2s-0.6-0.4-1-0.4c-0.5,0-0.9,0.2-1.2,0.5S355,821.3,354.8,821.9z"/>
		<path d="M360.1,823.5l1.1-0.1c0,0.3,0,0.6,0.1,0.8s0.3,0.4,0.5,0.5s0.5,0.2,0.9,0.2c0.5,0,0.8-0.1,1.1-0.3s0.4-0.4,0.4-0.7
			c0-0.2-0.1-0.4-0.2-0.5c-0.1-0.2-0.5-0.4-1.1-0.6s-0.9-0.4-1.1-0.5c-0.3-0.2-0.5-0.3-0.6-0.6s-0.2-0.5-0.2-0.7
			c0-0.5,0.2-0.9,0.6-1.3s0.9-0.5,1.6-0.5c0.8,0,1.4,0.2,1.8,0.5s0.6,0.8,0.6,1.4l-1,0.1c0-0.4-0.1-0.7-0.4-0.9s-0.6-0.3-1.1-0.3
			c-0.4,0-0.7,0.1-0.9,0.3s-0.3,0.3-0.3,0.5s0.1,0.4,0.3,0.5c0.1,0.1,0.4,0.3,0.9,0.5c0.8,0.4,1.3,0.6,1.5,0.8
			c0.3,0.3,0.5,0.7,0.5,1.2c0,0.3-0.1,0.6-0.3,0.9s-0.5,0.5-0.9,0.7s-0.8,0.3-1.4,0.3c-0.7,0-1.3-0.2-1.8-0.5
			S360.1,824.3,360.1,823.5z"/>
	</g>
</g>
</svg>
